<?xml version="1.0" encoding="UTF-8" standalone="no"?><svg xmlns="http://www.w3.org/2000/svg" xmlns:xlink="http://www.w3.org/1999/xlink" clip-rule="evenodd" stroke-miterlimit="10" viewBox="0 0 1024 768"><desc>SVG generated by Keynote</desc><defs></defs><g transform="matrix(1.00, 0.00, -0.00, -1.00, 0.0, 768.0)"><g><clipPath id="clip0x600002ea7920"><path d="M 0.0 768.0 L 1024.0 768.0 L 1024.0 0.0 L 0.0 0.0 Z M 0.0 768.0 "></path></clipPath><g clip-path="url(#clip0x600002ea7920)"><image xlink:href="../../BE03AB4A-F5E0-4685-80C7-20DCBC62631F/assets/574DCE55A4CF432400CBDDDE1DFDFC9B.jpeg" width="2048.00" height="1536.00" transform="matrix(0.50, 0.00, -0.00, -0.50, 0.0, 768.0)"></image></g></g><text xml:space="preserve" font-family="GillSans-Light,Gill Sans" font-size="72.0" fill="#525252" transform="matrix(1.00, 0.00, -0.00, -1.00, 270.9, 628.2)">C</text><text xml:space="preserve" font-family="GillSans-Light,Gill Sans" font-size="72.0" fill="#525252" transform="matrix(1.00, 0.00, -0.00, -1.00, 319.6, 628.2)">O</text><text xml:space="preserve" font-family="GillSans-Light,Gill Sans" font-size="72.0" fill="#525252" transform="matrix(1.00, 0.00, -0.00, -1.00, 378.9, 628.2)">N</text><text xml:space="preserve" font-family="GillSans-Light,Gill Sans" font-size="72.0" fill="#525252" transform="matrix(1.00, 0.00, -0.00, -1.00, 434.4, 628.2)">T</text><text xml:space="preserve" font-family="GillSans-Light,Gill Sans" font-size="72.0" fill="#525252" transform="matrix(1.00, 0.00, -0.00, -1.00, 475.7, 628.2)">R</text><text xml:space="preserve" font-family="GillSans-Light,Gill Sans" font-size="72.0" fill="#525252" transform="matrix(1.00, 0.00, -0.00, -1.00, 515.9, 628.2)">O</text><text xml:space="preserve" font-family="GillSans-Light,Gill Sans" font-size="72.0" fill="#525252" transform="matrix(1.00, 0.00, -0.00, -1.00, 575.2, 628.2)">L</text><text xml:space="preserve" font-family="GillSans-Light,Gill Sans" font-size="72.0" fill="#525252" transform="matrix(1.00, 0.00, -0.00, -1.00, 609.0, 628.2)">L</text><text xml:space="preserve" font-family="GillSans-Light,Gill Sans" font-size="72.0" fill="#525252" transform="matrix(1.00, 0.00, -0.00, -1.00, 642.8, 628.2)">E</text><text xml:space="preserve" font-family="GillSans-Light,Gill Sans" font-size="72.0" fill="#525252" transform="matrix(1.00, 0.00, -0.00, -1.00, 678.1, 628.2)">R</text><text xml:space="preserve" font-family="GillSans-Light,Gill Sans" font-size="72.0" fill="#525252" transform="matrix(1.00, 0.00, -0.00, -1.00, 719.4, 628.2)">S</text><path d="M 300.2 389.0 L 592.8 389.0 L 592.8 368.0 L 300.2 368.0 Z M 300.2 389.0 " fill="#000000" fill-opacity="0.00"></path><path d="M 300.2 368.0 L 722.8 368.0 L 722.8 347.0 L 300.2 347.0 Z M 300.2 368.0 " fill="#000000" fill-opacity="0.00"></path><path d="M 300.2 347.0 L 506.1 347.0 L 506.1 326.0 L 300.2 326.0 Z M 300.2 347.0 " fill="#000000" fill-opacity="0.00"></path><path d="M 300.2 305.0 L 625.3 305.0 L 625.3 284.0 L 300.2 284.0 Z M 300.2 305.0 " fill="#000000" fill-opacity="0.00"></path><path d="M 300.2 284.0 L 592.8 284.0 L 592.8 263.0 L 300.2 263.0 Z M 300.2 284.0 " fill="#000000" fill-opacity="0.00"></path><path d="M 300.2 263.0 L 365.2 263.0 L 365.2 242.0 L 300.2 242.0 Z M 300.2 263.0 " fill="#000000" fill-opacity="0.00"></path><path d="M 300.2 242.0 L 354.4 242.0 L 354.4 221.0 L 300.2 221.0 Z M 300.2 242.0 " fill="#000000" fill-opacity="0.00"></path><text xml:space="preserve" font-family="Menlo-Bold,Menlo" font-weight="bold" font-size="18.0" fill="#7A238C" transform="matrix(1.00, 0.00, -0.00, -1.00, 300.2, 372.2)">a</text><text xml:space="preserve" font-family="Menlo-Bold,Menlo" font-weight="bold" font-size="18.0" fill="#7A238C" transform="matrix(1.00, 0.00, -0.00, -1.00, 311.0, 372.2)">n</text><text xml:space="preserve" font-family="Menlo-Bold,Menlo" font-weight="bold" font-size="18.0" fill="#7A238C" transform="matrix(1.00, 0.00, -0.00, -1.00, 321.9, 372.2)">g</text><text xml:space="preserve" font-family="Menlo-Bold,Menlo" font-weight="bold" font-size="18.0" fill="#7A238C" transform="matrix(1.00, 0.00, -0.00, -1.00, 332.7, 372.2)">u</text><text xml:space="preserve" font-family="Menlo-Bold,Menlo" font-weight="bold" font-size="18.0" fill="#7A238C" transform="matrix(1.00, 0.00, -0.00, -1.00, 343.5, 372.2)">l</text><text xml:space="preserve" font-family="Menlo-Bold,Menlo" font-weight="bold" font-size="18.0" fill="#7A238C" transform="matrix(1.00, 0.00, -0.00, -1.00, 354.4, 372.2)">a</text><text xml:space="preserve" font-family="Menlo-Bold,Menlo" font-weight="bold" font-size="18.0" fill="#7A238C" transform="matrix(1.00, 0.00, -0.00, -1.00, 365.2, 372.2)">r</text><text xml:space="preserve" font-family="Menlo-Regular,Menlo" font-size="18.0" fill="#000000" transform="matrix(1.00, 0.00, -0.00, -1.00, 376.0, 372.2)">.</text><text xml:space="preserve" font-family="Menlo-Regular,Menlo" font-size="18.0" fill="#000000" transform="matrix(1.00, 0.00, -0.00, -1.00, 386.9, 372.2)">m</text><text xml:space="preserve" font-family="Menlo-Regular,Menlo" font-size="18.0" fill="#000000" transform="matrix(1.00, 0.00, -0.00, -1.00, 397.7, 372.2)">o</text><text xml:space="preserve" font-family="Menlo-Regular,Menlo" font-size="18.0" fill="#000000" transform="matrix(1.00, 0.00, -0.00, -1.00, 408.6, 372.2)">d</text><text xml:space="preserve" font-family="Menlo-Regular,Menlo" font-size="18.0" fill="#000000" transform="matrix(1.00, 0.00, -0.00, -1.00, 419.4, 372.2)">u</text><text xml:space="preserve" font-family="Menlo-Regular,Menlo" font-size="18.0" fill="#000000" transform="matrix(1.00, 0.00, -0.00, -1.00, 430.2, 372.2)">l</text><text xml:space="preserve" font-family="Menlo-Regular,Menlo" font-size="18.0" fill="#000000" transform="matrix(1.00, 0.00, -0.00, -1.00, 441.1, 372.2)">e</text><text xml:space="preserve" font-family="Menlo-Regular,Menlo" font-size="18.0" fill="#000000" transform="matrix(1.00, 0.00, -0.00, -1.00, 451.9, 372.2)">(</text><text xml:space="preserve" font-family="Menlo-Bold,Menlo" font-weight="bold" font-size="18.0" fill="#008E00" transform="matrix(1.00, 0.00, -0.00, -1.00, 462.7, 372.2)">'</text><text xml:space="preserve" font-family="Menlo-Bold,Menlo" font-weight="bold" font-size="18.0" fill="#008E00" transform="matrix(1.00, 0.00, -0.00, -1.00, 473.6, 372.2)">m</text><text xml:space="preserve" font-family="Menlo-Bold,Menlo" font-weight="bold" font-size="18.0" fill="#008E00" transform="matrix(1.00, 0.00, -0.00, -1.00, 484.4, 372.2)">y</text><text xml:space="preserve" font-family="Menlo-Bold,Menlo" font-weight="bold" font-size="18.0" fill="#008E00" transform="matrix(1.00, 0.00, -0.00, -1.00, 495.3, 372.2)">A</text><text xml:space="preserve" font-family="Menlo-Bold,Menlo" font-weight="bold" font-size="18.0" fill="#008E00" transform="matrix(1.00, 0.00, -0.00, -1.00, 506.1, 372.2)">p</text><text xml:space="preserve" font-family="Menlo-Bold,Menlo" font-weight="bold" font-size="18.0" fill="#008E00" transform="matrix(1.00, 0.00, -0.00, -1.00, 516.9, 372.2)">p</text><text xml:space="preserve" font-family="Menlo-Bold,Menlo" font-weight="bold" font-size="18.0" fill="#008E00" transform="matrix(1.00, 0.00, -0.00, -1.00, 527.8, 372.2)">'</text><text xml:space="preserve" font-family="Menlo-Regular,Menlo" font-size="18.0" fill="#D68B40" transform="matrix(1.00, 0.00, -0.00, -1.00, 538.6, 372.2)">,</text><text xml:space="preserve" font-family="Menlo-Regular,Menlo" font-size="18.0" fill="#D68B40" transform="matrix(1.00, 0.00, -0.00, -1.00, 549.4, 372.2)"> </text><text xml:space="preserve" font-family="Menlo-Regular,Menlo" font-size="18.0" fill="#000000" transform="matrix(1.00, 0.00, -0.00, -1.00, 560.3, 372.2)">[</text><text xml:space="preserve" font-family="Menlo-Regular,Menlo" font-size="18.0" fill="#000000" transform="matrix(1.00, 0.00, -0.00, -1.00, 571.1, 372.2)">]</text><text xml:space="preserve" font-family="Menlo-Regular,Menlo" font-size="18.0" fill="#000000" transform="matrix(1.00, 0.00, -0.00, -1.00, 581.9, 372.2)">)</text><text xml:space="preserve" font-family="Monaco,Monaco" font-size="18.0" fill="#000000" transform="matrix(1.00, 0.00, -0.00, -1.00, 592.8, 372.2)"> </text><text xml:space="preserve" font-family="Menlo-Regular,Menlo" font-size="18.0" fill="#000000" transform="matrix(1.00, 0.00, -0.00, -1.00, 300.2, 351.2)"> </text><text xml:space="preserve" font-family="Menlo-Regular,Menlo" font-size="18.0" fill="#000000" transform="matrix(1.00, 0.00, -0.00, -1.00, 311.0, 351.2)"> </text><text xml:space="preserve" font-family="Menlo-Regular,Menlo" font-size="18.0" fill="#000000" transform="matrix(1.00, 0.00, -0.00, -1.00, 321.9, 351.2)">.</text><text xml:space="preserve" font-family="Menlo-Italic,Menlo" font-style="italic" font-size="18.0" fill="#000000" transform="matrix(1.00, 0.00, -0.00, -1.00, 332.7, 351.2)">c</text><text xml:space="preserve" font-family="Menlo-Italic,Menlo" font-style="italic" font-size="18.0" fill="#000000" transform="matrix(1.00, 0.00, -0.00, -1.00, 343.5, 351.2)">o</text><text xml:space="preserve" font-family="Menlo-Italic,Menlo" font-style="italic" font-size="18.0" fill="#000000" transform="matrix(1.00, 0.00, -0.00, -1.00, 354.4, 351.2)">n</text><text xml:space="preserve" font-family="Menlo-Italic,Menlo" font-style="italic" font-size="18.0" fill="#000000" transform="matrix(1.00, 0.00, -0.00, -1.00, 365.2, 351.2)">t</text><text xml:space="preserve" font-family="Menlo-Italic,Menlo" font-style="italic" font-size="18.0" fill="#000000" transform="matrix(1.00, 0.00, -0.00, -1.00, 376.0, 351.2)">r</text><text xml:space="preserve" font-family="Menlo-Italic,Menlo" font-style="italic" font-size="18.0" fill="#000000" transform="matrix(1.00, 0.00, -0.00, -1.00, 386.9, 351.2)">o</text><text xml:space="preserve" font-family="Menlo-Italic,Menlo" font-style="italic" font-size="18.0" fill="#000000" transform="matrix(1.00, 0.00, -0.00, -1.00, 397.7, 351.2)">l</text><text xml:space="preserve" font-family="Menlo-Italic,Menlo" font-style="italic" font-size="18.0" fill="#000000" transform="matrix(1.00, 0.00, -0.00, -1.00, 408.6, 351.2)">l</text><text xml:space="preserve" font-family="Menlo-Italic,Menlo" font-style="italic" font-size="18.0" fill="#000000" transform="matrix(1.00, 0.00, -0.00, -1.00, 419.4, 351.2)">e</text><text xml:space="preserve" font-family="Menlo-Italic,Menlo" font-style="italic" font-size="18.0" fill="#000000" transform="matrix(1.00, 0.00, -0.00, -1.00, 430.2, 351.2)">r</text><text xml:space="preserve" font-family="Menlo-Regular,Menlo" font-size="18.0" fill="#000000" transform="matrix(1.00, 0.00, -0.00, -1.00, 441.1, 351.2)">(</text><text xml:space="preserve" font-family="Menlo-Bold,Menlo" font-weight="bold" font-size="18.0" fill="#008E00" transform="matrix(1.00, 0.00, -0.00, -1.00, 451.9, 351.2)">'</text><text xml:space="preserve" font-family="Menlo-Bold,Menlo" font-weight="bold" font-size="18.0" fill="#008E00" transform="matrix(1.00, 0.00, -0.00, -1.00, 462.7, 351.2)">H</text><text xml:space="preserve" font-family="Menlo-Bold,Menlo" font-weight="bold" font-size="18.0" fill="#008E00" transform="matrix(1.00, 0.00, -0.00, -1.00, 473.6, 351.2)">e</text><text xml:space="preserve" font-family="Menlo-Bold,Menlo" font-weight="bold" font-size="18.0" fill="#008E00" transform="matrix(1.00, 0.00, -0.00, -1.00, 484.4, 351.2)">l</text><text xml:space="preserve" font-family="Menlo-Bold,Menlo" font-weight="bold" font-size="18.0" fill="#008E00" transform="matrix(1.00, 0.00, -0.00, -1.00, 495.3, 351.2)">l</text><text xml:space="preserve" font-family="Menlo-Bold,Menlo" font-weight="bold" font-size="18.0" fill="#008E00" transform="matrix(1.00, 0.00, -0.00, -1.00, 506.1, 351.2)">o</text><text xml:space="preserve" font-family="Menlo-Bold,Menlo" font-weight="bold" font-size="18.0" fill="#008E00" transform="matrix(1.00, 0.00, -0.00, -1.00, 516.9, 351.2)">C</text><text xml:space="preserve" font-family="Menlo-Bold,Menlo" font-weight="bold" font-size="18.0" fill="#008E00" transform="matrix(1.00, 0.00, -0.00, -1.00, 527.8, 351.2)">t</text><text xml:space="preserve" font-family="Menlo-Bold,Menlo" font-weight="bold" font-size="18.0" fill="#008E00" transform="matrix(1.00, 0.00, -0.00, -1.00, 538.6, 351.2)">r</text><text xml:space="preserve" font-family="Menlo-Bold,Menlo" font-weight="bold" font-size="18.0" fill="#008E00" transform="matrix(1.00, 0.00, -0.00, -1.00, 549.4, 351.2)">l</text><text xml:space="preserve" font-family="Menlo-Bold,Menlo" font-weight="bold" font-size="18.0" fill="#008E00" transform="matrix(1.00, 0.00, -0.00, -1.00, 560.3, 351.2)">'</text><text xml:space="preserve" font-family="Menlo-Regular,Menlo" font-size="18.0" fill="#D68B40" transform="matrix(1.00, 0.00, -0.00, -1.00, 571.1, 351.2)">,</text><text xml:space="preserve" font-family="Menlo-Regular,Menlo" font-size="18.0" fill="#D68B40" transform="matrix(1.00, 0.00, -0.00, -1.00, 581.9, 351.2)"> </text><text xml:space="preserve" font-family="Menlo-Bold,Menlo" font-weight="bold" font-size="18.0" fill="#011892" transform="matrix(1.00, 0.00, -0.00, -1.00, 592.8, 351.2)">f</text><text xml:space="preserve" font-family="Menlo-Bold,Menlo" font-weight="bold" font-size="18.0" fill="#011892" transform="matrix(1.00, 0.00, -0.00, -1.00, 603.6, 351.2)">u</text><text xml:space="preserve" font-family="Menlo-Bold,Menlo" font-weight="bold" font-size="18.0" fill="#011892" transform="matrix(1.00, 0.00, -0.00, -1.00, 614.5, 351.2)">n</text><text xml:space="preserve" font-family="Menlo-Bold,Menlo" font-weight="bold" font-size="18.0" fill="#011892" transform="matrix(1.00, 0.00, -0.00, -1.00, 625.3, 351.2)">c</text><text xml:space="preserve" font-family="Menlo-Bold,Menlo" font-weight="bold" font-size="18.0" fill="#011892" transform="matrix(1.00, 0.00, -0.00, -1.00, 636.1, 351.2)">t</text><text xml:space="preserve" font-family="Menlo-Bold,Menlo" font-weight="bold" font-size="18.0" fill="#011892" transform="matrix(1.00, 0.00, -0.00, -1.00, 647.0, 351.2)">i</text><text xml:space="preserve" font-family="Menlo-Bold,Menlo" font-weight="bold" font-size="18.0" fill="#011892" transform="matrix(1.00, 0.00, -0.00, -1.00, 657.8, 351.2)">o</text><text xml:space="preserve" font-family="Menlo-Bold,Menlo" font-weight="bold" font-size="18.0" fill="#011892" transform="matrix(1.00, 0.00, -0.00, -1.00, 668.6, 351.2)">n</text><text xml:space="preserve" font-family="Menlo-Regular,Menlo" font-size="18.0" fill="#000000" transform="matrix(1.00, 0.00, -0.00, -1.00, 679.5, 351.2)">(</text><text xml:space="preserve" font-family="Menlo-Regular,Menlo" font-size="18.0" fill="#000000" transform="matrix(1.00, 0.00, -0.00, -1.00, 690.3, 351.2)">)</text><text xml:space="preserve" font-family="Menlo-Regular,Menlo" font-size="18.0" fill="#000000" transform="matrix(1.00, 0.00, -0.00, -1.00, 701.1, 351.2)"> </text><text xml:space="preserve" font-family="Menlo-Regular,Menlo" font-size="18.0" fill="#000000" transform="matrix(1.00, 0.00, -0.00, -1.00, 712.0, 351.2)">{</text><text xml:space="preserve" font-family="Monaco,Monaco" font-size="18.0" fill="#000000" transform="matrix(1.00, 0.00, -0.00, -1.00, 722.8, 351.2)"> </text><text xml:space="preserve" font-family="Menlo-Regular,Menlo" font-size="18.0" fill="#000000" transform="matrix(1.00, 0.00, -0.00, -1.00, 300.2, 330.2)"> </text><text xml:space="preserve" font-family="Menlo-Regular,Menlo" font-size="18.0" fill="#000000" transform="matrix(1.00, 0.00, -0.00, -1.00, 311.0, 330.2)"> </text><text xml:space="preserve" font-family="Menlo-Regular,Menlo" font-size="18.0" fill="#000000" transform="matrix(1.00, 0.00, -0.00, -1.00, 321.9, 330.2)"> </text><text xml:space="preserve" font-family="Menlo-Regular,Menlo" font-size="18.0" fill="#000000" transform="matrix(1.00, 0.00, -0.00, -1.00, 332.7, 330.2)"> </text><text xml:space="preserve" font-family="Menlo-Bold,Menlo" font-weight="bold" font-size="18.0" fill="#011892" transform="matrix(1.00, 0.00, -0.00, -1.00, 343.5, 330.2)">t</text><text xml:space="preserve" font-family="Menlo-Bold,Menlo" font-weight="bold" font-size="18.0" fill="#011892" transform="matrix(1.00, 0.00, -0.00, -1.00, 354.4, 330.2)">h</text><text xml:space="preserve" font-family="Menlo-Bold,Menlo" font-weight="bold" font-size="18.0" fill="#011892" transform="matrix(1.00, 0.00, -0.00, -1.00, 365.2, 330.2)">i</text><text xml:space="preserve" font-family="Menlo-Bold,Menlo" font-weight="bold" font-size="18.0" fill="#011892" transform="matrix(1.00, 0.00, -0.00, -1.00, 376.0, 330.2)">s</text><text xml:space="preserve" font-family="Menlo-Regular,Menlo" font-size="18.0" fill="#000000" transform="matrix(1.00, 0.00, -0.00, -1.00, 386.9, 330.2)">.</text><text xml:space="preserve" font-family="Menlo-Bold,Menlo" font-weight="bold" font-size="18.0" fill="#7A238C" transform="matrix(1.00, 0.00, -0.00, -1.00, 397.7, 330.2)">n</text><text xml:space="preserve" font-family="Menlo-Bold,Menlo" font-weight="bold" font-size="18.0" fill="#7A238C" transform="matrix(1.00, 0.00, -0.00, -1.00, 408.6, 330.2)">a</text><text xml:space="preserve" font-family="Menlo-Bold,Menlo" font-weight="bold" font-size="18.0" fill="#7A238C" transform="matrix(1.00, 0.00, -0.00, -1.00, 419.4, 330.2)">m</text><text xml:space="preserve" font-family="Menlo-Bold,Menlo" font-weight="bold" font-size="18.0" fill="#7A238C" transform="matrix(1.00, 0.00, -0.00, -1.00, 430.2, 330.2)">e</text><text xml:space="preserve" font-family="Menlo-Bold,Menlo" font-weight="bold" font-size="18.0" fill="#7A238C" transform="matrix(1.00, 0.00, -0.00, -1.00, 441.1, 330.2)"> </text><text xml:space="preserve" font-family="Menlo-Regular,Menlo" font-size="18.0" fill="#000000" transform="matrix(1.00, 0.00, -0.00, -1.00, 451.9, 330.2)">=</text><text xml:space="preserve" font-family="Menlo-Regular,Menlo" font-size="18.0" fill="#000000" transform="matrix(1.00, 0.00, -0.00, -1.00, 462.7, 330.2)"> </text><text xml:space="preserve" font-family="Menlo-Bold,Menlo" font-weight="bold" font-size="18.0" fill="#008E00" transform="matrix(1.00, 0.00, -0.00, -1.00, 473.6, 330.2)">'</text><text xml:space="preserve" font-family="Menlo-Bold,Menlo" font-weight="bold" font-size="18.0" fill="#008E00" transform="matrix(1.00, 0.00, -0.00, -1.00, 484.4, 330.2)">'</text><text xml:space="preserve" font-family="Menlo-Regular,Menlo" font-size="18.0" fill="#D68B40" transform="matrix(1.00, 0.00, -0.00, -1.00, 495.2, 330.2)">;</text><text xml:space="preserve" font-family="Monaco,Monaco" font-size="18.0" fill="#D68B40" transform="matrix(1.00, 0.00, -0.00, -1.00, 506.1, 330.2)"> </text><text xml:space="preserve" font-family="Monaco,Monaco" font-size="18.0" fill="#D68B40" transform="matrix(1.00, 0.00, -0.00, -1.00, 300.2, 309.2)"> </text><text xml:space="preserve" font-family="Menlo-Regular,Menlo" font-size="18.0" fill="#D68B40" transform="matrix(1.00, 0.00, -0.00, -1.00, 300.2, 288.2)"> </text><text xml:space="preserve" font-family="Menlo-Regular,Menlo" font-size="18.0" fill="#D68B40" transform="matrix(1.00, 0.00, -0.00, -1.00, 311.0, 288.2)"> </text><text xml:space="preserve" font-family="Menlo-Regular,Menlo" font-size="18.0" fill="#D68B40" transform="matrix(1.00, 0.00, -0.00, -1.00, 321.9, 288.2)"> </text><text xml:space="preserve" font-family="Menlo-Regular,Menlo" font-size="18.0" fill="#D68B40" transform="matrix(1.00, 0.00, -0.00, -1.00, 332.7, 288.2)"> </text><text xml:space="preserve" font-family="Menlo-Bold,Menlo" font-weight="bold" font-size="18.0" fill="#011892" transform="matrix(1.00, 0.00, -0.00, -1.00, 343.5, 288.2)">t</text><text xml:space="preserve" font-family="Menlo-Bold,Menlo" font-weight="bold" font-size="18.0" fill="#011892" transform="matrix(1.00, 0.00, -0.00, -1.00, 354.4, 288.2)">h</text><text xml:space="preserve" font-family="Menlo-Bold,Menlo" font-weight="bold" font-size="18.0" fill="#011892" transform="matrix(1.00, 0.00, -0.00, -1.00, 365.2, 288.2)">i</text><text xml:space="preserve" font-family="Menlo-Bold,Menlo" font-weight="bold" font-size="18.0" fill="#011892" transform="matrix(1.00, 0.00, -0.00, -1.00, 376.0, 288.2)">s</text><text xml:space="preserve" font-family="Menlo-Regular,Menlo" font-size="18.0" fill="#000000" transform="matrix(1.00, 0.00, -0.00, -1.00, 386.9, 288.2)">.</text><text xml:space="preserve" font-family="Menlo-Regular,Menlo" font-size="18.0" fill="#8C8B54" transform="matrix(1.00, 0.00, -0.00, -1.00, 397.7, 288.2)">b</text><text xml:space="preserve" font-family="Menlo-Regular,Menlo" font-size="18.0" fill="#8C8B54" transform="matrix(1.00, 0.00, -0.00, -1.00, 408.6, 288.2)">a</text><text xml:space="preserve" font-family="Menlo-Regular,Menlo" font-size="18.0" fill="#8C8B54" transform="matrix(1.00, 0.00, -0.00, -1.00, 419.4, 288.2)">t</text><text xml:space="preserve" font-family="Menlo-Regular,Menlo" font-size="18.0" fill="#8C8B54" transform="matrix(1.00, 0.00, -0.00, -1.00, 430.2, 288.2)">m</text><text xml:space="preserve" font-family="Menlo-Regular,Menlo" font-size="18.0" fill="#8C8B54" transform="matrix(1.00, 0.00, -0.00, -1.00, 441.1, 288.2)">a</text><text xml:space="preserve" font-family="Menlo-Regular,Menlo" font-size="18.0" fill="#8C8B54" transform="matrix(1.00, 0.00, -0.00, -1.00, 451.9, 288.2)">n</text><text xml:space="preserve" font-family="Menlo-Regular,Menlo" font-size="18.0" fill="#8C8B54" transform="matrix(1.00, 0.00, -0.00, -1.00, 462.7, 288.2)"> </text><text xml:space="preserve" font-family="Menlo-Regular,Menlo" font-size="18.0" fill="#000000" transform="matrix(1.00, 0.00, -0.00, -1.00, 473.6, 288.2)">=</text><text xml:space="preserve" font-family="Menlo-Regular,Menlo" font-size="18.0" fill="#000000" transform="matrix(1.00, 0.00, -0.00, -1.00, 484.4, 288.2)"> </text><text xml:space="preserve" font-family="Menlo-Bold,Menlo" font-weight="bold" font-size="18.0" fill="#011892" transform="matrix(1.00, 0.00, -0.00, -1.00, 495.2, 288.2)">f</text><text xml:space="preserve" font-family="Menlo-Bold,Menlo" font-weight="bold" font-size="18.0" fill="#011892" transform="matrix(1.00, 0.00, -0.00, -1.00, 506.1, 288.2)">u</text><text xml:space="preserve" font-family="Menlo-Bold,Menlo" font-weight="bold" font-size="18.0" fill="#011892" transform="matrix(1.00, 0.00, -0.00, -1.00, 516.9, 288.2)">n</text><text xml:space="preserve" font-family="Menlo-Bold,Menlo" font-weight="bold" font-size="18.0" fill="#011892" transform="matrix(1.00, 0.00, -0.00, -1.00, 527.8, 288.2)">c</text><text xml:space="preserve" font-family="Menlo-Bold,Menlo" font-weight="bold" font-size="18.0" fill="#011892" transform="matrix(1.00, 0.00, -0.00, -1.00, 538.6, 288.2)">t</text><text xml:space="preserve" font-family="Menlo-Bold,Menlo" font-weight="bold" font-size="18.0" fill="#011892" transform="matrix(1.00, 0.00, -0.00, -1.00, 549.4, 288.2)">i</text><text xml:space="preserve" font-family="Menlo-Bold,Menlo" font-weight="bold" font-size="18.0" fill="#011892" transform="matrix(1.00, 0.00, -0.00, -1.00, 560.3, 288.2)">o</text><text xml:space="preserve" font-family="Menlo-Bold,Menlo" font-weight="bold" font-size="18.0" fill="#011892" transform="matrix(1.00, 0.00, -0.00, -1.00, 571.1, 288.2)">n</text><text xml:space="preserve" font-family="Menlo-Regular,Menlo" font-size="18.0" fill="#000000" transform="matrix(1.00, 0.00, -0.00, -1.00, 581.9, 288.2)">(</text><text xml:space="preserve" font-family="Menlo-Regular,Menlo" font-size="18.0" fill="#000000" transform="matrix(1.00, 0.00, -0.00, -1.00, 592.8, 288.2)">)</text><text xml:space="preserve" font-family="Menlo-Regular,Menlo" font-size="18.0" fill="#000000" transform="matrix(1.00, 0.00, -0.00, -1.00, 603.6, 288.2)"> </text><text xml:space="preserve" font-family="Menlo-Regular,Menlo" font-size="18.0" fill="#000000" transform="matrix(1.00, 0.00, -0.00, -1.00, 614.5, 288.2)">{</text><text xml:space="preserve" font-family="Monaco,Monaco" font-size="18.0" fill="#000000" transform="matrix(1.00, 0.00, -0.00, -1.00, 625.3, 288.2)"> </text><text xml:space="preserve" font-family="Menlo-Regular,Menlo" font-size="18.0" fill="#000000" transform="matrix(1.00, 0.00, -0.00, -1.00, 300.2, 267.2)"> </text><text xml:space="preserve" font-family="Menlo-Regular,Menlo" font-size="18.0" fill="#000000" transform="matrix(1.00, 0.00, -0.00, -1.00, 311.0, 267.2)"> </text><text xml:space="preserve" font-family="Menlo-Regular,Menlo" font-size="18.0" fill="#000000" transform="matrix(1.00, 0.00, -0.00, -1.00, 321.9, 267.2)"> </text><text xml:space="preserve" font-family="Menlo-Regular,Menlo" font-size="18.0" fill="#000000" transform="matrix(1.00, 0.00, -0.00, -1.00, 332.7, 267.2)"> </text><text xml:space="preserve" font-family="Menlo-Regular,Menlo" font-size="18.0" fill="#000000" transform="matrix(1.00, 0.00, -0.00, -1.00, 343.5, 267.2)"> </text><text xml:space="preserve" font-family="Menlo-Regular,Menlo" font-size="18.0" fill="#000000" transform="matrix(1.00, 0.00, -0.00, -1.00, 354.4, 267.2)"> </text><text xml:space="preserve" font-family="Menlo-Bold,Menlo" font-weight="bold" font-size="18.0" fill="#011892" transform="matrix(1.00, 0.00, -0.00, -1.00, 365.2, 267.2)">t</text><text xml:space="preserve" font-family="Menlo-Bold,Menlo" font-weight="bold" font-size="18.0" fill="#011892" transform="matrix(1.00, 0.00, -0.00, -1.00, 376.0, 267.2)">h</text><text xml:space="preserve" font-family="Menlo-Bold,Menlo" font-weight="bold" font-size="18.0" fill="#011892" transform="matrix(1.00, 0.00, -0.00, -1.00, 386.9, 267.2)">i</text><text xml:space="preserve" font-family="Menlo-Bold,Menlo" font-weight="bold" font-size="18.0" fill="#011892" transform="matrix(1.00, 0.00, -0.00, -1.00, 397.7, 267.2)">s</text><text xml:space="preserve" font-family="Menlo-Regular,Menlo" font-size="18.0" fill="#000000" transform="matrix(1.00, 0.00, -0.00, -1.00, 408.5, 267.2)">.</text><text xml:space="preserve" font-family="Menlo-Bold,Menlo" font-weight="bold" font-size="18.0" fill="#7A238C" transform="matrix(1.00, 0.00, -0.00, -1.00, 419.4, 267.2)">n</text><text xml:space="preserve" font-family="Menlo-Bold,Menlo" font-weight="bold" font-size="18.0" fill="#7A238C" transform="matrix(1.00, 0.00, -0.00, -1.00, 430.2, 267.2)">a</text><text xml:space="preserve" font-family="Menlo-Bold,Menlo" font-weight="bold" font-size="18.0" fill="#7A238C" transform="matrix(1.00, 0.00, -0.00, -1.00, 441.1, 267.2)">m</text><text xml:space="preserve" font-family="Menlo-Bold,Menlo" font-weight="bold" font-size="18.0" fill="#7A238C" transform="matrix(1.00, 0.00, -0.00, -1.00, 451.9, 267.2)">e</text><text xml:space="preserve" font-family="Menlo-Bold,Menlo" font-weight="bold" font-size="18.0" fill="#7A238C" transform="matrix(1.00, 0.00, -0.00, -1.00, 462.7, 267.2)"> </text><text xml:space="preserve" font-family="Menlo-Regular,Menlo" font-size="18.0" fill="#000000" transform="matrix(1.00, 0.00, -0.00, -1.00, 473.6, 267.2)">=</text><text xml:space="preserve" font-family="Menlo-Regular,Menlo" font-size="18.0" fill="#000000" transform="matrix(1.00, 0.00, -0.00, -1.00, 484.4, 267.2)"> </text><text xml:space="preserve" font-family="Menlo-Bold,Menlo" font-weight="bold" font-size="18.0" fill="#008E00" transform="matrix(1.00, 0.00, -0.00, -1.00, 495.2, 267.2)">'</text><text xml:space="preserve" font-family="Menlo-Bold,Menlo" font-weight="bold" font-size="18.0" fill="#008E00" transform="matrix(1.00, 0.00, -0.00, -1.00, 506.1, 267.2)">B</text><text xml:space="preserve" font-family="Menlo-Bold,Menlo" font-weight="bold" font-size="18.0" fill="#008E00" transform="matrix(1.00, 0.00, -0.00, -1.00, 516.9, 267.2)">a</text><text xml:space="preserve" font-family="Menlo-Bold,Menlo" font-weight="bold" font-size="18.0" fill="#008E00" transform="matrix(1.00, 0.00, -0.00, -1.00, 527.8, 267.2)">t</text><text xml:space="preserve" font-family="Menlo-Bold,Menlo" font-weight="bold" font-size="18.0" fill="#008E00" transform="matrix(1.00, 0.00, -0.00, -1.00, 538.6, 267.2)">m</text><text xml:space="preserve" font-family="Menlo-Bold,Menlo" font-weight="bold" font-size="18.0" fill="#008E00" transform="matrix(1.00, 0.00, -0.00, -1.00, 549.4, 267.2)">a</text><text xml:space="preserve" font-family="Menlo-Bold,Menlo" font-weight="bold" font-size="18.0" fill="#008E00" transform="matrix(1.00, 0.00, -0.00, -1.00, 560.3, 267.2)">n</text><text xml:space="preserve" font-family="Menlo-Bold,Menlo" font-weight="bold" font-size="18.0" fill="#008E00" transform="matrix(1.00, 0.00, -0.00, -1.00, 571.1, 267.2)">'</text><text xml:space="preserve" font-family="Menlo-Regular,Menlo" font-size="18.0" fill="#D68B40" transform="matrix(1.00, 0.00, -0.00, -1.00, 581.9, 267.2)">;</text><text xml:space="preserve" font-family="Monaco,Monaco" font-size="18.0" fill="#D68B40" transform="matrix(1.00, 0.00, -0.00, -1.00, 592.8, 267.2)"> </text><text xml:space="preserve" font-family="Menlo-Regular,Menlo" font-size="18.0" fill="#D68B40" transform="matrix(1.00, 0.00, -0.00, -1.00, 300.2, 246.2)"> </text><text xml:space="preserve" font-family="Menlo-Regular,Menlo" font-size="18.0" fill="#D68B40" transform="matrix(1.00, 0.00, -0.00, -1.00, 311.0, 246.2)"> </text><text xml:space="preserve" font-family="Menlo-Regular,Menlo" font-size="18.0" fill="#D68B40" transform="matrix(1.00, 0.00, -0.00, -1.00, 321.9, 246.2)"> </text><text xml:space="preserve" font-family="Menlo-Regular,Menlo" font-size="18.0" fill="#D68B40" transform="matrix(1.00, 0.00, -0.00, -1.00, 332.7, 246.2)"> </text><text xml:space="preserve" font-family="Menlo-Regular,Menlo" font-size="18.0" fill="#000000" transform="matrix(1.00, 0.00, -0.00, -1.00, 343.5, 246.2)">}</text><text xml:space="preserve" font-family="Menlo-Regular,Menlo" font-size="18.0" fill="#D68B40" transform="matrix(1.00, 0.00, -0.00, -1.00, 354.4, 246.2)">;</text><text xml:space="preserve" font-family="Monaco,Monaco" font-size="18.0" fill="#D68B40" transform="matrix(1.00, 0.00, -0.00, -1.00, 365.2, 246.2)"> </text><text xml:space="preserve" font-family="Menlo-Regular,Menlo" font-size="18.0" fill="#D68B40" transform="matrix(1.00, 0.00, -0.00, -1.00, 300.2, 225.2)"> </text><text xml:space="preserve" font-family="Menlo-Regular,Menlo" font-size="18.0" fill="#D68B40" transform="matrix(1.00, 0.00, -0.00, -1.00, 311.0, 225.2)"> </text><text xml:space="preserve" font-family="Menlo-Regular,Menlo" font-size="18.0" fill="#000000" transform="matrix(1.00, 0.00, -0.00, -1.00, 321.9, 225.2)">}</text><text xml:space="preserve" font-family="Menlo-Regular,Menlo" font-size="18.0" fill="#000000" transform="matrix(1.00, 0.00, -0.00, -1.00, 332.7, 225.2)">)</text><text xml:space="preserve" font-family="Menlo-Regular,Menlo" font-size="18.0" fill="#D68B40" transform="matrix(1.00, 0.00, -0.00, -1.00, 343.5, 225.2)">;</text><text xml:space="preserve" font-family="GillSans-Light,Gill Sans" font-size="30.0" fill="#A51601" transform="matrix(1.00, 0.00, -0.00, -1.00, 714.4, 303.4)">c</text><text xml:space="preserve" font-family="GillSans-Light,Gill Sans" font-size="30.0" fill="#A51601" transform="matrix(1.00, 0.00, -0.00, -1.00, 727.0, 303.4)">o</text><text xml:space="preserve" font-family="GillSans-Light,Gill Sans" font-size="30.0" fill="#A51601" transform="matrix(1.00, 0.00, -0.00, -1.00, 743.2, 303.4)">n</text><text xml:space="preserve" font-family="GillSans-Light,Gill Sans" font-size="30.0" fill="#A51601" transform="matrix(1.00, 0.00, -0.00, -1.00, 757.9, 303.4)">t</text><text xml:space="preserve" font-family="GillSans-Light,Gill Sans" font-size="30.0" fill="#A51601" transform="matrix(1.00, 0.00, -0.00, -1.00, 767.0, 303.4)">r</text><text xml:space="preserve" font-family="GillSans-Light,Gill Sans" font-size="30.0" fill="#A51601" transform="matrix(1.00, 0.00, -0.00, -1.00, 777.0, 303.4)">o</text><text xml:space="preserve" font-family="GillSans-Light,Gill Sans" font-size="30.0" fill="#A51601" transform="matrix(1.00, 0.00, -0.00, -1.00, 793.2, 303.4)">l</text><text xml:space="preserve" font-family="GillSans-Light,Gill Sans" font-size="30.0" fill="#A51601" transform="matrix(1.00, 0.00, -0.00, -1.00, 798.9, 303.4)">l</text><text xml:space="preserve" font-family="GillSans-Light,Gill Sans" font-size="30.0" fill="#A51601" transform="matrix(1.00, 0.00, -0.00, -1.00, 804.5, 303.4)">e</text><text xml:space="preserve" font-family="GillSans-Light,Gill Sans" font-size="30.0" fill="#A51601" transform="matrix(1.00, 0.00, -0.00, -1.00, 818.9, 303.4)">r</text><text xml:space="preserve" font-family="GillSans-Light,Gill Sans" font-size="30.0" fill="#A51601" transform="matrix(1.00, 0.00, -0.00, -1.00, 828.9, 303.4)"> </text><text xml:space="preserve" font-family="GillSans-Light,Gill Sans" font-size="30.0" fill="#A51601" transform="matrix(1.00, 0.00, -0.00, -1.00, 837.2, 303.4)">n</text><text xml:space="preserve" font-family="GillSans-Light,Gill Sans" font-size="30.0" fill="#A51601" transform="matrix(1.00, 0.00, -0.00, -1.00, 851.9, 303.4)">a</text><text xml:space="preserve" font-family="GillSans-Light,Gill Sans" font-size="30.0" fill="#A51601" transform="matrix(1.00, 0.00, -0.00, -1.00, 864.7, 303.4)">m</text><text xml:space="preserve" font-family="GillSans-Light,Gill Sans" font-size="30.0" fill="#A51601" transform="matrix(1.00, 0.00, -0.00, -1.00, 887.8, 303.4)">e</text><path d="M 6.6 6.0 L 7.2 6.0 C 32.4 23.9 88.4 33.4 175.5 34.1 " fill="none" stroke="#A51601" stroke-width="2.00" transform="matrix(1.00, 0.00, 0.00, -1.00, 534.4, 345.0)"></path><path d="M 544.9 342.0 L 534.5 344.6 L 538.6 334.7 Z M 544.9 342.0 " fill="#A51601"></path><text xml:space="preserve" font-family="GillSans-Light,Gill Sans" font-size="30.0" fill="#A51601" transform="matrix(1.00, 0.00, -0.00, -1.00, 637.3, 428.3)">c</text><text xml:space="preserve" font-family="GillSans-Light,Gill Sans" font-size="30.0" fill="#A51601" transform="matrix(1.00, 0.00, -0.00, -1.00, 649.8, 428.3)">o</text><text xml:space="preserve" font-family="GillSans-Light,Gill Sans" font-size="30.0" fill="#A51601" transform="matrix(1.00, 0.00, -0.00, -1.00, 666.1, 428.3)">n</text><text xml:space="preserve" font-family="GillSans-Light,Gill Sans" font-size="30.0" fill="#A51601" transform="matrix(1.00, 0.00, -0.00, -1.00, 680.8, 428.3)">s</text><text xml:space="preserve" font-family="GillSans-Light,Gill Sans" font-size="30.0" fill="#A51601" transform="matrix(1.00, 0.00, -0.00, -1.00, 691.4, 428.3)">t</text><text xml:space="preserve" font-family="GillSans-Light,Gill Sans" font-size="30.0" fill="#A51601" transform="matrix(1.00, 0.00, -0.00, -1.00, 700.5, 428.3)">r</text><text xml:space="preserve" font-family="GillSans-Light,Gill Sans" font-size="30.0" fill="#A51601" transform="matrix(1.00, 0.00, -0.00, -1.00, 711.7, 428.3)">u</text><text xml:space="preserve" font-family="GillSans-Light,Gill Sans" font-size="30.0" fill="#A51601" transform="matrix(1.00, 0.00, -0.00, -1.00, 726.4, 428.3)">c</text><text xml:space="preserve" font-family="GillSans-Light,Gill Sans" font-size="30.0" fill="#A51601" transform="matrix(1.00, 0.00, -0.00, -1.00, 738.9, 428.3)">t</text><text xml:space="preserve" font-family="GillSans-Light,Gill Sans" font-size="30.0" fill="#A51601" transform="matrix(1.00, 0.00, -0.00, -1.00, 747.9, 428.3)">o</text><text xml:space="preserve" font-family="GillSans-Light,Gill Sans" font-size="30.0" fill="#A51601" transform="matrix(1.00, 0.00, -0.00, -1.00, 764.2, 428.3)">r</text><text xml:space="preserve" font-family="GillSans-Light,Gill Sans" font-size="30.0" fill="#A51601" transform="matrix(1.00, 0.00, -0.00, -1.00, 774.2, 428.3)"> </text><text xml:space="preserve" font-family="GillSans-Light,Gill Sans" font-size="30.0" fill="#A51601" transform="matrix(1.00, 0.00, -0.00, -1.00, 782.5, 428.3)">f</text><text xml:space="preserve" font-family="GillSans-Light,Gill Sans" font-size="30.0" fill="#A51601" transform="matrix(1.00, 0.00, -0.00, -1.00, 789.7, 428.3)">u</text><text xml:space="preserve" font-family="GillSans-Light,Gill Sans" font-size="30.0" fill="#A51601" transform="matrix(1.00, 0.00, -0.00, -1.00, 804.4, 428.3)">n</text><text xml:space="preserve" font-family="GillSans-Light,Gill Sans" font-size="30.0" fill="#A51601" transform="matrix(1.00, 0.00, -0.00, -1.00, 819.2, 428.3)">c</text><text xml:space="preserve" font-family="GillSans-Light,Gill Sans" font-size="30.0" fill="#A51601" transform="matrix(1.00, 0.00, -0.00, -1.00, 831.7, 428.3)">t</text><text xml:space="preserve" font-family="GillSans-Light,Gill Sans" font-size="30.0" fill="#A51601" transform="matrix(1.00, 0.00, -0.00, -1.00, 840.7, 428.3)">i</text><text xml:space="preserve" font-family="GillSans-Light,Gill Sans" font-size="30.0" fill="#A51601" transform="matrix(1.00, 0.00, -0.00, -1.00, 846.4, 428.3)">o</text><text xml:space="preserve" font-family="GillSans-Light,Gill Sans" font-size="30.0" fill="#A51601" transform="matrix(1.00, 0.00, -0.00, -1.00, 862.6, 428.3)">n</text><path d="M 14.5 50.9 L 14.5 50.9 C -8.2 26.7 -3.9 10.0 26.8 0.0 " fill="none" stroke="#A51601" stroke-width="2.00" transform="matrix(1.00, 0.00, 0.00, -1.00, 606.1, 427.3)"></path><path d="M 616.5 373.6 L 626.7 370.3 L 623.2 380.5 Z M 616.5 373.6 " fill="#A51601"></path></g></svg>