<?xml version="1.0" encoding="UTF-8" standalone="no"?><svg xmlns="http://www.w3.org/2000/svg" xmlns:xlink="http://www.w3.org/1999/xlink" clip-rule="evenodd" stroke-miterlimit="10" viewBox="0 0 1024 768"><desc>SVG generated by Keynote</desc><defs></defs><g transform="matrix(1.00, 0.00, -0.00, -1.00, 0.0, 768.0)"><g><clipPath id="clip0x600002aa7680"><path d="M 0.0 768.0 L 1024.0 768.0 L 1024.0 0.0 L 0.0 0.0 Z M 0.0 768.0 "></path></clipPath><g clip-path="url(#clip0x600002aa7680)"><image xlink:href="../../BE03AB4A-F5E0-4685-80C7-20DCBC62631F/assets/574DCE55A4CF432400CBDDDE1DFDFC9B.jpeg" width="2048.00" height="1536.00" transform="matrix(0.50, 0.00, -0.00, -0.50, 0.0, 768.0)"></image></g></g><text xml:space="preserve" font-family="GillSans-Light,Gill Sans" font-size="72.0" fill="#525252" transform="matrix(1.00, 0.00, -0.00, -1.00, 244.7, 628.2)">B</text><text xml:space="preserve" font-family="GillSans-Light,Gill Sans" font-size="72.0" fill="#525252" transform="matrix(1.00, 0.00, -0.00, -1.00, 282.9, 628.2)">O</text><text xml:space="preserve" font-family="GillSans-Light,Gill Sans" font-size="72.0" fill="#525252" transform="matrix(1.00, 0.00, -0.00, -1.00, 342.2, 628.2)">O</text><text xml:space="preserve" font-family="GillSans-Light,Gill Sans" font-size="72.0" fill="#525252" transform="matrix(1.00, 0.00, -0.00, -1.00, 396.0, 628.2)">T</text><text xml:space="preserve" font-family="GillSans-Light,Gill Sans" font-size="72.0" fill="#525252" transform="matrix(1.00, 0.00, -0.00, -1.00, 437.3, 628.2)">S</text><text xml:space="preserve" font-family="GillSans-Light,Gill Sans" font-size="72.0" fill="#525252" transform="matrix(1.00, 0.00, -0.00, -1.00, 471.1, 628.2)">T</text><text xml:space="preserve" font-family="GillSans-Light,Gill Sans" font-size="72.0" fill="#525252" transform="matrix(1.00, 0.00, -0.00, -1.00, 512.4, 628.2)">R</text><text xml:space="preserve" font-family="GillSans-Light,Gill Sans" font-size="72.0" fill="#525252" transform="matrix(1.00, 0.00, -0.00, -1.00, 553.7, 628.2)">A</text><text xml:space="preserve" font-family="GillSans-Light,Gill Sans" font-size="72.0" fill="#525252" transform="matrix(1.00, 0.00, -0.00, -1.00, 601.7, 628.2)">P</text><text xml:space="preserve" font-family="GillSans-Light,Gill Sans" font-size="72.0" fill="#525252" transform="matrix(1.00, 0.00, -0.00, -1.00, 638.4, 628.2)">P</text><text xml:space="preserve" font-family="GillSans-Light,Gill Sans" font-size="72.0" fill="#525252" transform="matrix(1.00, 0.00, -0.00, -1.00, 675.1, 628.2)">I</text><text xml:space="preserve" font-family="GillSans-Light,Gill Sans" font-size="72.0" fill="#525252" transform="matrix(1.00, 0.00, -0.00, -1.00, 690.1, 628.2)">N</text><text xml:space="preserve" font-family="GillSans-Light,Gill Sans" font-size="72.0" fill="#525252" transform="matrix(1.00, 0.00, -0.00, -1.00, 745.6, 628.2)">G</text><text xml:space="preserve" font-family="GillSans-Light,Gill Sans" font-size="37.7" fill="#525252" transform="matrix(1.00, 0.00, -0.00, -1.00, 32.0, 348.5)">•</text><text xml:space="preserve" font-family="GillSans-Light,Gill Sans" font-size="46.0" fill="#525252" transform="matrix(1.00, 0.00, -0.00, -1.00, 73.0, 346.0)">I</text><text xml:space="preserve" font-family="GillSans-Light,Gill Sans" font-size="46.0" fill="#525252" transform="matrix(1.00, 0.00, -0.00, -1.00, 82.6, 346.0)">n</text><text xml:space="preserve" font-family="GillSans-Light,Gill Sans" font-size="46.0" fill="#525252" transform="matrix(1.00, 0.00, -0.00, -1.00, 105.1, 346.0)">c</text><text xml:space="preserve" font-family="GillSans-Light,Gill Sans" font-size="46.0" fill="#525252" transform="matrix(1.00, 0.00, -0.00, -1.00, 124.3, 346.0)">l</text><text xml:space="preserve" font-family="GillSans-Light,Gill Sans" font-size="46.0" fill="#525252" transform="matrix(1.00, 0.00, -0.00, -1.00, 133.0, 346.0)">u</text><text xml:space="preserve" font-family="GillSans-Light,Gill Sans" font-size="46.0" fill="#525252" transform="matrix(1.00, 0.00, -0.00, -1.00, 155.5, 346.0)">d</text><text xml:space="preserve" font-family="GillSans-Light,Gill Sans" font-size="46.0" fill="#525252" transform="matrix(1.00, 0.00, -0.00, -1.00, 179.0, 346.0)">e</text><text xml:space="preserve" font-family="GillSans-Light,Gill Sans" font-size="46.0" fill="#525252" transform="matrix(1.00, 0.00, -0.00, -1.00, 201.0, 346.0)"> </text><text xml:space="preserve" font-family="GillSans-Light,Gill Sans" font-size="46.0" fill="#525252" transform="matrix(1.00, 0.00, -0.00, -1.00, 211.0, 346.0)">A</text><text xml:space="preserve" font-family="GillSans-Light,Gill Sans" font-size="46.0" fill="#525252" transform="matrix(1.00, 0.00, -0.00, -1.00, 241.7, 346.0)">n</text><text xml:space="preserve" font-family="GillSans-Light,Gill Sans" font-size="46.0" fill="#525252" transform="matrix(1.00, 0.00, -0.00, -1.00, 264.2, 346.0)">g</text><text xml:space="preserve" font-family="GillSans-Light,Gill Sans" font-size="46.0" fill="#525252" transform="matrix(1.00, 0.00, -0.00, -1.00, 283.9, 346.0)">u</text><text xml:space="preserve" font-family="GillSans-Light,Gill Sans" font-size="46.0" fill="#525252" transform="matrix(1.00, 0.00, -0.00, -1.00, 306.4, 346.0)">l</text><text xml:space="preserve" font-family="GillSans-Light,Gill Sans" font-size="46.0" fill="#525252" transform="matrix(1.00, 0.00, -0.00, -1.00, 315.1, 346.0)">a</text><text xml:space="preserve" font-family="GillSans-Light,Gill Sans" font-size="46.0" fill="#525252" transform="matrix(1.00, 0.00, -0.00, -1.00, 334.7, 346.0)">r</text><text xml:space="preserve" font-family="GillSans-Light,Gill Sans" font-size="46.0" fill="#525252" transform="matrix(1.00, 0.00, -0.00, -1.00, 350.0, 346.0)">J</text><text xml:space="preserve" font-family="GillSans-Light,Gill Sans" font-size="46.0" fill="#525252" transform="matrix(1.00, 0.00, -0.00, -1.00, 359.6, 346.0)">S</text><text xml:space="preserve" font-family="GillSans-Light,Gill Sans" font-size="37.7" fill="#525252" transform="matrix(1.00, 0.00, -0.00, -1.00, 32.0, 238.7)">•</text><text xml:space="preserve" font-family="GillSans-Light,Gill Sans" font-size="46.0" fill="#525252" transform="matrix(1.00, 0.00, -0.00, -1.00, 73.0, 237.6)">A</text><text xml:space="preserve" font-family="GillSans-Light,Gill Sans" font-size="46.0" fill="#525252" transform="matrix(1.00, 0.00, -0.00, -1.00, 103.7, 237.6)">d</text><text xml:space="preserve" font-family="GillSans-Light,Gill Sans" font-size="46.0" fill="#525252" transform="matrix(1.00, 0.00, -0.00, -1.00, 127.1, 237.6)">d</text><text xml:space="preserve" font-family="GillSans-Light,Gill Sans" font-size="46.0" fill="#525252" transform="matrix(1.00, 0.00, -0.00, -1.00, 150.6, 237.6)"> </text><text xml:space="preserve" font-family="GillSans-Light,Gill Sans" font-size="46.0" fill="#525252" transform="matrix(1.00, 0.00, -0.00, -1.00, 163.3, 237.6)">t</text><text xml:space="preserve" font-family="GillSans-Light,Gill Sans" font-size="46.0" fill="#525252" transform="matrix(1.00, 0.00, -0.00, -1.00, 177.2, 237.6)">h</text><text xml:space="preserve" font-family="GillSans-Light,Gill Sans" font-size="46.0" fill="#525252" transform="matrix(1.00, 0.00, -0.00, -1.00, 199.8, 237.6)">e</text><text xml:space="preserve" font-family="GillSans-Light,Gill Sans" font-size="46.0" fill="#525252" transform="matrix(1.00, 0.00, -0.00, -1.00, 221.8, 237.6)"> </text><text xml:space="preserve" font-family="CourierNewPSMT,Courier New" font-size="46.0" fill="#A51601" transform="matrix(1.00, 0.00, -0.00, -1.00, 234.6, 237.6)">n</text><text xml:space="preserve" font-family="CourierNewPSMT,Courier New" font-size="46.0" fill="#A51601" transform="matrix(1.00, 0.00, -0.00, -1.00, 262.2, 237.6)">g</text><text xml:space="preserve" font-family="CourierNewPSMT,Courier New" font-size="46.0" fill="#A51601" transform="matrix(1.00, 0.00, -0.00, -1.00, 289.8, 237.6)">-</text><text xml:space="preserve" font-family="CourierNewPSMT,Courier New" font-size="46.0" fill="#A51601" transform="matrix(1.00, 0.00, -0.00, -1.00, 317.4, 237.6)">a</text><text xml:space="preserve" font-family="CourierNewPSMT,Courier New" font-size="46.0" fill="#A51601" transform="matrix(1.00, 0.00, -0.00, -1.00, 345.0, 237.6)">p</text><text xml:space="preserve" font-family="CourierNewPSMT,Courier New" font-size="46.0" fill="#A51601" transform="matrix(1.00, 0.00, -0.00, -1.00, 372.7, 237.6)">p</text><text xml:space="preserve" font-family="GillSans-Light,Gill Sans" font-size="46.0" fill="#525252" transform="matrix(1.00, 0.00, -0.00, -1.00, 400.2, 237.6)"> </text><text xml:space="preserve" font-family="GillSans-LightItalic,Gill Sans" font-style="italic" font-size="46.0" fill="#525252" transform="matrix(1.00, 0.00, -0.00, -1.00, 413.0, 237.6)">d</text><text xml:space="preserve" font-family="GillSans-LightItalic,Gill Sans" font-style="italic" font-size="46.0" fill="#525252" transform="matrix(1.00, 0.00, -0.00, -1.00, 434.6, 237.6)">i</text><text xml:space="preserve" font-family="GillSans-LightItalic,Gill Sans" font-style="italic" font-size="46.0" fill="#525252" transform="matrix(1.00, 0.00, -0.00, -1.00, 442.7, 237.6)">r</text><text xml:space="preserve" font-family="GillSans-LightItalic,Gill Sans" font-style="italic" font-size="46.0" fill="#525252" transform="matrix(1.00, 0.00, -0.00, -1.00, 455.2, 237.6)">e</text><text xml:space="preserve" font-family="GillSans-LightItalic,Gill Sans" font-style="italic" font-size="46.0" fill="#525252" transform="matrix(1.00, 0.00, -0.00, -1.00, 475.8, 237.6)">c</text><text xml:space="preserve" font-family="GillSans-LightItalic,Gill Sans" font-style="italic" font-size="46.0" fill="#525252" transform="matrix(1.00, 0.00, -0.00, -1.00, 493.5, 237.6)">t</text><text xml:space="preserve" font-family="GillSans-LightItalic,Gill Sans" font-style="italic" font-size="46.0" fill="#525252" transform="matrix(1.00, 0.00, -0.00, -1.00, 506.4, 237.6)">i</text><text xml:space="preserve" font-family="GillSans-LightItalic,Gill Sans" font-style="italic" font-size="46.0" fill="#525252" transform="matrix(1.00, 0.00, -0.00, -1.00, 514.5, 237.6)">v</text><text xml:space="preserve" font-family="GillSans-LightItalic,Gill Sans" font-style="italic" font-size="46.0" fill="#525252" transform="matrix(1.00, 0.00, -0.00, -1.00, 531.4, 237.6)">e</text><text xml:space="preserve" font-family="GillSans-Light,Gill Sans" font-size="46.0" fill="#525252" transform="matrix(1.00, 0.00, -0.00, -1.00, 552.0, 237.6)"> </text><text xml:space="preserve" font-family="GillSans-Light,Gill Sans" font-size="46.0" fill="#525252" transform="matrix(1.00, 0.00, -0.00, -1.00, 564.8, 237.6)">t</text><text xml:space="preserve" font-family="GillSans-Light,Gill Sans" font-size="46.0" fill="#525252" transform="matrix(1.00, 0.00, -0.00, -1.00, 578.6, 237.6)">o</text><text xml:space="preserve" font-family="GillSans-Light,Gill Sans" font-size="46.0" fill="#525252" transform="matrix(1.00, 0.00, -0.00, -1.00, 603.6, 237.6)"> </text><text xml:space="preserve" font-family="GillSans-Light,Gill Sans" font-size="46.0" fill="#525252" transform="matrix(1.00, 0.00, -0.00, -1.00, 616.3, 237.6)">t</text><text xml:space="preserve" font-family="GillSans-Light,Gill Sans" font-size="46.0" fill="#525252" transform="matrix(1.00, 0.00, -0.00, -1.00, 630.2, 237.6)">h</text><text xml:space="preserve" font-family="GillSans-Light,Gill Sans" font-size="46.0" fill="#525252" transform="matrix(1.00, 0.00, -0.00, -1.00, 652.8, 237.6)">e</text><text xml:space="preserve" font-family="GillSans-Light,Gill Sans" font-size="46.0" fill="#525252" transform="matrix(1.00, 0.00, -0.00, -1.00, 674.8, 237.6)"> </text><text xml:space="preserve" font-family="CourierNewPSMT,Courier New" font-size="46.0" fill="#A51601" transform="matrix(1.00, 0.00, -0.00, -1.00, 687.6, 237.6)">h</text><text xml:space="preserve" font-family="CourierNewPSMT,Courier New" font-size="46.0" fill="#A51601" transform="matrix(1.00, 0.00, -0.00, -1.00, 715.2, 237.6)">t</text><text xml:space="preserve" font-family="CourierNewPSMT,Courier New" font-size="46.0" fill="#A51601" transform="matrix(1.00, 0.00, -0.00, -1.00, 742.8, 237.6)">m</text><text xml:space="preserve" font-family="CourierNewPSMT,Courier New" font-size="46.0" fill="#A51601" transform="matrix(1.00, 0.00, -0.00, -1.00, 770.4, 237.6)">l</text><text xml:space="preserve" font-family="GillSans-Light,Gill Sans" font-size="46.0" fill="#525252" transform="matrix(1.00, 0.00, -0.00, -1.00, 798.0, 237.6)"> </text><text xml:space="preserve" font-family="GillSans-Light,Gill Sans" font-size="46.0" fill="#525252" transform="matrix(1.00, 0.00, -0.00, -1.00, 810.8, 237.6)">e</text><text xml:space="preserve" font-family="GillSans-Light,Gill Sans" font-size="46.0" fill="#525252" transform="matrix(1.00, 0.00, -0.00, -1.00, 832.8, 237.6)">l</text><text xml:space="preserve" font-family="GillSans-Light,Gill Sans" font-size="46.0" fill="#525252" transform="matrix(1.00, 0.00, -0.00, -1.00, 841.5, 237.6)">e</text><text xml:space="preserve" font-family="GillSans-Light,Gill Sans" font-size="46.0" fill="#525252" transform="matrix(1.00, 0.00, -0.00, -1.00, 863.5, 237.6)">m</text><text xml:space="preserve" font-family="GillSans-Light,Gill Sans" font-size="46.0" fill="#525252" transform="matrix(1.00, 0.00, -0.00, -1.00, 899.0, 237.6)">e</text><text xml:space="preserve" font-family="GillSans-Light,Gill Sans" font-size="46.0" fill="#525252" transform="matrix(1.00, 0.00, -0.00, -1.00, 921.0, 237.6)">n</text><text xml:space="preserve" font-family="GillSans-Light,Gill Sans" font-size="46.0" fill="#525252" transform="matrix(1.00, 0.00, -0.00, -1.00, 943.6, 237.6)">t</text></g></svg>