<?xml version="1.0" encoding="UTF-8" standalone="no"?><svg xmlns="http://www.w3.org/2000/svg" xmlns:xlink="http://www.w3.org/1999/xlink" clip-rule="evenodd" stroke-miterlimit="10" viewBox="0 0 621 271"><desc>SVG generated by Keynote</desc><defs></defs><g transform="matrix(1.00, 0.00, -0.00, -1.00, 0.0, 271.0)"><path d="M 1.6 272.5 L 164.2 272.5 L 164.2 251.5 L 1.6 251.5 Z M 1.6 272.5 " fill="#000000" fill-opacity="0.00"></path><path d="M 1.6 251.5 L 55.8 251.5 L 55.8 230.5 L 1.6 230.5 Z M 1.6 251.5 " fill="#000000" fill-opacity="0.00"></path><path d="M 55.8 251.5 L 131.7 251.5 L 131.7 230.5 L 55.8 230.5 Z M 55.8 251.5 " fill="#FFCD56"></path><path d="M 131.7 251.5 L 142.5 251.5 L 142.5 230.5 L 131.7 230.5 Z M 131.7 251.5 " fill="#000000" fill-opacity="0.00"></path><path d="M 1.6 230.5 L 66.7 230.5 L 66.7 209.5 L 1.6 209.5 Z M 1.6 230.5 " fill="#000000" fill-opacity="0.00"></path><path d="M 1.6 209.5 L 272.6 209.5 L 272.6 188.5 L 1.6 188.5 Z M 1.6 209.5 " fill="#000000" fill-opacity="0.00"></path><path d="M 1.6 188.5 L 619.4 188.5 L 619.4 167.5 L 1.6 167.5 Z M 1.6 188.5 " fill="#000000" fill-opacity="0.00"></path><path d="M 1.6 167.5 L 23.3 167.5 L 23.3 146.5 L 1.6 146.5 Z M 1.6 167.5 " fill="#000000" fill-opacity="0.00"></path><path d="M 23.3 167.5 L 500.1 167.5 L 500.1 146.5 L 23.3 146.5 Z M 23.3 167.5 " fill="#FFCD56"></path><path d="M 1.6 146.5 L 77.5 146.5 L 77.5 125.5 L 1.6 125.5 Z M 1.6 146.5 " fill="#000000" fill-opacity="0.00"></path><path d="M 1.6 125.5 L 66.7 125.5 L 66.7 104.5 L 1.6 104.5 Z M 1.6 125.5 " fill="#000000" fill-opacity="0.00"></path><path d="M 1.6 104.5 L 337.6 104.5 L 337.6 83.5 L 1.6 83.5 Z M 1.6 104.5 " fill="#000000" fill-opacity="0.00"></path><path d="M 1.6 83.5 L 446.0 83.5 L 446.0 62.5 L 1.6 62.5 Z M 1.6 83.5 " fill="#000000" fill-opacity="0.00"></path><path d="M 1.6 62.5 L 88.3 62.5 L 88.3 41.5 L 1.6 41.5 Z M 1.6 62.5 " fill="#000000" fill-opacity="0.00"></path><path d="M 1.6 41.5 L 77.5 41.5 L 77.5 20.5 L 1.6 20.5 Z M 1.6 41.5 " fill="#000000" fill-opacity="0.00"></path><path d="M 1.6 20.5 L 77.5 20.5 L 77.5 -0.5 L 1.6 -0.5 Z M 1.6 20.5 " fill="#000000" fill-opacity="0.00"></path><text xml:space="preserve" font-family="Menlo-Regular,Menlo" font-size="18.0" fill="#000000" transform="matrix(1.00, 0.00, -0.00, -1.00, 1.6, 255.7)">&lt;</text><text xml:space="preserve" font-family="Menlo-Regular,Menlo" font-size="18.0" fill="#000000" transform="matrix(1.00, 0.00, -0.00, -1.00, 12.5, 255.7)">!</text><text xml:space="preserve" font-family="Menlo-Regular,Menlo" font-size="18.0" fill="#000000" transform="matrix(1.00, 0.00, -0.00, -1.00, 23.3, 255.7)">D</text><text xml:space="preserve" font-family="Menlo-Regular,Menlo" font-size="18.0" fill="#000000" transform="matrix(1.00, 0.00, -0.00, -1.00, 34.2, 255.7)">O</text><text xml:space="preserve" font-family="Menlo-Regular,Menlo" font-size="18.0" fill="#000000" transform="matrix(1.00, 0.00, -0.00, -1.00, 45.0, 255.7)">C</text><text xml:space="preserve" font-family="Menlo-Regular,Menlo" font-size="18.0" fill="#000000" transform="matrix(1.00, 0.00, -0.00, -1.00, 55.8, 255.7)">T</text><text xml:space="preserve" font-family="Menlo-Regular,Menlo" font-size="18.0" fill="#000000" transform="matrix(1.00, 0.00, -0.00, -1.00, 66.7, 255.7)">Y</text><text xml:space="preserve" font-family="Menlo-Regular,Menlo" font-size="18.0" fill="#000000" transform="matrix(1.00, 0.00, -0.00, -1.00, 77.5, 255.7)">P</text><text xml:space="preserve" font-family="Menlo-Regular,Menlo" font-size="18.0" fill="#000000" transform="matrix(1.00, 0.00, -0.00, -1.00, 88.4, 255.7)">E</text><text xml:space="preserve" font-family="Menlo-Regular,Menlo" font-size="18.0" fill="#000000" transform="matrix(1.00, 0.00, -0.00, -1.00, 99.2, 255.7)"> </text><text xml:space="preserve" font-family="Menlo-Regular,Menlo" font-size="18.0" fill="#0432FF" transform="matrix(1.00, 0.00, -0.00, -1.00, 110.0, 255.7)">h</text><text xml:space="preserve" font-family="Menlo-Regular,Menlo" font-size="18.0" fill="#0432FF" transform="matrix(1.00, 0.00, -0.00, -1.00, 120.9, 255.7)">t</text><text xml:space="preserve" font-family="Menlo-Regular,Menlo" font-size="18.0" fill="#0432FF" transform="matrix(1.00, 0.00, -0.00, -1.00, 131.7, 255.7)">m</text><text xml:space="preserve" font-family="Menlo-Regular,Menlo" font-size="18.0" fill="#0432FF" transform="matrix(1.00, 0.00, -0.00, -1.00, 142.5, 255.7)">l</text><text xml:space="preserve" font-family="Menlo-Regular,Menlo" font-size="18.0" fill="#000000" transform="matrix(1.00, 0.00, -0.00, -1.00, 153.4, 255.7)">&gt;</text><text xml:space="preserve" font-family="Monaco,Monaco" font-size="18.0" fill="#000000" transform="matrix(1.00, 0.00, -0.00, -1.00, 164.2, 255.7)"> </text><text xml:space="preserve" font-family="Menlo-Regular,Menlo" font-size="18.0" fill="#000000" transform="matrix(1.00, 0.00, -0.00, -1.00, 1.6, 234.7)">&lt;</text><text xml:space="preserve" font-family="Menlo-Regular,Menlo" font-size="18.0" fill="#011892" transform="matrix(1.00, 0.00, -0.00, -1.00, 12.5, 234.7)">h</text><text xml:space="preserve" font-family="Menlo-Regular,Menlo" font-size="18.0" fill="#011892" transform="matrix(1.00, 0.00, -0.00, -1.00, 23.3, 234.7)">t</text><text xml:space="preserve" font-family="Menlo-Regular,Menlo" font-size="18.0" fill="#011892" transform="matrix(1.00, 0.00, -0.00, -1.00, 34.2, 234.7)">m</text><text xml:space="preserve" font-family="Menlo-Regular,Menlo" font-size="18.0" fill="#011892" transform="matrix(1.00, 0.00, -0.00, -1.00, 45.0, 234.7)">l</text><text xml:space="preserve" font-family="Menlo-Regular,Menlo" font-size="18.0" fill="#011892" transform="matrix(1.00, 0.00, -0.00, -1.00, 55.8, 234.7)"> </text><text xml:space="preserve" font-family="Menlo-Regular,Menlo" font-size="18.0" fill="#0432FF" transform="matrix(1.00, 0.00, -0.00, -1.00, 66.7, 234.7)">n</text><text xml:space="preserve" font-family="Menlo-Regular,Menlo" font-size="18.0" fill="#0432FF" transform="matrix(1.00, 0.00, -0.00, -1.00, 77.5, 234.7)">g</text><text xml:space="preserve" font-family="Menlo-Regular,Menlo" font-size="18.0" fill="#0432FF" transform="matrix(1.00, 0.00, -0.00, -1.00, 88.3, 234.7)">-</text><text xml:space="preserve" font-family="Menlo-Regular,Menlo" font-size="18.0" fill="#0432FF" transform="matrix(1.00, 0.00, -0.00, -1.00, 99.2, 234.7)">a</text><text xml:space="preserve" font-family="Menlo-Regular,Menlo" font-size="18.0" fill="#0432FF" transform="matrix(1.00, 0.00, -0.00, -1.00, 110.0, 234.7)">p</text><text xml:space="preserve" font-family="Menlo-Regular,Menlo" font-size="18.0" fill="#0432FF" transform="matrix(1.00, 0.00, -0.00, -1.00, 120.9, 234.7)">p</text><text xml:space="preserve" font-family="Menlo-Regular,Menlo" font-size="18.0" fill="#000000" transform="matrix(1.00, 0.00, -0.00, -1.00, 131.7, 234.7)">&gt;</text><text xml:space="preserve" font-family="Monaco,Monaco" font-size="18.0" fill="#000000" transform="matrix(1.00, 0.00, -0.00, -1.00, 142.5, 234.7)"> </text><text xml:space="preserve" font-family="Menlo-Regular,Menlo" font-size="18.0" fill="#000000" transform="matrix(1.00, 0.00, -0.00, -1.00, 1.6, 213.7)">&lt;</text><text xml:space="preserve" font-family="Menlo-Regular,Menlo" font-size="18.0" fill="#011892" transform="matrix(1.00, 0.00, -0.00, -1.00, 12.5, 213.7)">h</text><text xml:space="preserve" font-family="Menlo-Regular,Menlo" font-size="18.0" fill="#011892" transform="matrix(1.00, 0.00, -0.00, -1.00, 23.3, 213.7)">e</text><text xml:space="preserve" font-family="Menlo-Regular,Menlo" font-size="18.0" fill="#011892" transform="matrix(1.00, 0.00, -0.00, -1.00, 34.2, 213.7)">a</text><text xml:space="preserve" font-family="Menlo-Regular,Menlo" font-size="18.0" fill="#011892" transform="matrix(1.00, 0.00, -0.00, -1.00, 45.0, 213.7)">d</text><text xml:space="preserve" font-family="Menlo-Regular,Menlo" font-size="18.0" fill="#000000" transform="matrix(1.00, 0.00, -0.00, -1.00, 55.8, 213.7)">&gt;</text><text xml:space="preserve" font-family="Monaco,Monaco" font-size="18.0" fill="#000000" transform="matrix(1.00, 0.00, -0.00, -1.00, 66.7, 213.7)"> </text><text xml:space="preserve" font-family="Menlo-Regular,Menlo" font-size="18.0" fill="#000000" transform="matrix(1.00, 0.00, -0.00, -1.00, 1.6, 192.7)"> </text><text xml:space="preserve" font-family="Menlo-Regular,Menlo" font-size="18.0" fill="#000000" transform="matrix(1.00, 0.00, -0.00, -1.00, 12.5, 192.7)"> </text><text xml:space="preserve" font-family="Menlo-Regular,Menlo" font-size="18.0" fill="#000000" transform="matrix(1.00, 0.00, -0.00, -1.00, 23.3, 192.7)">&lt;</text><text xml:space="preserve" font-family="Menlo-Regular,Menlo" font-size="18.0" fill="#011892" transform="matrix(1.00, 0.00, -0.00, -1.00, 34.2, 192.7)">t</text><text xml:space="preserve" font-family="Menlo-Regular,Menlo" font-size="18.0" fill="#011892" transform="matrix(1.00, 0.00, -0.00, -1.00, 45.0, 192.7)">i</text><text xml:space="preserve" font-family="Menlo-Regular,Menlo" font-size="18.0" fill="#011892" transform="matrix(1.00, 0.00, -0.00, -1.00, 55.8, 192.7)">t</text><text xml:space="preserve" font-family="Menlo-Regular,Menlo" font-size="18.0" fill="#011892" transform="matrix(1.00, 0.00, -0.00, -1.00, 66.7, 192.7)">l</text><text xml:space="preserve" font-family="Menlo-Regular,Menlo" font-size="18.0" fill="#011892" transform="matrix(1.00, 0.00, -0.00, -1.00, 77.5, 192.7)">e</text><text xml:space="preserve" font-family="Menlo-Regular,Menlo" font-size="18.0" fill="#000000" transform="matrix(1.00, 0.00, -0.00, -1.00, 88.3, 192.7)">&gt;</text><text xml:space="preserve" font-family="Menlo-Regular,Menlo" font-size="18.0" fill="#000000" transform="matrix(1.00, 0.00, -0.00, -1.00, 99.2, 192.7)">n</text><text xml:space="preserve" font-family="Menlo-Regular,Menlo" font-size="18.0" fill="#000000" transform="matrix(1.00, 0.00, -0.00, -1.00, 110.0, 192.7)">g</text><text xml:space="preserve" font-family="Menlo-Regular,Menlo" font-size="18.0" fill="#000000" transform="matrix(1.00, 0.00, -0.00, -1.00, 120.9, 192.7)">-</text><text xml:space="preserve" font-family="Menlo-Regular,Menlo" font-size="18.0" fill="#000000" transform="matrix(1.00, 0.00, -0.00, -1.00, 131.7, 192.7)">s</text><text xml:space="preserve" font-family="Menlo-Regular,Menlo" font-size="18.0" fill="#000000" transform="matrix(1.00, 0.00, -0.00, -1.00, 142.5, 192.7)">t</text><text xml:space="preserve" font-family="Menlo-Regular,Menlo" font-size="18.0" fill="#000000" transform="matrix(1.00, 0.00, -0.00, -1.00, 153.4, 192.7)">a</text><text xml:space="preserve" font-family="Menlo-Regular,Menlo" font-size="18.0" fill="#000000" transform="matrix(1.00, 0.00, -0.00, -1.00, 164.2, 192.7)">r</text><text xml:space="preserve" font-family="Menlo-Regular,Menlo" font-size="18.0" fill="#000000" transform="matrix(1.00, 0.00, -0.00, -1.00, 175.1, 192.7)">t</text><text xml:space="preserve" font-family="Menlo-Regular,Menlo" font-size="18.0" fill="#000000" transform="matrix(1.00, 0.00, -0.00, -1.00, 185.9, 192.7)">&lt;</text><text xml:space="preserve" font-family="Menlo-Regular,Menlo" font-size="18.0" fill="#000000" transform="matrix(1.00, 0.00, -0.00, -1.00, 196.7, 192.7)">/</text><text xml:space="preserve" font-family="Menlo-Regular,Menlo" font-size="18.0" fill="#011892" transform="matrix(1.00, 0.00, -0.00, -1.00, 207.5, 192.7)">t</text><text xml:space="preserve" font-family="Menlo-Regular,Menlo" font-size="18.0" fill="#011892" transform="matrix(1.00, 0.00, -0.00, -1.00, 218.4, 192.7)">i</text><text xml:space="preserve" font-family="Menlo-Regular,Menlo" font-size="18.0" fill="#011892" transform="matrix(1.00, 0.00, -0.00, -1.00, 229.2, 192.7)">t</text><text xml:space="preserve" font-family="Menlo-Regular,Menlo" font-size="18.0" fill="#011892" transform="matrix(1.00, 0.00, -0.00, -1.00, 240.1, 192.7)">l</text><text xml:space="preserve" font-family="Menlo-Regular,Menlo" font-size="18.0" fill="#011892" transform="matrix(1.00, 0.00, -0.00, -1.00, 250.9, 192.7)">e</text><text xml:space="preserve" font-family="Menlo-Regular,Menlo" font-size="18.0" fill="#000000" transform="matrix(1.00, 0.00, -0.00, -1.00, 261.7, 192.7)">&gt;</text><text xml:space="preserve" font-family="Monaco,Monaco" font-size="18.0" fill="#000000" transform="matrix(1.00, 0.00, -0.00, -1.00, 272.6, 192.7)"> </text><text xml:space="preserve" font-family="Menlo-Regular,Menlo" font-size="18.0" fill="#000000" transform="matrix(1.00, 0.00, -0.00, -1.00, 1.6, 171.7)"> </text><text xml:space="preserve" font-family="Menlo-Regular,Menlo" font-size="18.0" fill="#000000" transform="matrix(1.00, 0.00, -0.00, -1.00, 12.5, 171.7)"> </text><text xml:space="preserve" font-family="Menlo-Regular,Menlo" font-size="18.0" fill="#000000" transform="matrix(1.00, 0.00, -0.00, -1.00, 23.3, 171.7)">&lt;</text><text xml:space="preserve" font-family="Menlo-Regular,Menlo" font-size="18.0" fill="#011892" transform="matrix(1.00, 0.00, -0.00, -1.00, 34.2, 171.7)">l</text><text xml:space="preserve" font-family="Menlo-Regular,Menlo" font-size="18.0" fill="#011892" transform="matrix(1.00, 0.00, -0.00, -1.00, 45.0, 171.7)">i</text><text xml:space="preserve" font-family="Menlo-Regular,Menlo" font-size="18.0" fill="#011892" transform="matrix(1.00, 0.00, -0.00, -1.00, 55.8, 171.7)">n</text><text xml:space="preserve" font-family="Menlo-Regular,Menlo" font-size="18.0" fill="#011892" transform="matrix(1.00, 0.00, -0.00, -1.00, 66.7, 171.7)">k</text><text xml:space="preserve" font-family="Menlo-Regular,Menlo" font-size="18.0" fill="#011892" transform="matrix(1.00, 0.00, -0.00, -1.00, 77.5, 171.7)"> </text><text xml:space="preserve" font-family="Menlo-Regular,Menlo" font-size="18.0" fill="#0432FF" transform="matrix(1.00, 0.00, -0.00, -1.00, 88.3, 171.7)">r</text><text xml:space="preserve" font-family="Menlo-Regular,Menlo" font-size="18.0" fill="#0432FF" transform="matrix(1.00, 0.00, -0.00, -1.00, 99.2, 171.7)">e</text><text xml:space="preserve" font-family="Menlo-Regular,Menlo" font-size="18.0" fill="#0432FF" transform="matrix(1.00, 0.00, -0.00, -1.00, 110.0, 171.7)">l</text><text xml:space="preserve" font-family="Menlo-Regular,Menlo" font-size="18.0" fill="#0432FF" transform="matrix(1.00, 0.00, -0.00, -1.00, 120.9, 171.7)">=</text><text xml:space="preserve" font-family="Menlo-Regular,Menlo" font-size="18.0" fill="#008E00" transform="matrix(1.00, 0.00, -0.00, -1.00, 131.7, 171.7)">"</text><text xml:space="preserve" font-family="Menlo-Regular,Menlo" font-size="18.0" fill="#008E00" transform="matrix(1.00, 0.00, -0.00, -1.00, 142.5, 171.7)">s</text><text xml:space="preserve" font-family="Menlo-Regular,Menlo" font-size="18.0" fill="#008E00" transform="matrix(1.00, 0.00, -0.00, -1.00, 153.4, 171.7)">t</text><text xml:space="preserve" font-family="Menlo-Regular,Menlo" font-size="18.0" fill="#008E00" transform="matrix(1.00, 0.00, -0.00, -1.00, 164.2, 171.7)">y</text><text xml:space="preserve" font-family="Menlo-Regular,Menlo" font-size="18.0" fill="#008E00" transform="matrix(1.00, 0.00, -0.00, -1.00, 175.0, 171.7)">l</text><text xml:space="preserve" font-family="Menlo-Regular,Menlo" font-size="18.0" fill="#008E00" transform="matrix(1.00, 0.00, -0.00, -1.00, 185.9, 171.7)">e</text><text xml:space="preserve" font-family="Menlo-Regular,Menlo" font-size="18.0" fill="#008E00" transform="matrix(1.00, 0.00, -0.00, -1.00, 196.7, 171.7)">s</text><text xml:space="preserve" font-family="Menlo-Regular,Menlo" font-size="18.0" fill="#008E00" transform="matrix(1.00, 0.00, -0.00, -1.00, 207.6, 171.7)">h</text><text xml:space="preserve" font-family="Menlo-Regular,Menlo" font-size="18.0" fill="#008E00" transform="matrix(1.00, 0.00, -0.00, -1.00, 218.4, 171.7)">e</text><text xml:space="preserve" font-family="Menlo-Regular,Menlo" font-size="18.0" fill="#008E00" transform="matrix(1.00, 0.00, -0.00, -1.00, 229.2, 171.7)">e</text><text xml:space="preserve" font-family="Menlo-Regular,Menlo" font-size="18.0" fill="#008E00" transform="matrix(1.00, 0.00, -0.00, -1.00, 240.1, 171.7)">t</text><text xml:space="preserve" font-family="Menlo-Regular,Menlo" font-size="18.0" fill="#008E00" transform="matrix(1.00, 0.00, -0.00, -1.00, 250.9, 171.7)">"</text><text xml:space="preserve" font-family="Menlo-Regular,Menlo" font-size="18.0" fill="#008E00" transform="matrix(1.00, 0.00, -0.00, -1.00, 261.8, 171.7)"> </text><text xml:space="preserve" font-family="Menlo-Regular,Menlo" font-size="18.0" fill="#0432FF" transform="matrix(1.00, 0.00, -0.00, -1.00, 272.6, 171.7)">h</text><text xml:space="preserve" font-family="Menlo-Regular,Menlo" font-size="18.0" fill="#0432FF" transform="matrix(1.00, 0.00, -0.00, -1.00, 283.4, 171.7)">r</text><text xml:space="preserve" font-family="Menlo-Regular,Menlo" font-size="18.0" fill="#0432FF" transform="matrix(1.00, 0.00, -0.00, -1.00, 294.2, 171.7)">e</text><text xml:space="preserve" font-family="Menlo-Regular,Menlo" font-size="18.0" fill="#0432FF" transform="matrix(1.00, 0.00, -0.00, -1.00, 305.1, 171.7)">f</text><text xml:space="preserve" font-family="Menlo-Regular,Menlo" font-size="18.0" fill="#0432FF" transform="matrix(1.00, 0.00, -0.00, -1.00, 315.9, 171.7)">=</text><text xml:space="preserve" font-family="Menlo-Regular,Menlo" font-size="18.0" fill="#008E00" transform="matrix(1.00, 0.00, -0.00, -1.00, 326.8, 171.7)">"</text><text xml:space="preserve" font-family="Menlo-Regular,Menlo" font-size="18.0" fill="#008E00" transform="matrix(1.00, 0.00, -0.00, -1.00, 337.6, 171.7)">.</text><text xml:space="preserve" font-family="Menlo-Regular,Menlo" font-size="18.0" fill="#008E00" transform="matrix(1.00, 0.00, -0.00, -1.00, 348.4, 171.7)">.</text><text xml:space="preserve" font-family="Menlo-Regular,Menlo" font-size="18.0" fill="#008E00" transform="matrix(1.00, 0.00, -0.00, -1.00, 359.3, 171.7)">/</text><text xml:space="preserve" font-family="Menlo-Regular,Menlo" font-size="18.0" fill="#008E00" transform="matrix(1.00, 0.00, -0.00, -1.00, 370.1, 171.7)">c</text><text xml:space="preserve" font-family="Menlo-Regular,Menlo" font-size="18.0" fill="#008E00" transform="matrix(1.00, 0.00, -0.00, -1.00, 380.9, 171.7)">s</text><text xml:space="preserve" font-family="Menlo-Regular,Menlo" font-size="18.0" fill="#008E00" transform="matrix(1.00, 0.00, -0.00, -1.00, 391.8, 171.7)">s</text><text xml:space="preserve" font-family="Menlo-Regular,Menlo" font-size="18.0" fill="#008E00" transform="matrix(1.00, 0.00, -0.00, -1.00, 402.6, 171.7)">/</text><text xml:space="preserve" font-family="Menlo-Regular,Menlo" font-size="18.0" fill="#008E00" transform="matrix(1.00, 0.00, -0.00, -1.00, 413.5, 171.7)">b</text><text xml:space="preserve" font-family="Menlo-Regular,Menlo" font-size="18.0" fill="#008E00" transform="matrix(1.00, 0.00, -0.00, -1.00, 424.3, 171.7)">o</text><text xml:space="preserve" font-family="Menlo-Regular,Menlo" font-size="18.0" fill="#008E00" transform="matrix(1.00, 0.00, -0.00, -1.00, 435.1, 171.7)">o</text><text xml:space="preserve" font-family="Menlo-Regular,Menlo" font-size="18.0" fill="#008E00" transform="matrix(1.00, 0.00, -0.00, -1.00, 446.0, 171.7)">t</text><text xml:space="preserve" font-family="Menlo-Regular,Menlo" font-size="18.0" fill="#008E00" transform="matrix(1.00, 0.00, -0.00, -1.00, 456.8, 171.7)">s</text><text xml:space="preserve" font-family="Menlo-Regular,Menlo" font-size="18.0" fill="#008E00" transform="matrix(1.00, 0.00, -0.00, -1.00, 467.7, 171.7)">t</text><text xml:space="preserve" font-family="Menlo-Regular,Menlo" font-size="18.0" fill="#008E00" transform="matrix(1.00, 0.00, -0.00, -1.00, 478.5, 171.7)">r</text><text xml:space="preserve" font-family="Menlo-Regular,Menlo" font-size="18.0" fill="#008E00" transform="matrix(1.00, 0.00, -0.00, -1.00, 489.3, 171.7)">a</text><text xml:space="preserve" font-family="Menlo-Regular,Menlo" font-size="18.0" fill="#008E00" transform="matrix(1.00, 0.00, -0.00, -1.00, 500.2, 171.7)">p</text><text xml:space="preserve" font-family="Menlo-Regular,Menlo" font-size="18.0" fill="#008E00" transform="matrix(1.00, 0.00, -0.00, -1.00, 511.0, 171.7)">.</text><text xml:space="preserve" font-family="Menlo-Regular,Menlo" font-size="18.0" fill="#008E00" transform="matrix(1.00, 0.00, -0.00, -1.00, 521.9, 171.7)">m</text><text xml:space="preserve" font-family="Menlo-Regular,Menlo" font-size="18.0" fill="#008E00" transform="matrix(1.00, 0.00, -0.00, -1.00, 532.7, 171.7)">i</text><text xml:space="preserve" font-family="Menlo-Regular,Menlo" font-size="18.0" fill="#008E00" transform="matrix(1.00, 0.00, -0.00, -1.00, 543.5, 171.7)">n</text><text xml:space="preserve" font-family="Menlo-Regular,Menlo" font-size="18.0" fill="#008E00" transform="matrix(1.00, 0.00, -0.00, -1.00, 554.4, 171.7)">.</text><text xml:space="preserve" font-family="Menlo-Regular,Menlo" font-size="18.0" fill="#008E00" transform="matrix(1.00, 0.00, -0.00, -1.00, 565.2, 171.7)">c</text><text xml:space="preserve" font-family="Menlo-Regular,Menlo" font-size="18.0" fill="#008E00" transform="matrix(1.00, 0.00, -0.00, -1.00, 576.0, 171.7)">s</text><text xml:space="preserve" font-family="Menlo-Regular,Menlo" font-size="18.0" fill="#008E00" transform="matrix(1.00, 0.00, -0.00, -1.00, 586.9, 171.7)">s</text><text xml:space="preserve" font-family="Menlo-Regular,Menlo" font-size="18.0" fill="#008E00" transform="matrix(1.00, 0.00, -0.00, -1.00, 597.7, 171.7)">"</text><text xml:space="preserve" font-family="Menlo-Regular,Menlo" font-size="18.0" fill="#000000" transform="matrix(1.00, 0.00, -0.00, -1.00, 608.5, 171.7)">&gt;</text><text xml:space="preserve" font-family="Monaco,Monaco" font-size="18.0" fill="#000000" transform="matrix(1.00, 0.00, -0.00, -1.00, 619.4, 171.7)"> </text><text xml:space="preserve" font-family="Menlo-Regular,Menlo" font-size="18.0" fill="#000000" transform="matrix(1.00, 0.00, -0.00, -1.00, 1.6, 150.7)"> </text><text xml:space="preserve" font-family="Menlo-Regular,Menlo" font-size="18.0" fill="#000000" transform="matrix(1.00, 0.00, -0.00, -1.00, 12.5, 150.7)"> </text><text xml:space="preserve" font-family="Menlo-Regular,Menlo" font-size="18.0" fill="#000000" transform="matrix(1.00, 0.00, -0.00, -1.00, 23.3, 150.7)">&lt;</text><text xml:space="preserve" font-family="Menlo-Regular,Menlo" font-size="18.0" fill="#011892" transform="matrix(1.00, 0.00, -0.00, -1.00, 34.2, 150.7)">s</text><text xml:space="preserve" font-family="Menlo-Regular,Menlo" font-size="18.0" fill="#011892" transform="matrix(1.00, 0.00, -0.00, -1.00, 45.0, 150.7)">c</text><text xml:space="preserve" font-family="Menlo-Regular,Menlo" font-size="18.0" fill="#011892" transform="matrix(1.00, 0.00, -0.00, -1.00, 55.8, 150.7)">r</text><text xml:space="preserve" font-family="Menlo-Regular,Menlo" font-size="18.0" fill="#011892" transform="matrix(1.00, 0.00, -0.00, -1.00, 66.7, 150.7)">i</text><text xml:space="preserve" font-family="Menlo-Regular,Menlo" font-size="18.0" fill="#011892" transform="matrix(1.00, 0.00, -0.00, -1.00, 77.5, 150.7)">p</text><text xml:space="preserve" font-family="Menlo-Regular,Menlo" font-size="18.0" fill="#011892" transform="matrix(1.00, 0.00, -0.00, -1.00, 88.4, 150.7)">t</text><text xml:space="preserve" font-family="Menlo-Regular,Menlo" font-size="18.0" fill="#011892" transform="matrix(1.00, 0.00, -0.00, -1.00, 99.2, 150.7)"> </text><text xml:space="preserve" font-family="Menlo-Regular,Menlo" font-size="18.0" fill="#0432FF" transform="matrix(1.00, 0.00, -0.00, -1.00, 110.0, 150.7)">s</text><text xml:space="preserve" font-family="Menlo-Regular,Menlo" font-size="18.0" fill="#0432FF" transform="matrix(1.00, 0.00, -0.00, -1.00, 120.9, 150.7)">r</text><text xml:space="preserve" font-family="Menlo-Regular,Menlo" font-size="18.0" fill="#0432FF" transform="matrix(1.00, 0.00, -0.00, -1.00, 131.7, 150.7)">c</text><text xml:space="preserve" font-family="Menlo-Regular,Menlo" font-size="18.0" fill="#0432FF" transform="matrix(1.00, 0.00, -0.00, -1.00, 142.5, 150.7)">=</text><text xml:space="preserve" font-family="Menlo-Regular,Menlo" font-size="18.0" fill="#008E00" transform="matrix(1.00, 0.00, -0.00, -1.00, 153.4, 150.7)">"</text><text xml:space="preserve" font-family="Menlo-Regular,Menlo" font-size="18.0" fill="#008E00" transform="matrix(1.00, 0.00, -0.00, -1.00, 164.2, 150.7)">.</text><text xml:space="preserve" font-family="Menlo-Regular,Menlo" font-size="18.0" fill="#008E00" transform="matrix(1.00, 0.00, -0.00, -1.00, 175.0, 150.7)">.</text><text xml:space="preserve" font-family="Menlo-Regular,Menlo" font-size="18.0" fill="#008E00" transform="matrix(1.00, 0.00, -0.00, -1.00, 185.9, 150.7)">/</text><text xml:space="preserve" font-family="Menlo-Regular,Menlo" font-size="18.0" fill="#008E00" transform="matrix(1.00, 0.00, -0.00, -1.00, 196.7, 150.7)">j</text><text xml:space="preserve" font-family="Menlo-Regular,Menlo" font-size="18.0" fill="#008E00" transform="matrix(1.00, 0.00, -0.00, -1.00, 207.6, 150.7)">s</text><text xml:space="preserve" font-family="Menlo-Regular,Menlo" font-size="18.0" fill="#008E00" transform="matrix(1.00, 0.00, -0.00, -1.00, 218.4, 150.7)">/</text><text xml:space="preserve" font-family="Menlo-Regular,Menlo" font-size="18.0" fill="#008E00" transform="matrix(1.00, 0.00, -0.00, -1.00, 229.2, 150.7)">a</text><text xml:space="preserve" font-family="Menlo-Regular,Menlo" font-size="18.0" fill="#008E00" transform="matrix(1.00, 0.00, -0.00, -1.00, 240.1, 150.7)">n</text><text xml:space="preserve" font-family="Menlo-Regular,Menlo" font-size="18.0" fill="#008E00" transform="matrix(1.00, 0.00, -0.00, -1.00, 250.9, 150.7)">g</text><text xml:space="preserve" font-family="Menlo-Regular,Menlo" font-size="18.0" fill="#008E00" transform="matrix(1.00, 0.00, -0.00, -1.00, 261.8, 150.7)">u</text><text xml:space="preserve" font-family="Menlo-Regular,Menlo" font-size="18.0" fill="#008E00" transform="matrix(1.00, 0.00, -0.00, -1.00, 272.6, 150.7)">l</text><text xml:space="preserve" font-family="Menlo-Regular,Menlo" font-size="18.0" fill="#008E00" transform="matrix(1.00, 0.00, -0.00, -1.00, 283.4, 150.7)">a</text><text xml:space="preserve" font-family="Menlo-Regular,Menlo" font-size="18.0" fill="#008E00" transform="matrix(1.00, 0.00, -0.00, -1.00, 294.3, 150.7)">r</text><text xml:space="preserve" font-family="Menlo-Regular,Menlo" font-size="18.0" fill="#008E00" transform="matrix(1.00, 0.00, -0.00, -1.00, 305.1, 150.7)">.</text><text xml:space="preserve" font-family="Menlo-Regular,Menlo" font-size="18.0" fill="#008E00" transform="matrix(1.00, 0.00, -0.00, -1.00, 315.9, 150.7)">m</text><text xml:space="preserve" font-family="Menlo-Regular,Menlo" font-size="18.0" fill="#008E00" transform="matrix(1.00, 0.00, -0.00, -1.00, 326.8, 150.7)">i</text><text xml:space="preserve" font-family="Menlo-Regular,Menlo" font-size="18.0" fill="#008E00" transform="matrix(1.00, 0.00, -0.00, -1.00, 337.6, 150.7)">n</text><text xml:space="preserve" font-family="Menlo-Regular,Menlo" font-size="18.0" fill="#008E00" transform="matrix(1.00, 0.00, -0.00, -1.00, 348.5, 150.7)">.</text><text xml:space="preserve" font-family="Menlo-Regular,Menlo" font-size="18.0" fill="#008E00" transform="matrix(1.00, 0.00, -0.00, -1.00, 359.3, 150.7)">j</text><text xml:space="preserve" font-family="Menlo-Regular,Menlo" font-size="18.0" fill="#008E00" transform="matrix(1.00, 0.00, -0.00, -1.00, 370.1, 150.7)">s</text><text xml:space="preserve" font-family="Menlo-Regular,Menlo" font-size="18.0" fill="#008E00" transform="matrix(1.00, 0.00, -0.00, -1.00, 381.0, 150.7)">"</text><text xml:space="preserve" font-family="Menlo-Regular,Menlo" font-size="18.0" fill="#000000" transform="matrix(1.00, 0.00, -0.00, -1.00, 391.8, 150.7)">&gt;</text><text xml:space="preserve" font-family="Menlo-Regular,Menlo" font-size="18.0" fill="#000000" transform="matrix(1.00, 0.00, -0.00, -1.00, 402.6, 150.7)">&lt;</text><text xml:space="preserve" font-family="Menlo-Regular,Menlo" font-size="18.0" fill="#000000" transform="matrix(1.00, 0.00, -0.00, -1.00, 413.5, 150.7)">/</text><text xml:space="preserve" font-family="Menlo-Regular,Menlo" font-size="18.0" fill="#011892" transform="matrix(1.00, 0.00, -0.00, -1.00, 424.3, 150.7)">s</text><text xml:space="preserve" font-family="Menlo-Regular,Menlo" font-size="18.0" fill="#011892" transform="matrix(1.00, 0.00, -0.00, -1.00, 435.1, 150.7)">c</text><text xml:space="preserve" font-family="Menlo-Regular,Menlo" font-size="18.0" fill="#011892" transform="matrix(1.00, 0.00, -0.00, -1.00, 446.0, 150.7)">r</text><text xml:space="preserve" font-family="Menlo-Regular,Menlo" font-size="18.0" fill="#011892" transform="matrix(1.00, 0.00, -0.00, -1.00, 456.8, 150.7)">i</text><text xml:space="preserve" font-family="Menlo-Regular,Menlo" font-size="18.0" fill="#011892" transform="matrix(1.00, 0.00, -0.00, -1.00, 467.6, 150.7)">p</text><text xml:space="preserve" font-family="Menlo-Regular,Menlo" font-size="18.0" fill="#011892" transform="matrix(1.00, 0.00, -0.00, -1.00, 478.5, 150.7)">t</text><text xml:space="preserve" font-family="Menlo-Regular,Menlo" font-size="18.0" fill="#000000" transform="matrix(1.00, 0.00, -0.00, -1.00, 489.3, 150.7)">&gt;</text><text xml:space="preserve" font-family="Monaco,Monaco" font-size="18.0" fill="#000000" transform="matrix(1.00, 0.00, -0.00, -1.00, 500.1, 150.7)"> </text><text xml:space="preserve" font-family="Menlo-Regular,Menlo" font-size="18.0" fill="#000000" transform="matrix(1.00, 0.00, -0.00, -1.00, 1.6, 129.7)">&lt;</text><text xml:space="preserve" font-family="Menlo-Regular,Menlo" font-size="18.0" fill="#000000" transform="matrix(1.00, 0.00, -0.00, -1.00, 12.5, 129.7)">/</text><text xml:space="preserve" font-family="Menlo-Regular,Menlo" font-size="18.0" fill="#011892" transform="matrix(1.00, 0.00, -0.00, -1.00, 23.3, 129.7)">h</text><text xml:space="preserve" font-family="Menlo-Regular,Menlo" font-size="18.0" fill="#011892" transform="matrix(1.00, 0.00, -0.00, -1.00, 34.2, 129.7)">e</text><text xml:space="preserve" font-family="Menlo-Regular,Menlo" font-size="18.0" fill="#011892" transform="matrix(1.00, 0.00, -0.00, -1.00, 45.0, 129.7)">a</text><text xml:space="preserve" font-family="Menlo-Regular,Menlo" font-size="18.0" fill="#011892" transform="matrix(1.00, 0.00, -0.00, -1.00, 55.8, 129.7)">d</text><text xml:space="preserve" font-family="Menlo-Regular,Menlo" font-size="18.0" fill="#000000" transform="matrix(1.00, 0.00, -0.00, -1.00, 66.7, 129.7)">&gt;</text><text xml:space="preserve" font-family="Monaco,Monaco" font-size="18.0" fill="#000000" transform="matrix(1.00, 0.00, -0.00, -1.00, 77.5, 129.7)"> </text><text xml:space="preserve" font-family="Menlo-Regular,Menlo" font-size="18.0" fill="#000000" transform="matrix(1.00, 0.00, -0.00, -1.00, 1.6, 108.7)">&lt;</text><text xml:space="preserve" font-family="Menlo-Regular,Menlo" font-size="18.0" fill="#011892" transform="matrix(1.00, 0.00, -0.00, -1.00, 12.5, 108.7)">b</text><text xml:space="preserve" font-family="Menlo-Regular,Menlo" font-size="18.0" fill="#011892" transform="matrix(1.00, 0.00, -0.00, -1.00, 23.3, 108.7)">o</text><text xml:space="preserve" font-family="Menlo-Regular,Menlo" font-size="18.0" fill="#011892" transform="matrix(1.00, 0.00, -0.00, -1.00, 34.2, 108.7)">d</text><text xml:space="preserve" font-family="Menlo-Regular,Menlo" font-size="18.0" fill="#011892" transform="matrix(1.00, 0.00, -0.00, -1.00, 45.0, 108.7)">y</text><text xml:space="preserve" font-family="Menlo-Regular,Menlo" font-size="18.0" fill="#000000" transform="matrix(1.00, 0.00, -0.00, -1.00, 55.8, 108.7)">&gt;</text><text xml:space="preserve" font-family="Monaco,Monaco" font-size="18.0" fill="#000000" transform="matrix(1.00, 0.00, -0.00, -1.00, 66.7, 108.7)"> </text><text xml:space="preserve" font-family="Menlo-Regular,Menlo" font-size="18.0" fill="#000000" transform="matrix(1.00, 0.00, -0.00, -1.00, 1.6, 87.7)"> </text><text xml:space="preserve" font-family="Menlo-Regular,Menlo" font-size="18.0" fill="#000000" transform="matrix(1.00, 0.00, -0.00, -1.00, 12.5, 87.7)"> </text><text xml:space="preserve" font-family="Menlo-Regular,Menlo" font-size="18.0" fill="#000000" transform="matrix(1.00, 0.00, -0.00, -1.00, 23.3, 87.7)">&lt;</text><text xml:space="preserve" font-family="Menlo-Regular,Menlo" font-size="18.0" fill="#011892" transform="matrix(1.00, 0.00, -0.00, -1.00, 34.2, 87.7)">d</text><text xml:space="preserve" font-family="Menlo-Regular,Menlo" font-size="18.0" fill="#011892" transform="matrix(1.00, 0.00, -0.00, -1.00, 45.0, 87.7)">i</text><text xml:space="preserve" font-family="Menlo-Regular,Menlo" font-size="18.0" fill="#011892" transform="matrix(1.00, 0.00, -0.00, -1.00, 55.8, 87.7)">v</text><text xml:space="preserve" font-family="Menlo-Regular,Menlo" font-size="18.0" fill="#011892" transform="matrix(1.00, 0.00, -0.00, -1.00, 66.7, 87.7)"> </text><text xml:space="preserve" font-family="Menlo-Regular,Menlo" font-size="18.0" fill="#0432FF" transform="matrix(1.00, 0.00, -0.00, -1.00, 77.5, 87.7)">c</text><text xml:space="preserve" font-family="Menlo-Regular,Menlo" font-size="18.0" fill="#0432FF" transform="matrix(1.00, 0.00, -0.00, -1.00, 88.3, 87.7)">l</text><text xml:space="preserve" font-family="Menlo-Regular,Menlo" font-size="18.0" fill="#0432FF" transform="matrix(1.00, 0.00, -0.00, -1.00, 99.2, 87.7)">a</text><text xml:space="preserve" font-family="Menlo-Regular,Menlo" font-size="18.0" fill="#0432FF" transform="matrix(1.00, 0.00, -0.00, -1.00, 110.0, 87.7)">s</text><text xml:space="preserve" font-family="Menlo-Regular,Menlo" font-size="18.0" fill="#0432FF" transform="matrix(1.00, 0.00, -0.00, -1.00, 120.9, 87.7)">s</text><text xml:space="preserve" font-family="Menlo-Regular,Menlo" font-size="18.0" fill="#0432FF" transform="matrix(1.00, 0.00, -0.00, -1.00, 131.7, 87.7)">=</text><text xml:space="preserve" font-family="Menlo-Regular,Menlo" font-size="18.0" fill="#008E00" transform="matrix(1.00, 0.00, -0.00, -1.00, 142.5, 87.7)">"</text><text xml:space="preserve" font-family="Menlo-Regular,Menlo" font-size="18.0" fill="#008E00" transform="matrix(1.00, 0.00, -0.00, -1.00, 153.4, 87.7)">c</text><text xml:space="preserve" font-family="Menlo-Regular,Menlo" font-size="18.0" fill="#008E00" transform="matrix(1.00, 0.00, -0.00, -1.00, 164.2, 87.7)">o</text><text xml:space="preserve" font-family="Menlo-Regular,Menlo" font-size="18.0" fill="#008E00" transform="matrix(1.00, 0.00, -0.00, -1.00, 175.0, 87.7)">n</text><text xml:space="preserve" font-family="Menlo-Regular,Menlo" font-size="18.0" fill="#008E00" transform="matrix(1.00, 0.00, -0.00, -1.00, 185.9, 87.7)">t</text><text xml:space="preserve" font-family="Menlo-Regular,Menlo" font-size="18.0" fill="#008E00" transform="matrix(1.00, 0.00, -0.00, -1.00, 196.7, 87.7)">a</text><text xml:space="preserve" font-family="Menlo-Regular,Menlo" font-size="18.0" fill="#008E00" transform="matrix(1.00, 0.00, -0.00, -1.00, 207.6, 87.7)">i</text><text xml:space="preserve" font-family="Menlo-Regular,Menlo" font-size="18.0" fill="#008E00" transform="matrix(1.00, 0.00, -0.00, -1.00, 218.4, 87.7)">n</text><text xml:space="preserve" font-family="Menlo-Regular,Menlo" font-size="18.0" fill="#008E00" transform="matrix(1.00, 0.00, -0.00, -1.00, 229.2, 87.7)">e</text><text xml:space="preserve" font-family="Menlo-Regular,Menlo" font-size="18.0" fill="#008E00" transform="matrix(1.00, 0.00, -0.00, -1.00, 240.1, 87.7)">r</text><text xml:space="preserve" font-family="Menlo-Regular,Menlo" font-size="18.0" fill="#008E00" transform="matrix(1.00, 0.00, -0.00, -1.00, 250.9, 87.7)">-</text><text xml:space="preserve" font-family="Menlo-Regular,Menlo" font-size="18.0" fill="#008E00" transform="matrix(1.00, 0.00, -0.00, -1.00, 261.8, 87.7)">f</text><text xml:space="preserve" font-family="Menlo-Regular,Menlo" font-size="18.0" fill="#008E00" transform="matrix(1.00, 0.00, -0.00, -1.00, 272.6, 87.7)">l</text><text xml:space="preserve" font-family="Menlo-Regular,Menlo" font-size="18.0" fill="#008E00" transform="matrix(1.00, 0.00, -0.00, -1.00, 283.4, 87.7)">u</text><text xml:space="preserve" font-family="Menlo-Regular,Menlo" font-size="18.0" fill="#008E00" transform="matrix(1.00, 0.00, -0.00, -1.00, 294.3, 87.7)">i</text><text xml:space="preserve" font-family="Menlo-Regular,Menlo" font-size="18.0" fill="#008E00" transform="matrix(1.00, 0.00, -0.00, -1.00, 305.1, 87.7)">d</text><text xml:space="preserve" font-family="Menlo-Regular,Menlo" font-size="18.0" fill="#008E00" transform="matrix(1.00, 0.00, -0.00, -1.00, 315.9, 87.7)">"</text><text xml:space="preserve" font-family="Menlo-Regular,Menlo" font-size="18.0" fill="#000000" transform="matrix(1.00, 0.00, -0.00, -1.00, 326.8, 87.7)">&gt;</text><text xml:space="preserve" font-family="Monaco,Monaco" font-size="18.0" fill="#000000" transform="matrix(1.00, 0.00, -0.00, -1.00, 337.6, 87.7)"> </text><text xml:space="preserve" font-family="Menlo-Regular,Menlo" font-size="18.0" fill="#000000" transform="matrix(1.00, 0.00, -0.00, -1.00, 1.6, 66.7)"> </text><text xml:space="preserve" font-family="Menlo-Regular,Menlo" font-size="18.0" fill="#000000" transform="matrix(1.00, 0.00, -0.00, -1.00, 12.5, 66.7)"> </text><text xml:space="preserve" font-family="Menlo-Regular,Menlo" font-size="18.0" fill="#000000" transform="matrix(1.00, 0.00, -0.00, -1.00, 23.3, 66.7)"> </text><text xml:space="preserve" font-family="Menlo-Regular,Menlo" font-size="18.0" fill="#000000" transform="matrix(1.00, 0.00, -0.00, -1.00, 34.2, 66.7)"> </text><text xml:space="preserve" font-family="Menlo-Regular,Menlo" font-size="18.0" fill="#000000" transform="matrix(1.00, 0.00, -0.00, -1.00, 45.0, 66.7)">&lt;</text><text xml:space="preserve" font-family="Menlo-Regular,Menlo" font-size="18.0" fill="#011892" transform="matrix(1.00, 0.00, -0.00, -1.00, 55.8, 66.7)">h</text><text xml:space="preserve" font-family="Menlo-Regular,Menlo" font-size="18.0" fill="#011892" transform="matrix(1.00, 0.00, -0.00, -1.00, 66.7, 66.7)">1</text><text xml:space="preserve" font-family="Menlo-Regular,Menlo" font-size="18.0" fill="#000000" transform="matrix(1.00, 0.00, -0.00, -1.00, 77.5, 66.7)">&gt;</text><text xml:space="preserve" font-family="Menlo-Regular,Menlo" font-size="18.0" fill="#000000" transform="matrix(1.00, 0.00, -0.00, -1.00, 88.3, 66.7)">N</text><text xml:space="preserve" font-family="Menlo-Regular,Menlo" font-size="18.0" fill="#000000" transform="matrix(1.00, 0.00, -0.00, -1.00, 99.2, 66.7)">o</text><text xml:space="preserve" font-family="Menlo-Regular,Menlo" font-size="18.0" fill="#000000" transform="matrix(1.00, 0.00, -0.00, -1.00, 110.0, 66.7)">t</text><text xml:space="preserve" font-family="Menlo-Regular,Menlo" font-size="18.0" fill="#000000" transform="matrix(1.00, 0.00, -0.00, -1.00, 120.9, 66.7)">h</text><text xml:space="preserve" font-family="Menlo-Regular,Menlo" font-size="18.0" fill="#000000" transform="matrix(1.00, 0.00, -0.00, -1.00, 131.7, 66.7)">i</text><text xml:space="preserve" font-family="Menlo-Regular,Menlo" font-size="18.0" fill="#000000" transform="matrix(1.00, 0.00, -0.00, -1.00, 142.5, 66.7)">n</text><text xml:space="preserve" font-family="Menlo-Regular,Menlo" font-size="18.0" fill="#000000" transform="matrix(1.00, 0.00, -0.00, -1.00, 153.4, 66.7)">g</text><text xml:space="preserve" font-family="Menlo-Regular,Menlo" font-size="18.0" fill="#000000" transform="matrix(1.00, 0.00, -0.00, -1.00, 164.2, 66.7)"> </text><text xml:space="preserve" font-family="Menlo-Regular,Menlo" font-size="18.0" fill="#000000" transform="matrix(1.00, 0.00, -0.00, -1.00, 175.1, 66.7)">h</text><text xml:space="preserve" font-family="Menlo-Regular,Menlo" font-size="18.0" fill="#000000" transform="matrix(1.00, 0.00, -0.00, -1.00, 185.9, 66.7)">e</text><text xml:space="preserve" font-family="Menlo-Regular,Menlo" font-size="18.0" fill="#000000" transform="matrix(1.00, 0.00, -0.00, -1.00, 196.7, 66.7)">r</text><text xml:space="preserve" font-family="Menlo-Regular,Menlo" font-size="18.0" fill="#000000" transform="matrix(1.00, 0.00, -0.00, -1.00, 207.6, 66.7)">e</text><text xml:space="preserve" font-family="Menlo-Regular,Menlo" font-size="18.0" fill="#000000" transform="matrix(1.00, 0.00, -0.00, -1.00, 218.4, 66.7)"> </text><text xml:space="preserve" font-family="Menlo-Regular,Menlo" font-size="18.0" fill="#000000" transform="matrix(1.00, 0.00, -0.00, -1.00, 229.2, 66.7)">{</text><text xml:space="preserve" font-family="Menlo-Regular,Menlo" font-size="18.0" fill="#000000" transform="matrix(1.00, 0.00, -0.00, -1.00, 240.1, 66.7)">{</text><text xml:space="preserve" font-family="Menlo-Regular,Menlo" font-size="18.0" fill="#000000" transform="matrix(1.00, 0.00, -0.00, -1.00, 250.9, 66.7)">'</text><text xml:space="preserve" font-family="Menlo-Regular,Menlo" font-size="18.0" fill="#000000" transform="matrix(1.00, 0.00, -0.00, -1.00, 261.8, 66.7)">y</text><text xml:space="preserve" font-family="Menlo-Regular,Menlo" font-size="18.0" fill="#000000" transform="matrix(1.00, 0.00, -0.00, -1.00, 272.6, 66.7)">e</text><text xml:space="preserve" font-family="Menlo-Regular,Menlo" font-size="18.0" fill="#000000" transform="matrix(1.00, 0.00, -0.00, -1.00, 283.4, 66.7)">t</text><text xml:space="preserve" font-family="Menlo-Regular,Menlo" font-size="18.0" fill="#000000" transform="matrix(1.00, 0.00, -0.00, -1.00, 294.3, 66.7)">'</text><text xml:space="preserve" font-family="Menlo-Regular,Menlo" font-size="18.0" fill="#000000" transform="matrix(1.00, 0.00, -0.00, -1.00, 305.1, 66.7)"> </text><text xml:space="preserve" font-family="Menlo-Regular,Menlo" font-size="18.0" fill="#000000" transform="matrix(1.00, 0.00, -0.00, -1.00, 316.0, 66.7)">+</text><text xml:space="preserve" font-family="Menlo-Regular,Menlo" font-size="18.0" fill="#000000" transform="matrix(1.00, 0.00, -0.00, -1.00, 326.8, 66.7)"> </text><text xml:space="preserve" font-family="Menlo-Regular,Menlo" font-size="18.0" fill="#000000" transform="matrix(1.00, 0.00, -0.00, -1.00, 337.6, 66.7)">'</text><text xml:space="preserve" font-family="Menlo-Regular,Menlo" font-size="18.0" fill="#000000" transform="matrix(1.00, 0.00, -0.00, -1.00, 348.5, 66.7)">!</text><text xml:space="preserve" font-family="Menlo-Regular,Menlo" font-size="18.0" fill="#000000" transform="matrix(1.00, 0.00, -0.00, -1.00, 359.3, 66.7)">'</text><text xml:space="preserve" font-family="Menlo-Regular,Menlo" font-size="18.0" fill="#000000" transform="matrix(1.00, 0.00, -0.00, -1.00, 370.2, 66.7)">}</text><text xml:space="preserve" font-family="Menlo-Regular,Menlo" font-size="18.0" fill="#000000" transform="matrix(1.00, 0.00, -0.00, -1.00, 381.0, 66.7)">}</text><text xml:space="preserve" font-family="Menlo-Regular,Menlo" font-size="18.0" fill="#000000" transform="matrix(1.00, 0.00, -0.00, -1.00, 391.8, 66.7)">&lt;</text><text xml:space="preserve" font-family="Menlo-Regular,Menlo" font-size="18.0" fill="#000000" transform="matrix(1.00, 0.00, -0.00, -1.00, 402.7, 66.7)">/</text><text xml:space="preserve" font-family="Menlo-Regular,Menlo" font-size="18.0" fill="#011892" transform="matrix(1.00, 0.00, -0.00, -1.00, 413.5, 66.7)">h</text><text xml:space="preserve" font-family="Menlo-Regular,Menlo" font-size="18.0" fill="#011892" transform="matrix(1.00, 0.00, -0.00, -1.00, 424.3, 66.7)">1</text><text xml:space="preserve" font-family="Menlo-Regular,Menlo" font-size="18.0" fill="#000000" transform="matrix(1.00, 0.00, -0.00, -1.00, 435.1, 66.7)">&gt;</text><text xml:space="preserve" font-family="Monaco,Monaco" font-size="18.0" fill="#000000" transform="matrix(1.00, 0.00, -0.00, -1.00, 446.0, 66.7)"> </text><text xml:space="preserve" font-family="Menlo-Regular,Menlo" font-size="18.0" fill="#000000" transform="matrix(1.00, 0.00, -0.00, -1.00, 1.6, 45.7)"> </text><text xml:space="preserve" font-family="Menlo-Regular,Menlo" font-size="18.0" fill="#000000" transform="matrix(1.00, 0.00, -0.00, -1.00, 12.5, 45.7)"> </text><text xml:space="preserve" font-family="Menlo-Regular,Menlo" font-size="18.0" fill="#000000" transform="matrix(1.00, 0.00, -0.00, -1.00, 23.3, 45.7)">&lt;</text><text xml:space="preserve" font-family="Menlo-Regular,Menlo" font-size="18.0" fill="#000000" transform="matrix(1.00, 0.00, -0.00, -1.00, 34.2, 45.7)">/</text><text xml:space="preserve" font-family="Menlo-Regular,Menlo" font-size="18.0" fill="#011892" transform="matrix(1.00, 0.00, -0.00, -1.00, 45.0, 45.7)">d</text><text xml:space="preserve" font-family="Menlo-Regular,Menlo" font-size="18.0" fill="#011892" transform="matrix(1.00, 0.00, -0.00, -1.00, 55.8, 45.7)">i</text><text xml:space="preserve" font-family="Menlo-Regular,Menlo" font-size="18.0" fill="#011892" transform="matrix(1.00, 0.00, -0.00, -1.00, 66.7, 45.7)">v</text><text xml:space="preserve" font-family="Menlo-Regular,Menlo" font-size="18.0" fill="#000000" transform="matrix(1.00, 0.00, -0.00, -1.00, 77.5, 45.7)">&gt;</text><text xml:space="preserve" font-family="Monaco,Monaco" font-size="18.0" fill="#000000" transform="matrix(1.00, 0.00, -0.00, -1.00, 88.3, 45.7)"> </text><text xml:space="preserve" font-family="Menlo-Regular,Menlo" font-size="18.0" fill="#000000" transform="matrix(1.00, 0.00, -0.00, -1.00, 1.6, 24.7)">&lt;</text><text xml:space="preserve" font-family="Menlo-Regular,Menlo" font-size="18.0" fill="#000000" transform="matrix(1.00, 0.00, -0.00, -1.00, 12.5, 24.7)">/</text><text xml:space="preserve" font-family="Menlo-Regular,Menlo" font-size="18.0" fill="#011892" transform="matrix(1.00, 0.00, -0.00, -1.00, 23.3, 24.7)">b</text><text xml:space="preserve" font-family="Menlo-Regular,Menlo" font-size="18.0" fill="#011892" transform="matrix(1.00, 0.00, -0.00, -1.00, 34.2, 24.7)">o</text><text xml:space="preserve" font-family="Menlo-Regular,Menlo" font-size="18.0" fill="#011892" transform="matrix(1.00, 0.00, -0.00, -1.00, 45.0, 24.7)">d</text><text xml:space="preserve" font-family="Menlo-Regular,Menlo" font-size="18.0" fill="#011892" transform="matrix(1.00, 0.00, -0.00, -1.00, 55.8, 24.7)">y</text><text xml:space="preserve" font-family="Menlo-Regular,Menlo" font-size="18.0" fill="#000000" transform="matrix(1.00, 0.00, -0.00, -1.00, 66.7, 24.7)">&gt;</text><text xml:space="preserve" font-family="Monaco,Monaco" font-size="18.0" fill="#000000" transform="matrix(1.00, 0.00, -0.00, -1.00, 77.5, 24.7)"> </text><text xml:space="preserve" font-family="Menlo-Regular,Menlo" font-size="18.0" fill="#000000" transform="matrix(1.00, 0.00, -0.00, -1.00, 1.6, 3.7)">&lt;</text><text xml:space="preserve" font-family="Menlo-Regular,Menlo" font-size="18.0" fill="#000000" transform="matrix(1.00, 0.00, -0.00, -1.00, 12.5, 3.7)">/</text><text xml:space="preserve" font-family="Menlo-Regular,Menlo" font-size="18.0" fill="#011892" transform="matrix(1.00, 0.00, -0.00, -1.00, 23.3, 3.7)">h</text><text xml:space="preserve" font-family="Menlo-Regular,Menlo" font-size="18.0" fill="#011892" transform="matrix(1.00, 0.00, -0.00, -1.00, 34.2, 3.7)">t</text><text xml:space="preserve" font-family="Menlo-Regular,Menlo" font-size="18.0" fill="#011892" transform="matrix(1.00, 0.00, -0.00, -1.00, 45.0, 3.7)">m</text><text xml:space="preserve" font-family="Menlo-Regular,Menlo" font-size="18.0" fill="#011892" transform="matrix(1.00, 0.00, -0.00, -1.00, 55.8, 3.7)">l</text><text xml:space="preserve" font-family="Menlo-Regular,Menlo" font-size="18.0" fill="#000000" transform="matrix(1.00, 0.00, -0.00, -1.00, 66.7, 3.7)">&gt;</text><text xml:space="preserve" font-family="Monaco,Monaco" font-size="18.0" fill="#000000" transform="matrix(1.00, 0.00, -0.00, -1.00, 77.5, 3.7)"> </text></g></svg>