<?xml version="1.0" encoding="UTF-8" standalone="no"?><svg xmlns="http://www.w3.org/2000/svg" xmlns:xlink="http://www.w3.org/1999/xlink" clip-rule="evenodd" stroke-miterlimit="10" viewBox="0 0 1024 768"><desc>SVG generated by Keynote</desc><defs></defs><g transform="matrix(1.00, 0.00, -0.00, -1.00, 0.0, 768.0)"><g><clipPath id="clip0x600002cb4520"><path d="M 0.0 768.0 L 1024.0 768.0 L 1024.0 0.0 L 0.0 0.0 Z M 0.0 768.0 "></path></clipPath><g clip-path="url(#clip0x600002cb4520)"><image xlink:href="../../BE03AB4A-F5E0-4685-80C7-20DCBC62631F/assets/574DCE55A4CF432400CBDDDE1DFDFC9B.jpeg" width="2048.00" height="1536.00" transform="matrix(0.50, 0.00, -0.00, -0.50, 0.0, 768.0)"></image></g></g><text xml:space="preserve" font-family="GillSans-Light,Gill Sans" font-size="72.0" fill="#525252" transform="matrix(1.00, 0.00, -0.00, -1.00, 351.0, 628.2)">M</text><text xml:space="preserve" font-family="GillSans-Light,Gill Sans" font-size="72.0" fill="#525252" transform="matrix(1.00, 0.00, -0.00, -1.00, 407.2, 628.2)">O</text><text xml:space="preserve" font-family="GillSans-Light,Gill Sans" font-size="72.0" fill="#525252" transform="matrix(1.00, 0.00, -0.00, -1.00, 466.5, 628.2)">D</text><text xml:space="preserve" font-family="GillSans-Light,Gill Sans" font-size="72.0" fill="#525252" transform="matrix(1.00, 0.00, -0.00, -1.00, 519.8, 628.2)">U</text><text xml:space="preserve" font-family="GillSans-Light,Gill Sans" font-size="72.0" fill="#525252" transform="matrix(1.00, 0.00, -0.00, -1.00, 570.0, 628.2)">L</text><text xml:space="preserve" font-family="GillSans-Light,Gill Sans" font-size="72.0" fill="#525252" transform="matrix(1.00, 0.00, -0.00, -1.00, 603.8, 628.2)">E</text><text xml:space="preserve" font-family="GillSans-Light,Gill Sans" font-size="72.0" fill="#525252" transform="matrix(1.00, 0.00, -0.00, -1.00, 639.1, 628.2)">S</text><text xml:space="preserve" font-family="GillSans-Light,Gill Sans" font-size="35.8" fill="#525252" transform="matrix(1.00, 0.00, -0.00, -1.00, 32.0, 505.5)">•</text><text xml:space="preserve" font-family="GillSans-Light,Gill Sans" font-size="43.7" fill="#525252" transform="matrix(1.00, 0.00, -0.00, -1.00, 71.0, 503.4)">A</text><text xml:space="preserve" font-family="GillSans-Light,Gill Sans" font-size="43.7" fill="#525252" transform="matrix(1.00, 0.00, -0.00, -1.00, 100.1, 503.4)"> </text><text xml:space="preserve" font-family="GillSans-Light,Gill Sans" font-size="43.7" fill="#525252" transform="matrix(1.00, 0.00, -0.00, -1.00, 112.2, 503.4)">m</text><text xml:space="preserve" font-family="GillSans-Light,Gill Sans" font-size="43.7" fill="#525252" transform="matrix(1.00, 0.00, -0.00, -1.00, 145.9, 503.4)">o</text><text xml:space="preserve" font-family="GillSans-Light,Gill Sans" font-size="43.7" fill="#525252" transform="matrix(1.00, 0.00, -0.00, -1.00, 169.6, 503.4)">d</text><text xml:space="preserve" font-family="GillSans-Light,Gill Sans" font-size="43.7" fill="#525252" transform="matrix(1.00, 0.00, -0.00, -1.00, 191.9, 503.4)">u</text><text xml:space="preserve" font-family="GillSans-Light,Gill Sans" font-size="43.7" fill="#525252" transform="matrix(1.00, 0.00, -0.00, -1.00, 213.3, 503.4)">l</text><text xml:space="preserve" font-family="GillSans-Light,Gill Sans" font-size="43.7" fill="#525252" transform="matrix(1.00, 0.00, -0.00, -1.00, 221.5, 503.4)">e</text><text xml:space="preserve" font-family="GillSans-Light,Gill Sans" font-size="43.7" fill="#525252" transform="matrix(1.00, 0.00, -0.00, -1.00, 242.5, 503.4)"> </text><text xml:space="preserve" font-family="GillSans-Light,Gill Sans" font-size="43.7" fill="#525252" transform="matrix(1.00, 0.00, -0.00, -1.00, 254.6, 503.4)">i</text><text xml:space="preserve" font-family="GillSans-Light,Gill Sans" font-size="43.7" fill="#525252" transform="matrix(1.00, 0.00, -0.00, -1.00, 262.8, 503.4)">s</text><text xml:space="preserve" font-family="GillSans-Light,Gill Sans" font-size="43.7" fill="#525252" transform="matrix(1.00, 0.00, -0.00, -1.00, 278.3, 503.4)"> </text><text xml:space="preserve" font-family="GillSans-Light,Gill Sans" font-size="43.7" fill="#525252" transform="matrix(1.00, 0.00, -0.00, -1.00, 290.4, 503.4)">a</text><text xml:space="preserve" font-family="GillSans-Light,Gill Sans" font-size="43.7" fill="#525252" transform="matrix(1.00, 0.00, -0.00, -1.00, 309.0, 503.4)"> </text><text xml:space="preserve" font-family="GillSans-Light,Gill Sans" font-size="43.7" fill="#525252" transform="matrix(1.00, 0.00, -0.00, -1.00, 321.2, 503.4)">c</text><text xml:space="preserve" font-family="GillSans-Light,Gill Sans" font-size="43.7" fill="#525252" transform="matrix(1.00, 0.00, -0.00, -1.00, 339.4, 503.4)">o</text><text xml:space="preserve" font-family="GillSans-Light,Gill Sans" font-size="43.7" fill="#525252" transform="matrix(1.00, 0.00, -0.00, -1.00, 363.1, 503.4)">n</text><text xml:space="preserve" font-family="GillSans-Light,Gill Sans" font-size="43.7" fill="#525252" transform="matrix(1.00, 0.00, -0.00, -1.00, 384.5, 503.4)">t</text><text xml:space="preserve" font-family="GillSans-Light,Gill Sans" font-size="43.7" fill="#525252" transform="matrix(1.00, 0.00, -0.00, -1.00, 397.7, 503.4)">a</text><text xml:space="preserve" font-family="GillSans-Light,Gill Sans" font-size="43.7" fill="#525252" transform="matrix(1.00, 0.00, -0.00, -1.00, 416.3, 503.4)">i</text><text xml:space="preserve" font-family="GillSans-Light,Gill Sans" font-size="43.7" fill="#525252" transform="matrix(1.00, 0.00, -0.00, -1.00, 424.6, 503.4)">n</text><text xml:space="preserve" font-family="GillSans-Light,Gill Sans" font-size="43.7" fill="#525252" transform="matrix(1.00, 0.00, -0.00, -1.00, 446.0, 503.4)">e</text><text xml:space="preserve" font-family="GillSans-Light,Gill Sans" font-size="43.7" fill="#525252" transform="matrix(1.00, 0.00, -0.00, -1.00, 466.9, 503.4)">r</text><text xml:space="preserve" font-family="GillSans-Light,Gill Sans" font-size="43.7" fill="#525252" transform="matrix(1.00, 0.00, -0.00, -1.00, 481.5, 503.4)"> </text><text xml:space="preserve" font-family="GillSans-Light,Gill Sans" font-size="43.7" fill="#525252" transform="matrix(1.00, 0.00, -0.00, -1.00, 493.6, 503.4)">f</text><text xml:space="preserve" font-family="GillSans-Light,Gill Sans" font-size="43.7" fill="#525252" transform="matrix(1.00, 0.00, -0.00, -1.00, 503.7, 503.4)">o</text><text xml:space="preserve" font-family="GillSans-Light,Gill Sans" font-size="43.7" fill="#525252" transform="matrix(1.00, 0.00, -0.00, -1.00, 527.4, 503.4)">r</text><text xml:space="preserve" font-family="GillSans-Light,Gill Sans" font-size="43.7" fill="#525252" transform="matrix(1.00, 0.00, -0.00, -1.00, 541.9, 503.4)"> </text><text xml:space="preserve" font-family="GillSans-Light,Gill Sans" font-size="43.7" fill="#525252" transform="matrix(1.00, 0.00, -0.00, -1.00, 554.1, 503.4)">t</text><text xml:space="preserve" font-family="GillSans-Light,Gill Sans" font-size="43.7" fill="#525252" transform="matrix(1.00, 0.00, -0.00, -1.00, 567.2, 503.4)">h</text><text xml:space="preserve" font-family="GillSans-Light,Gill Sans" font-size="43.7" fill="#525252" transform="matrix(1.00, 0.00, -0.00, -1.00, 588.7, 503.4)">e</text><text xml:space="preserve" font-family="GillSans-Light,Gill Sans" font-size="43.7" fill="#525252" transform="matrix(1.00, 0.00, -0.00, -1.00, 609.6, 503.4)"> </text><text xml:space="preserve" font-family="GillSans-Light,Gill Sans" font-size="43.7" fill="#525252" transform="matrix(1.00, 0.00, -0.00, -1.00, 621.7, 503.4)">d</text><text xml:space="preserve" font-family="GillSans-Light,Gill Sans" font-size="43.7" fill="#525252" transform="matrix(1.00, 0.00, -0.00, -1.00, 644.0, 503.4)">i</text><text xml:space="preserve" font-family="GillSans-Light,Gill Sans" font-size="43.7" fill="#525252" transform="matrix(1.00, 0.00, -0.00, -1.00, 652.2, 503.4)">f</text><text xml:space="preserve" font-family="GillSans-Light,Gill Sans" font-size="43.7" fill="#525252" transform="matrix(1.00, 0.00, -0.00, -1.00, 662.7, 503.4)">f</text><text xml:space="preserve" font-family="GillSans-Light,Gill Sans" font-size="43.7" fill="#525252" transform="matrix(1.00, 0.00, -0.00, -1.00, 672.6, 503.4)">e</text><text xml:space="preserve" font-family="GillSans-Light,Gill Sans" font-size="43.7" fill="#525252" transform="matrix(1.00, 0.00, -0.00, -1.00, 693.5, 503.4)">r</text><text xml:space="preserve" font-family="GillSans-Light,Gill Sans" font-size="43.7" fill="#525252" transform="matrix(1.00, 0.00, -0.00, -1.00, 708.1, 503.4)">e</text><text xml:space="preserve" font-family="GillSans-Light,Gill Sans" font-size="43.7" fill="#525252" transform="matrix(1.00, 0.00, -0.00, -1.00, 729.0, 503.4)">n</text><text xml:space="preserve" font-family="GillSans-Light,Gill Sans" font-size="43.7" fill="#525252" transform="matrix(1.00, 0.00, -0.00, -1.00, 750.4, 503.4)">t</text><text xml:space="preserve" font-family="GillSans-Light,Gill Sans" font-size="43.7" fill="#525252" transform="matrix(1.00, 0.00, -0.00, -1.00, 763.6, 503.4)"> </text><text xml:space="preserve" font-family="GillSans-Light,Gill Sans" font-size="43.7" fill="#525252" transform="matrix(1.00, 0.00, -0.00, -1.00, 775.7, 503.4)">p</text><text xml:space="preserve" font-family="GillSans-Light,Gill Sans" font-size="43.7" fill="#525252" transform="matrix(1.00, 0.00, -0.00, -1.00, 798.0, 503.4)">a</text><text xml:space="preserve" font-family="GillSans-Light,Gill Sans" font-size="43.7" fill="#525252" transform="matrix(1.00, 0.00, -0.00, -1.00, 816.6, 503.4)">r</text><text xml:space="preserve" font-family="GillSans-Light,Gill Sans" font-size="43.7" fill="#525252" transform="matrix(1.00, 0.00, -0.00, -1.00, 834.7, 503.4)">t</text><text xml:space="preserve" font-family="GillSans-Light,Gill Sans" font-size="43.7" fill="#525252" transform="matrix(1.00, 0.00, -0.00, -1.00, 847.9, 503.4)">s</text><text xml:space="preserve" font-family="GillSans-Light,Gill Sans" font-size="43.7" fill="#525252" transform="matrix(1.00, 0.00, -0.00, -1.00, 863.3, 503.4)"> </text><text xml:space="preserve" font-family="GillSans-Light,Gill Sans" font-size="43.7" fill="#525252" transform="matrix(1.00, 0.00, -0.00, -1.00, 875.5, 503.4)">o</text><text xml:space="preserve" font-family="GillSans-Light,Gill Sans" font-size="43.7" fill="#525252" transform="matrix(1.00, 0.00, -0.00, -1.00, 899.2, 503.4)">f</text><text xml:space="preserve" font-family="GillSans-Light,Gill Sans" font-size="43.7" fill="#525252" transform="matrix(1.00, 0.00, -0.00, -1.00, 909.7, 503.4)"> </text><text xml:space="preserve" font-family="GillSans-Light,Gill Sans" font-size="43.7" fill="#525252" transform="matrix(1.00, 0.00, -0.00, -1.00, 921.8, 503.4)">a</text><text xml:space="preserve" font-family="GillSans-Light,Gill Sans" font-size="43.7" fill="#525252" transform="matrix(1.00, 0.00, -0.00, -1.00, 940.4, 503.4)">n</text><text xml:space="preserve" font-family="GillSans-Light,Gill Sans" font-size="43.7" fill="#525252" transform="matrix(1.00, 0.00, -0.00, -1.00, 961.9, 503.4)"> </text><text xml:space="preserve" font-family="GillSans-Light,Gill Sans" font-size="43.7" fill="#525252" transform="matrix(1.00, 0.00, -0.00, -1.00, 71.0, 444.6)">a</text><text xml:space="preserve" font-family="GillSans-Light,Gill Sans" font-size="43.7" fill="#525252" transform="matrix(1.00, 0.00, -0.00, -1.00, 89.6, 444.6)">p</text><text xml:space="preserve" font-family="GillSans-Light,Gill Sans" font-size="43.7" fill="#525252" transform="matrix(1.00, 0.00, -0.00, -1.00, 111.9, 444.6)">p</text><text xml:space="preserve" font-family="GillSans-Light,Gill Sans" font-size="43.7" fill="#525252" transform="matrix(1.00, 0.00, -0.00, -1.00, 134.1, 444.6)">l</text><text xml:space="preserve" font-family="GillSans-Light,Gill Sans" font-size="43.7" fill="#525252" transform="matrix(1.00, 0.00, -0.00, -1.00, 142.3, 444.6)">i</text><text xml:space="preserve" font-family="GillSans-Light,Gill Sans" font-size="43.7" fill="#525252" transform="matrix(1.00, 0.00, -0.00, -1.00, 150.6, 444.6)">c</text><text xml:space="preserve" font-family="GillSans-Light,Gill Sans" font-size="43.7" fill="#525252" transform="matrix(1.00, 0.00, -0.00, -1.00, 168.8, 444.6)">a</text><text xml:space="preserve" font-family="GillSans-Light,Gill Sans" font-size="43.7" fill="#525252" transform="matrix(1.00, 0.00, -0.00, -1.00, 187.4, 444.6)">t</text><text xml:space="preserve" font-family="GillSans-Light,Gill Sans" font-size="43.7" fill="#525252" transform="matrix(1.00, 0.00, -0.00, -1.00, 200.6, 444.6)">i</text><text xml:space="preserve" font-family="GillSans-Light,Gill Sans" font-size="43.7" fill="#525252" transform="matrix(1.00, 0.00, -0.00, -1.00, 208.8, 444.6)">o</text><text xml:space="preserve" font-family="GillSans-Light,Gill Sans" font-size="43.7" fill="#525252" transform="matrix(1.00, 0.00, -0.00, -1.00, 232.5, 444.6)">n</text><text xml:space="preserve" font-family="GillSans-Light,Gill Sans" font-size="43.7" fill="#525252" transform="matrix(1.00, 0.00, -0.00, -1.00, 253.9, 444.6)">/</text><text xml:space="preserve" font-family="GillSans-Light,Gill Sans" font-size="43.7" fill="#525252" transform="matrix(1.00, 0.00, -0.00, -1.00, 266.2, 444.6)">f</text><text xml:space="preserve" font-family="GillSans-Light,Gill Sans" font-size="43.7" fill="#525252" transform="matrix(1.00, 0.00, -0.00, -1.00, 276.7, 444.6)">u</text><text xml:space="preserve" font-family="GillSans-Light,Gill Sans" font-size="43.7" fill="#525252" transform="matrix(1.00, 0.00, -0.00, -1.00, 298.1, 444.6)">n</text><text xml:space="preserve" font-family="GillSans-Light,Gill Sans" font-size="43.7" fill="#525252" transform="matrix(1.00, 0.00, -0.00, -1.00, 319.6, 444.6)">c</text><text xml:space="preserve" font-family="GillSans-Light,Gill Sans" font-size="43.7" fill="#525252" transform="matrix(1.00, 0.00, -0.00, -1.00, 337.8, 444.6)">t</text><text xml:space="preserve" font-family="GillSans-Light,Gill Sans" font-size="43.7" fill="#525252" transform="matrix(1.00, 0.00, -0.00, -1.00, 351.0, 444.6)">i</text><text xml:space="preserve" font-family="GillSans-Light,Gill Sans" font-size="43.7" fill="#525252" transform="matrix(1.00, 0.00, -0.00, -1.00, 359.2, 444.6)">o</text><text xml:space="preserve" font-family="GillSans-Light,Gill Sans" font-size="43.7" fill="#525252" transform="matrix(1.00, 0.00, -0.00, -1.00, 382.9, 444.6)">n</text><text xml:space="preserve" font-family="GillSans-Light,Gill Sans" font-size="43.7" fill="#525252" transform="matrix(1.00, 0.00, -0.00, -1.00, 404.3, 444.6)">a</text><text xml:space="preserve" font-family="GillSans-Light,Gill Sans" font-size="43.7" fill="#525252" transform="matrix(1.00, 0.00, -0.00, -1.00, 422.9, 444.6)">l</text><text xml:space="preserve" font-family="GillSans-Light,Gill Sans" font-size="43.7" fill="#525252" transform="matrix(1.00, 0.00, -0.00, -1.00, 431.2, 444.6)">i</text><text xml:space="preserve" font-family="GillSans-Light,Gill Sans" font-size="43.7" fill="#525252" transform="matrix(1.00, 0.00, -0.00, -1.00, 439.4, 444.6)">t</text><text xml:space="preserve" font-family="GillSans-Light,Gill Sans" font-size="43.7" fill="#525252" transform="matrix(1.00, 0.00, -0.00, -1.00, 452.5, 444.6)">y</text><text xml:space="preserve" font-family="GillSans-Light,Gill Sans" font-size="35.8" fill="#525252" transform="matrix(1.00, 0.00, -0.00, -1.00, 32.0, 344.2)">•</text><text xml:space="preserve" font-family="GillSans-Light,Gill Sans" font-size="43.7" fill="#525252" transform="matrix(1.00, 0.00, -0.00, -1.00, 71.0, 342.1)">M</text><text xml:space="preserve" font-family="GillSans-Light,Gill Sans" font-size="43.7" fill="#525252" transform="matrix(1.00, 0.00, -0.00, -1.00, 105.1, 342.1)">a</text><text xml:space="preserve" font-family="GillSans-Light,Gill Sans" font-size="43.7" fill="#525252" transform="matrix(1.00, 0.00, -0.00, -1.00, 123.7, 342.1)">k</text><text xml:space="preserve" font-family="GillSans-Light,Gill Sans" font-size="43.7" fill="#525252" transform="matrix(1.00, 0.00, -0.00, -1.00, 141.9, 342.1)">e</text><text xml:space="preserve" font-family="GillSans-Light,Gill Sans" font-size="43.7" fill="#525252" transform="matrix(1.00, 0.00, -0.00, -1.00, 162.8, 342.1)">s</text><text xml:space="preserve" font-family="GillSans-Light,Gill Sans" font-size="43.7" fill="#525252" transform="matrix(1.00, 0.00, -0.00, -1.00, 178.3, 342.1)"> </text><text xml:space="preserve" font-family="GillSans-Light,Gill Sans" font-size="43.7" fill="#525252" transform="matrix(1.00, 0.00, -0.00, -1.00, 190.4, 342.1)">c</text><text xml:space="preserve" font-family="GillSans-Light,Gill Sans" font-size="43.7" fill="#525252" transform="matrix(1.00, 0.00, -0.00, -1.00, 208.7, 342.1)">o</text><text xml:space="preserve" font-family="GillSans-Light,Gill Sans" font-size="43.7" fill="#525252" transform="matrix(1.00, 0.00, -0.00, -1.00, 232.4, 342.1)">d</text><text xml:space="preserve" font-family="GillSans-Light,Gill Sans" font-size="43.7" fill="#525252" transform="matrix(1.00, 0.00, -0.00, -1.00, 254.6, 342.1)">e</text><text xml:space="preserve" font-family="GillSans-Light,Gill Sans" font-size="43.7" fill="#525252" transform="matrix(1.00, 0.00, -0.00, -1.00, 275.6, 342.1)"> </text><text xml:space="preserve" font-family="GillSans-Light,Gill Sans" font-size="43.7" fill="#525252" transform="matrix(1.00, 0.00, -0.00, -1.00, 287.7, 342.1)">m</text><text xml:space="preserve" font-family="GillSans-Light,Gill Sans" font-size="43.7" fill="#525252" transform="matrix(1.00, 0.00, -0.00, -1.00, 321.4, 342.1)">o</text><text xml:space="preserve" font-family="GillSans-Light,Gill Sans" font-size="43.7" fill="#525252" transform="matrix(1.00, 0.00, -0.00, -1.00, 345.1, 342.1)">r</text><text xml:space="preserve" font-family="GillSans-Light,Gill Sans" font-size="43.7" fill="#525252" transform="matrix(1.00, 0.00, -0.00, -1.00, 359.6, 342.1)">e</text><text xml:space="preserve" font-family="GillSans-Light,Gill Sans" font-size="43.7" fill="#525252" transform="matrix(1.00, 0.00, -0.00, -1.00, 380.6, 342.1)"> </text><text xml:space="preserve" font-family="GillSans-Light,Gill Sans" font-size="43.7" fill="#525252" transform="matrix(1.00, 0.00, -0.00, -1.00, 392.7, 342.1)">m</text><text xml:space="preserve" font-family="GillSans-Light,Gill Sans" font-size="43.7" fill="#525252" transform="matrix(1.00, 0.00, -0.00, -1.00, 426.4, 342.1)">a</text><text xml:space="preserve" font-family="GillSans-Light,Gill Sans" font-size="43.7" fill="#525252" transform="matrix(1.00, 0.00, -0.00, -1.00, 445.0, 342.1)">i</text><text xml:space="preserve" font-family="GillSans-Light,Gill Sans" font-size="43.7" fill="#525252" transform="matrix(1.00, 0.00, -0.00, -1.00, 453.2, 342.1)">n</text><text xml:space="preserve" font-family="GillSans-Light,Gill Sans" font-size="43.7" fill="#525252" transform="matrix(1.00, 0.00, -0.00, -1.00, 474.7, 342.1)">t</text><text xml:space="preserve" font-family="GillSans-Light,Gill Sans" font-size="43.7" fill="#525252" transform="matrix(1.00, 0.00, -0.00, -1.00, 487.8, 342.1)">a</text><text xml:space="preserve" font-family="GillSans-Light,Gill Sans" font-size="43.7" fill="#525252" transform="matrix(1.00, 0.00, -0.00, -1.00, 506.5, 342.1)">i</text><text xml:space="preserve" font-family="GillSans-Light,Gill Sans" font-size="43.7" fill="#525252" transform="matrix(1.00, 0.00, -0.00, -1.00, 514.7, 342.1)">n</text><text xml:space="preserve" font-family="GillSans-Light,Gill Sans" font-size="43.7" fill="#525252" transform="matrix(1.00, 0.00, -0.00, -1.00, 536.1, 342.1)">a</text><text xml:space="preserve" font-family="GillSans-Light,Gill Sans" font-size="43.7" fill="#525252" transform="matrix(1.00, 0.00, -0.00, -1.00, 554.8, 342.1)">b</text><text xml:space="preserve" font-family="GillSans-Light,Gill Sans" font-size="43.7" fill="#525252" transform="matrix(1.00, 0.00, -0.00, -1.00, 576.4, 342.1)">l</text><text xml:space="preserve" font-family="GillSans-Light,Gill Sans" font-size="43.7" fill="#525252" transform="matrix(1.00, 0.00, -0.00, -1.00, 584.6, 342.1)">e</text><text xml:space="preserve" font-family="GillSans-Light,Gill Sans" font-size="43.7" fill="#525252" transform="matrix(1.00, 0.00, -0.00, -1.00, 606.8, 342.1)">,</text><text xml:space="preserve" font-family="GillSans-Light,Gill Sans" font-size="43.7" fill="#525252" transform="matrix(1.00, 0.00, -0.00, -1.00, 611.0, 342.1)"> </text><text xml:space="preserve" font-family="GillSans-Light,Gill Sans" font-size="43.7" fill="#525252" transform="matrix(1.00, 0.00, -0.00, -1.00, 623.2, 342.1)">t</text><text xml:space="preserve" font-family="GillSans-Light,Gill Sans" font-size="43.7" fill="#525252" transform="matrix(1.00, 0.00, -0.00, -1.00, 636.3, 342.1)">e</text><text xml:space="preserve" font-family="GillSans-Light,Gill Sans" font-size="43.7" fill="#525252" transform="matrix(1.00, 0.00, -0.00, -1.00, 657.3, 342.1)">s</text><text xml:space="preserve" font-family="GillSans-Light,Gill Sans" font-size="43.7" fill="#525252" transform="matrix(1.00, 0.00, -0.00, -1.00, 672.8, 342.1)">t</text><text xml:space="preserve" font-family="GillSans-Light,Gill Sans" font-size="43.7" fill="#525252" transform="matrix(1.00, 0.00, -0.00, -1.00, 685.9, 342.1)">a</text><text xml:space="preserve" font-family="GillSans-Light,Gill Sans" font-size="43.7" fill="#525252" transform="matrix(1.00, 0.00, -0.00, -1.00, 704.6, 342.1)">b</text><text xml:space="preserve" font-family="GillSans-Light,Gill Sans" font-size="43.7" fill="#525252" transform="matrix(1.00, 0.00, -0.00, -1.00, 726.2, 342.1)">l</text><text xml:space="preserve" font-family="GillSans-Light,Gill Sans" font-size="43.7" fill="#525252" transform="matrix(1.00, 0.00, -0.00, -1.00, 734.4, 342.1)">e</text><text xml:space="preserve" font-family="GillSans-Light,Gill Sans" font-size="43.7" fill="#525252" transform="matrix(1.00, 0.00, -0.00, -1.00, 756.6, 342.1)">,</text><text xml:space="preserve" font-family="GillSans-Light,Gill Sans" font-size="43.7" fill="#525252" transform="matrix(1.00, 0.00, -0.00, -1.00, 760.8, 342.1)"> </text><text xml:space="preserve" font-family="GillSans-Light,Gill Sans" font-size="43.7" fill="#525252" transform="matrix(1.00, 0.00, -0.00, -1.00, 773.0, 342.1)">r</text><text xml:space="preserve" font-family="GillSans-Light,Gill Sans" font-size="43.7" fill="#525252" transform="matrix(1.00, 0.00, -0.00, -1.00, 787.5, 342.1)">e</text><text xml:space="preserve" font-family="GillSans-Light,Gill Sans" font-size="43.7" fill="#525252" transform="matrix(1.00, 0.00, -0.00, -1.00, 808.5, 342.1)">u</text><text xml:space="preserve" font-family="GillSans-Light,Gill Sans" font-size="43.7" fill="#525252" transform="matrix(1.00, 0.00, -0.00, -1.00, 829.9, 342.1)">s</text><text xml:space="preserve" font-family="GillSans-Light,Gill Sans" font-size="43.7" fill="#525252" transform="matrix(1.00, 0.00, -0.00, -1.00, 845.4, 342.1)">a</text><text xml:space="preserve" font-family="GillSans-Light,Gill Sans" font-size="43.7" fill="#525252" transform="matrix(1.00, 0.00, -0.00, -1.00, 864.0, 342.1)">b</text><text xml:space="preserve" font-family="GillSans-Light,Gill Sans" font-size="43.7" fill="#525252" transform="matrix(1.00, 0.00, -0.00, -1.00, 885.6, 342.1)">l</text><text xml:space="preserve" font-family="GillSans-Light,Gill Sans" font-size="43.7" fill="#525252" transform="matrix(1.00, 0.00, -0.00, -1.00, 893.8, 342.1)">e</text><text xml:space="preserve" font-family="GillSans-Light,Gill Sans" font-size="43.7" fill="#525252" transform="matrix(1.00, 0.00, -0.00, -1.00, 914.8, 342.1)"> </text><text xml:space="preserve" font-family="GillSans-Light,Gill Sans" font-size="43.7" fill="#525252" transform="matrix(1.00, 0.00, -0.00, -1.00, 926.9, 342.1)">a</text><text xml:space="preserve" font-family="GillSans-Light,Gill Sans" font-size="43.7" fill="#525252" transform="matrix(1.00, 0.00, -0.00, -1.00, 945.5, 342.1)">n</text><text xml:space="preserve" font-family="GillSans-Light,Gill Sans" font-size="43.7" fill="#525252" transform="matrix(1.00, 0.00, -0.00, -1.00, 967.0, 342.1)">d</text><text xml:space="preserve" font-family="GillSans-Light,Gill Sans" font-size="43.7" fill="#525252" transform="matrix(1.00, 0.00, -0.00, -1.00, 989.2, 342.1)"> </text><text xml:space="preserve" font-family="GillSans-Light,Gill Sans" font-size="43.7" fill="#525252" transform="matrix(1.00, 0.00, -0.00, -1.00, 71.0, 283.3)">s</text><text xml:space="preserve" font-family="GillSans-Light,Gill Sans" font-size="43.7" fill="#525252" transform="matrix(1.00, 0.00, -0.00, -1.00, 86.4, 283.3)">h</text><text xml:space="preserve" font-family="GillSans-Light,Gill Sans" font-size="43.7" fill="#525252" transform="matrix(1.00, 0.00, -0.00, -1.00, 107.9, 283.3)">a</text><text xml:space="preserve" font-family="GillSans-Light,Gill Sans" font-size="43.7" fill="#525252" transform="matrix(1.00, 0.00, -0.00, -1.00, 126.5, 283.3)">r</text><text xml:space="preserve" font-family="GillSans-Light,Gill Sans" font-size="43.7" fill="#525252" transform="matrix(1.00, 0.00, -0.00, -1.00, 141.0, 283.3)">e</text><text xml:space="preserve" font-family="GillSans-Light,Gill Sans" font-size="43.7" fill="#525252" transform="matrix(1.00, 0.00, -0.00, -1.00, 162.0, 283.3)">a</text><text xml:space="preserve" font-family="GillSans-Light,Gill Sans" font-size="43.7" fill="#525252" transform="matrix(1.00, 0.00, -0.00, -1.00, 180.6, 283.3)">b</text><text xml:space="preserve" font-family="GillSans-Light,Gill Sans" font-size="43.7" fill="#525252" transform="matrix(1.00, 0.00, -0.00, -1.00, 202.2, 283.3)">l</text><text xml:space="preserve" font-family="GillSans-Light,Gill Sans" font-size="43.7" fill="#525252" transform="matrix(1.00, 0.00, -0.00, -1.00, 210.4, 283.3)">e</text><text xml:space="preserve" font-family="GillSans-Light,Gill Sans" font-size="35.8" fill="#525252" transform="matrix(1.00, 0.00, -0.00, -1.00, 32.0, 182.9)">•</text><text xml:space="preserve" font-family="GillSans-Light,Gill Sans" font-size="43.7" fill="#525252" transform="matrix(1.00, 0.00, -0.00, -1.00, 71.0, 180.8)">S</text><text xml:space="preserve" font-family="GillSans-Light,Gill Sans" font-size="43.7" fill="#525252" transform="matrix(1.00, 0.00, -0.00, -1.00, 91.5, 180.8)">u</text><text xml:space="preserve" font-family="GillSans-Light,Gill Sans" font-size="43.7" fill="#525252" transform="matrix(1.00, 0.00, -0.00, -1.00, 112.9, 180.8)">p</text><text xml:space="preserve" font-family="GillSans-Light,Gill Sans" font-size="43.7" fill="#525252" transform="matrix(1.00, 0.00, -0.00, -1.00, 135.2, 180.8)">p</text><text xml:space="preserve" font-family="GillSans-Light,Gill Sans" font-size="43.7" fill="#525252" transform="matrix(1.00, 0.00, -0.00, -1.00, 157.4, 180.8)">o</text><text xml:space="preserve" font-family="GillSans-Light,Gill Sans" font-size="43.7" fill="#525252" transform="matrix(1.00, 0.00, -0.00, -1.00, 181.1, 180.8)">r</text><text xml:space="preserve" font-family="GillSans-Light,Gill Sans" font-size="43.7" fill="#525252" transform="matrix(1.00, 0.00, -0.00, -1.00, 199.2, 180.8)">t</text><text xml:space="preserve" font-family="GillSans-Light,Gill Sans" font-size="43.7" fill="#525252" transform="matrix(1.00, 0.00, -0.00, -1.00, 212.3, 180.8)"> </text><text xml:space="preserve" font-family="GillSans-Light,Gill Sans" font-size="43.7" fill="#525252" transform="matrix(1.00, 0.00, -0.00, -1.00, 224.5, 180.8)">f</text><text xml:space="preserve" font-family="GillSans-Light,Gill Sans" font-size="43.7" fill="#525252" transform="matrix(1.00, 0.00, -0.00, -1.00, 234.6, 180.8)">o</text><text xml:space="preserve" font-family="GillSans-Light,Gill Sans" font-size="43.7" fill="#525252" transform="matrix(1.00, 0.00, -0.00, -1.00, 258.2, 180.8)">r</text><text xml:space="preserve" font-family="GillSans-Light,Gill Sans" font-size="43.7" fill="#525252" transform="matrix(1.00, 0.00, -0.00, -1.00, 272.8, 180.8)"> </text><text xml:space="preserve" font-family="GillSans-Light,Gill Sans" font-size="43.7" fill="#525252" transform="matrix(1.00, 0.00, -0.00, -1.00, 284.9, 180.8)">d</text><text xml:space="preserve" font-family="GillSans-Light,Gill Sans" font-size="43.7" fill="#525252" transform="matrix(1.00, 0.00, -0.00, -1.00, 307.2, 180.8)">e</text><text xml:space="preserve" font-family="GillSans-Light,Gill Sans" font-size="43.7" fill="#525252" transform="matrix(1.00, 0.00, -0.00, -1.00, 328.1, 180.8)">p</text><text xml:space="preserve" font-family="GillSans-Light,Gill Sans" font-size="43.7" fill="#525252" transform="matrix(1.00, 0.00, -0.00, -1.00, 350.4, 180.8)">e</text><text xml:space="preserve" font-family="GillSans-Light,Gill Sans" font-size="43.7" fill="#525252" transform="matrix(1.00, 0.00, -0.00, -1.00, 371.3, 180.8)">n</text><text xml:space="preserve" font-family="GillSans-Light,Gill Sans" font-size="43.7" fill="#525252" transform="matrix(1.00, 0.00, -0.00, -1.00, 392.8, 180.8)">d</text><text xml:space="preserve" font-family="GillSans-Light,Gill Sans" font-size="43.7" fill="#525252" transform="matrix(1.00, 0.00, -0.00, -1.00, 415.0, 180.8)">e</text><text xml:space="preserve" font-family="GillSans-Light,Gill Sans" font-size="43.7" fill="#525252" transform="matrix(1.00, 0.00, -0.00, -1.00, 436.0, 180.8)">n</text><text xml:space="preserve" font-family="GillSans-Light,Gill Sans" font-size="43.7" fill="#525252" transform="matrix(1.00, 0.00, -0.00, -1.00, 457.4, 180.8)">c</text><text xml:space="preserve" font-family="GillSans-Light,Gill Sans" font-size="43.7" fill="#525252" transform="matrix(1.00, 0.00, -0.00, -1.00, 475.6, 180.8)">i</text><text xml:space="preserve" font-family="GillSans-Light,Gill Sans" font-size="43.7" fill="#525252" transform="matrix(1.00, 0.00, -0.00, -1.00, 483.8, 180.8)">e</text><text xml:space="preserve" font-family="GillSans-Light,Gill Sans" font-size="43.7" fill="#525252" transform="matrix(1.00, 0.00, -0.00, -1.00, 504.8, 180.8)">s</text><text xml:space="preserve" font-family="GillSans-Light,Gill Sans" font-size="43.7" fill="#525252" transform="matrix(1.00, 0.00, -0.00, -1.00, 520.2, 180.8)"> </text><text xml:space="preserve" font-family="GillSans-Light,Gill Sans" font-size="35.8" fill="#525252" transform="matrix(1.00, 0.00, -0.00, -1.00, 32.0, 80.4)">•</text><text xml:space="preserve" font-family="GillSans-Light,Gill Sans" font-size="43.7" fill="#525252" transform="matrix(1.00, 0.00, -0.00, -1.00, 71.0, 78.3)">T</text><text xml:space="preserve" font-family="GillSans-Light,Gill Sans" font-size="43.7" fill="#525252" transform="matrix(1.00, 0.00, -0.00, -1.00, 96.0, 78.3)">h</text><text xml:space="preserve" font-family="GillSans-Light,Gill Sans" font-size="43.7" fill="#525252" transform="matrix(1.00, 0.00, -0.00, -1.00, 117.4, 78.3)">e</text><text xml:space="preserve" font-family="GillSans-Light,Gill Sans" font-size="43.7" fill="#525252" transform="matrix(1.00, 0.00, -0.00, -1.00, 138.4, 78.3)"> </text><text xml:space="preserve" font-family="GillSans-Light,Gill Sans" font-size="43.7" fill="#525252" transform="matrix(1.00, 0.00, -0.00, -1.00, 150.5, 78.3)">m</text><text xml:space="preserve" font-family="GillSans-Light,Gill Sans" font-size="43.7" fill="#525252" transform="matrix(1.00, 0.00, -0.00, -1.00, 184.2, 78.3)">a</text><text xml:space="preserve" font-family="GillSans-Light,Gill Sans" font-size="43.7" fill="#525252" transform="matrix(1.00, 0.00, -0.00, -1.00, 202.8, 78.3)">i</text><text xml:space="preserve" font-family="GillSans-Light,Gill Sans" font-size="43.7" fill="#525252" transform="matrix(1.00, 0.00, -0.00, -1.00, 211.1, 78.3)">n</text><text xml:space="preserve" font-family="GillSans-Light,Gill Sans" font-size="43.7" fill="#525252" transform="matrix(1.00, 0.00, -0.00, -1.00, 232.5, 78.3)"> </text><text xml:space="preserve" font-family="GillSans-Light,Gill Sans" font-size="43.7" fill="#525252" transform="matrix(1.00, 0.00, -0.00, -1.00, 244.6, 78.3)">a</text><text xml:space="preserve" font-family="GillSans-Light,Gill Sans" font-size="43.7" fill="#525252" transform="matrix(1.00, 0.00, -0.00, -1.00, 263.3, 78.3)">p</text><text xml:space="preserve" font-family="GillSans-Light,Gill Sans" font-size="43.7" fill="#525252" transform="matrix(1.00, 0.00, -0.00, -1.00, 285.5, 78.3)">p</text><text xml:space="preserve" font-family="GillSans-Light,Gill Sans" font-size="43.7" fill="#525252" transform="matrix(1.00, 0.00, -0.00, -1.00, 307.8, 78.3)">l</text><text xml:space="preserve" font-family="GillSans-Light,Gill Sans" font-size="43.7" fill="#525252" transform="matrix(1.00, 0.00, -0.00, -1.00, 316.0, 78.3)">i</text><text xml:space="preserve" font-family="GillSans-Light,Gill Sans" font-size="43.7" fill="#525252" transform="matrix(1.00, 0.00, -0.00, -1.00, 324.2, 78.3)">c</text><text xml:space="preserve" font-family="GillSans-Light,Gill Sans" font-size="43.7" fill="#525252" transform="matrix(1.00, 0.00, -0.00, -1.00, 342.4, 78.3)">a</text><text xml:space="preserve" font-family="GillSans-Light,Gill Sans" font-size="43.7" fill="#525252" transform="matrix(1.00, 0.00, -0.00, -1.00, 361.1, 78.3)">t</text><text xml:space="preserve" font-family="GillSans-Light,Gill Sans" font-size="43.7" fill="#525252" transform="matrix(1.00, 0.00, -0.00, -1.00, 374.3, 78.3)">i</text><text xml:space="preserve" font-family="GillSans-Light,Gill Sans" font-size="43.7" fill="#525252" transform="matrix(1.00, 0.00, -0.00, -1.00, 382.5, 78.3)">o</text><text xml:space="preserve" font-family="GillSans-Light,Gill Sans" font-size="43.7" fill="#525252" transform="matrix(1.00, 0.00, -0.00, -1.00, 406.2, 78.3)">n</text><text xml:space="preserve" font-family="GillSans-Light,Gill Sans" font-size="43.7" fill="#525252" transform="matrix(1.00, 0.00, -0.00, -1.00, 427.6, 78.3)"> </text><text xml:space="preserve" font-family="GillSans-Light,Gill Sans" font-size="43.7" fill="#525252" transform="matrix(1.00, 0.00, -0.00, -1.00, 439.7, 78.3)">i</text><text xml:space="preserve" font-family="GillSans-Light,Gill Sans" font-size="43.7" fill="#525252" transform="matrix(1.00, 0.00, -0.00, -1.00, 447.9, 78.3)">s</text><text xml:space="preserve" font-family="GillSans-Light,Gill Sans" font-size="43.7" fill="#525252" transform="matrix(1.00, 0.00, -0.00, -1.00, 463.4, 78.3)"> </text><text xml:space="preserve" font-family="GillSans-Light,Gill Sans" font-size="43.7" fill="#525252" transform="matrix(1.00, 0.00, -0.00, -1.00, 475.5, 78.3)">a</text><text xml:space="preserve" font-family="GillSans-Light,Gill Sans" font-size="43.7" fill="#525252" transform="matrix(1.00, 0.00, -0.00, -1.00, 494.2, 78.3)"> </text><text xml:space="preserve" font-family="GillSans-Light,Gill Sans" font-size="43.7" fill="#525252" transform="matrix(1.00, 0.00, -0.00, -1.00, 506.3, 78.3)">m</text><text xml:space="preserve" font-family="GillSans-Light,Gill Sans" font-size="43.7" fill="#525252" transform="matrix(1.00, 0.00, -0.00, -1.00, 540.0, 78.3)">o</text><text xml:space="preserve" font-family="GillSans-Light,Gill Sans" font-size="43.7" fill="#525252" transform="matrix(1.00, 0.00, -0.00, -1.00, 563.7, 78.3)">d</text><text xml:space="preserve" font-family="GillSans-Light,Gill Sans" font-size="43.7" fill="#525252" transform="matrix(1.00, 0.00, -0.00, -1.00, 586.0, 78.3)">u</text><text xml:space="preserve" font-family="GillSans-Light,Gill Sans" font-size="43.7" fill="#525252" transform="matrix(1.00, 0.00, -0.00, -1.00, 607.4, 78.3)">l</text><text xml:space="preserve" font-family="GillSans-Light,Gill Sans" font-size="43.7" fill="#525252" transform="matrix(1.00, 0.00, -0.00, -1.00, 615.6, 78.3)">e</text></g></svg>