<?xml version="1.0" encoding="UTF-8" standalone="no"?><svg xmlns="http://www.w3.org/2000/svg" xmlns:xlink="http://www.w3.org/1999/xlink" clip-rule="evenodd" stroke-miterlimit="10" viewBox="0 0 1024 768"><desc>SVG generated by Keynote</desc><defs></defs><g transform="matrix(1.00, 0.00, -0.00, -1.00, 0.0, 768.0)"><g><clipPath id="clip0x600002cb8e40"><path d="M 0.0 768.0 L 1024.0 768.0 L 1024.0 0.0 L 0.0 0.0 Z M 0.0 768.0 "></path></clipPath><g clip-path="url(#clip0x600002cb8e40)"><image xlink:href="../../BE03AB4A-F5E0-4685-80C7-20DCBC62631F/assets/574DCE55A4CF432400CBDDDE1DFDFC9B.jpeg" width="2048.00" height="1536.00" transform="matrix(0.50, 0.00, -0.00, -0.50, 0.0, 768.0)"></image></g></g><text xml:space="preserve" font-family="GillSans-Light,Gill Sans" font-size="72.0" fill="#525252" transform="matrix(1.00, 0.00, -0.00, -1.00, 351.0, 628.2)">M</text><text xml:space="preserve" font-family="GillSans-Light,Gill Sans" font-size="72.0" fill="#525252" transform="matrix(1.00, 0.00, -0.00, -1.00, 407.2, 628.2)">O</text><text xml:space="preserve" font-family="GillSans-Light,Gill Sans" font-size="72.0" fill="#525252" transform="matrix(1.00, 0.00, -0.00, -1.00, 466.5, 628.2)">D</text><text xml:space="preserve" font-family="GillSans-Light,Gill Sans" font-size="72.0" fill="#525252" transform="matrix(1.00, 0.00, -0.00, -1.00, 519.8, 628.2)">U</text><text xml:space="preserve" font-family="GillSans-Light,Gill Sans" font-size="72.0" fill="#525252" transform="matrix(1.00, 0.00, -0.00, -1.00, 570.0, 628.2)">L</text><text xml:space="preserve" font-family="GillSans-Light,Gill Sans" font-size="72.0" fill="#525252" transform="matrix(1.00, 0.00, -0.00, -1.00, 603.8, 628.2)">E</text><text xml:space="preserve" font-family="GillSans-Light,Gill Sans" font-size="72.0" fill="#525252" transform="matrix(1.00, 0.00, -0.00, -1.00, 639.1, 628.2)">S</text><path d="M 80.2 396.2 L 502.8 396.2 L 502.8 375.2 L 80.2 375.2 Z M 80.2 396.2 " fill="#000000" fill-opacity="0.00"></path><text xml:space="preserve" font-family="Menlo-Bold,Menlo" font-weight="bold" font-size="18.0" fill="#011892" transform="matrix(1.00, 0.00, -0.00, -1.00, 80.2, 379.5)">v</text><text xml:space="preserve" font-family="Menlo-Bold,Menlo" font-weight="bold" font-size="18.0" fill="#011892" transform="matrix(1.00, 0.00, -0.00, -1.00, 91.0, 379.5)">a</text><text xml:space="preserve" font-family="Menlo-Bold,Menlo" font-weight="bold" font-size="18.0" fill="#011892" transform="matrix(1.00, 0.00, -0.00, -1.00, 101.9, 379.5)">r</text><text xml:space="preserve" font-family="Menlo-Bold,Menlo" font-weight="bold" font-size="18.0" fill="#011892" transform="matrix(1.00, 0.00, -0.00, -1.00, 112.7, 379.5)"> </text><text xml:space="preserve" font-family="Menlo-BoldItalic,Menlo" font-style="italic" font-weight="bold" font-size="18.0" fill="#7A238C" transform="matrix(1.00, 0.00, -0.00, -1.00, 123.5, 379.5)">a</text><text xml:space="preserve" font-family="Menlo-BoldItalic,Menlo" font-style="italic" font-weight="bold" font-size="18.0" fill="#7A238C" transform="matrix(1.00, 0.00, -0.00, -1.00, 134.4, 379.5)">p</text><text xml:space="preserve" font-family="Menlo-BoldItalic,Menlo" font-style="italic" font-weight="bold" font-size="18.0" fill="#7A238C" transform="matrix(1.00, 0.00, -0.00, -1.00, 145.2, 379.5)">p</text><text xml:space="preserve" font-family="Menlo-BoldItalic,Menlo" font-style="italic" font-weight="bold" font-size="18.0" fill="#7A238C" transform="matrix(1.00, 0.00, -0.00, -1.00, 156.0, 379.5)"> </text><text xml:space="preserve" font-family="Menlo-Regular,Menlo" font-size="18.0" fill="#000000" transform="matrix(1.00, 0.00, -0.00, -1.00, 166.9, 379.5)">=</text><text xml:space="preserve" font-family="Menlo-Regular,Menlo" font-size="18.0" fill="#000000" transform="matrix(1.00, 0.00, -0.00, -1.00, 177.7, 379.5)"> </text><text xml:space="preserve" font-family="Menlo-Bold,Menlo" font-weight="bold" font-size="18.0" fill="#7A238C" transform="matrix(1.00, 0.00, -0.00, -1.00, 188.5, 379.5)">a</text><text xml:space="preserve" font-family="Menlo-Bold,Menlo" font-weight="bold" font-size="18.0" fill="#7A238C" transform="matrix(1.00, 0.00, -0.00, -1.00, 199.4, 379.5)">n</text><text xml:space="preserve" font-family="Menlo-Bold,Menlo" font-weight="bold" font-size="18.0" fill="#7A238C" transform="matrix(1.00, 0.00, -0.00, -1.00, 210.2, 379.5)">g</text><text xml:space="preserve" font-family="Menlo-Bold,Menlo" font-weight="bold" font-size="18.0" fill="#7A238C" transform="matrix(1.00, 0.00, -0.00, -1.00, 221.1, 379.5)">u</text><text xml:space="preserve" font-family="Menlo-Bold,Menlo" font-weight="bold" font-size="18.0" fill="#7A238C" transform="matrix(1.00, 0.00, -0.00, -1.00, 231.9, 379.5)">l</text><text xml:space="preserve" font-family="Menlo-Bold,Menlo" font-weight="bold" font-size="18.0" fill="#7A238C" transform="matrix(1.00, 0.00, -0.00, -1.00, 242.7, 379.5)">a</text><text xml:space="preserve" font-family="Menlo-Bold,Menlo" font-weight="bold" font-size="18.0" fill="#7A238C" transform="matrix(1.00, 0.00, -0.00, -1.00, 253.6, 379.5)">r</text><text xml:space="preserve" font-family="Menlo-Regular,Menlo" font-size="18.0" fill="#000000" transform="matrix(1.00, 0.00, -0.00, -1.00, 264.4, 379.5)">.</text><text xml:space="preserve" font-family="Menlo-Regular,Menlo" font-size="18.0" fill="#000000" transform="matrix(1.00, 0.00, -0.00, -1.00, 275.2, 379.5)">m</text><text xml:space="preserve" font-family="Menlo-Regular,Menlo" font-size="18.0" fill="#000000" transform="matrix(1.00, 0.00, -0.00, -1.00, 286.1, 379.5)">o</text><text xml:space="preserve" font-family="Menlo-Regular,Menlo" font-size="18.0" fill="#000000" transform="matrix(1.00, 0.00, -0.00, -1.00, 296.9, 379.5)">d</text><text xml:space="preserve" font-family="Menlo-Regular,Menlo" font-size="18.0" fill="#000000" transform="matrix(1.00, 0.00, -0.00, -1.00, 307.8, 379.5)">u</text><text xml:space="preserve" font-family="Menlo-Regular,Menlo" font-size="18.0" fill="#000000" transform="matrix(1.00, 0.00, -0.00, -1.00, 318.6, 379.5)">l</text><text xml:space="preserve" font-family="Menlo-Regular,Menlo" font-size="18.0" fill="#000000" transform="matrix(1.00, 0.00, -0.00, -1.00, 329.4, 379.5)">e</text><text xml:space="preserve" font-family="Menlo-Regular,Menlo" font-size="18.0" fill="#000000" transform="matrix(1.00, 0.00, -0.00, -1.00, 340.3, 379.5)">(</text><text xml:space="preserve" font-family="Menlo-Bold,Menlo" font-weight="bold" font-size="18.0" fill="#008E00" transform="matrix(1.00, 0.00, -0.00, -1.00, 351.1, 379.5)">'</text><text xml:space="preserve" font-family="Menlo-Bold,Menlo" font-weight="bold" font-size="18.0" fill="#008E00" transform="matrix(1.00, 0.00, -0.00, -1.00, 361.9, 379.5)">m</text><text xml:space="preserve" font-family="Menlo-Bold,Menlo" font-weight="bold" font-size="18.0" fill="#008E00" transform="matrix(1.00, 0.00, -0.00, -1.00, 372.8, 379.5)">y</text><text xml:space="preserve" font-family="Menlo-Bold,Menlo" font-weight="bold" font-size="18.0" fill="#008E00" transform="matrix(1.00, 0.00, -0.00, -1.00, 383.6, 379.5)">A</text><text xml:space="preserve" font-family="Menlo-Bold,Menlo" font-weight="bold" font-size="18.0" fill="#008E00" transform="matrix(1.00, 0.00, -0.00, -1.00, 394.5, 379.5)">p</text><text xml:space="preserve" font-family="Menlo-Bold,Menlo" font-weight="bold" font-size="18.0" fill="#008E00" transform="matrix(1.00, 0.00, -0.00, -1.00, 405.3, 379.5)">p</text><text xml:space="preserve" font-family="Menlo-Bold,Menlo" font-weight="bold" font-size="18.0" fill="#008E00" transform="matrix(1.00, 0.00, -0.00, -1.00, 416.1, 379.5)">'</text><text xml:space="preserve" font-family="Menlo-Regular,Menlo" font-size="18.0" fill="#D68B40" transform="matrix(1.00, 0.00, -0.00, -1.00, 427.0, 379.5)">,</text><text xml:space="preserve" font-family="Menlo-Regular,Menlo" font-size="18.0" fill="#D68B40" transform="matrix(1.00, 0.00, -0.00, -1.00, 437.8, 379.5)"> </text><text xml:space="preserve" font-family="Menlo-Regular,Menlo" font-size="18.0" fill="#000000" transform="matrix(1.00, 0.00, -0.00, -1.00, 448.6, 379.5)">[</text><text xml:space="preserve" font-family="Menlo-Regular,Menlo" font-size="18.0" fill="#000000" transform="matrix(1.00, 0.00, -0.00, -1.00, 459.5, 379.5)">]</text><text xml:space="preserve" font-family="Menlo-Regular,Menlo" font-size="18.0" fill="#000000" transform="matrix(1.00, 0.00, -0.00, -1.00, 470.3, 379.5)">)</text><text xml:space="preserve" font-family="Menlo-Regular,Menlo" font-size="18.0" fill="#D68B40" transform="matrix(1.00, 0.00, -0.00, -1.00, 481.1, 379.5)">;</text><text xml:space="preserve" font-family="Menlo-Regular,Menlo" font-size="18.0" fill="#D68B40" transform="matrix(1.00, 0.00, -0.00, -1.00, 492.0, 379.5)"> </text><path d="M 80.2 255.8 L 459.5 255.8 L 459.5 234.8 L 80.2 234.8 Z M 80.2 255.8 " fill="#000000" fill-opacity="0.00"></path><text xml:space="preserve" font-family="Menlo-Bold,Menlo" font-weight="bold" font-size="18.0" fill="#011892" transform="matrix(1.00, 0.00, -0.00, -1.00, 80.2, 239.0)">v</text><text xml:space="preserve" font-family="Menlo-Bold,Menlo" font-weight="bold" font-size="18.0" fill="#011892" transform="matrix(1.00, 0.00, -0.00, -1.00, 91.0, 239.0)">a</text><text xml:space="preserve" font-family="Menlo-Bold,Menlo" font-weight="bold" font-size="18.0" fill="#011892" transform="matrix(1.00, 0.00, -0.00, -1.00, 101.9, 239.0)">r</text><text xml:space="preserve" font-family="Menlo-Bold,Menlo" font-weight="bold" font-size="18.0" fill="#011892" transform="matrix(1.00, 0.00, -0.00, -1.00, 112.7, 239.0)"> </text><text xml:space="preserve" font-family="Menlo-BoldItalic,Menlo" font-style="italic" font-weight="bold" font-size="18.0" fill="#7A238C" transform="matrix(1.00, 0.00, -0.00, -1.00, 123.5, 239.0)">a</text><text xml:space="preserve" font-family="Menlo-BoldItalic,Menlo" font-style="italic" font-weight="bold" font-size="18.0" fill="#7A238C" transform="matrix(1.00, 0.00, -0.00, -1.00, 134.4, 239.0)">p</text><text xml:space="preserve" font-family="Menlo-BoldItalic,Menlo" font-style="italic" font-weight="bold" font-size="18.0" fill="#7A238C" transform="matrix(1.00, 0.00, -0.00, -1.00, 145.2, 239.0)">p</text><text xml:space="preserve" font-family="Menlo-BoldItalic,Menlo" font-style="italic" font-weight="bold" font-size="18.0" fill="#7A238C" transform="matrix(1.00, 0.00, -0.00, -1.00, 156.0, 239.0)"> </text><text xml:space="preserve" font-family="Menlo-Regular,Menlo" font-size="18.0" fill="#000000" transform="matrix(1.00, 0.00, -0.00, -1.00, 166.9, 239.0)">=</text><text xml:space="preserve" font-family="Menlo-Regular,Menlo" font-size="18.0" fill="#000000" transform="matrix(1.00, 0.00, -0.00, -1.00, 177.7, 239.0)"> </text><text xml:space="preserve" font-family="Menlo-Bold,Menlo" font-weight="bold" font-size="18.0" fill="#7A238C" transform="matrix(1.00, 0.00, -0.00, -1.00, 188.5, 239.0)">a</text><text xml:space="preserve" font-family="Menlo-Bold,Menlo" font-weight="bold" font-size="18.0" fill="#7A238C" transform="matrix(1.00, 0.00, -0.00, -1.00, 199.4, 239.0)">n</text><text xml:space="preserve" font-family="Menlo-Bold,Menlo" font-weight="bold" font-size="18.0" fill="#7A238C" transform="matrix(1.00, 0.00, -0.00, -1.00, 210.2, 239.0)">g</text><text xml:space="preserve" font-family="Menlo-Bold,Menlo" font-weight="bold" font-size="18.0" fill="#7A238C" transform="matrix(1.00, 0.00, -0.00, -1.00, 221.1, 239.0)">u</text><text xml:space="preserve" font-family="Menlo-Bold,Menlo" font-weight="bold" font-size="18.0" fill="#7A238C" transform="matrix(1.00, 0.00, -0.00, -1.00, 231.9, 239.0)">l</text><text xml:space="preserve" font-family="Menlo-Bold,Menlo" font-weight="bold" font-size="18.0" fill="#7A238C" transform="matrix(1.00, 0.00, -0.00, -1.00, 242.7, 239.0)">a</text><text xml:space="preserve" font-family="Menlo-Bold,Menlo" font-weight="bold" font-size="18.0" fill="#7A238C" transform="matrix(1.00, 0.00, -0.00, -1.00, 253.6, 239.0)">r</text><text xml:space="preserve" font-family="Menlo-Regular,Menlo" font-size="18.0" fill="#000000" transform="matrix(1.00, 0.00, -0.00, -1.00, 264.4, 239.0)">.</text><text xml:space="preserve" font-family="Menlo-Regular,Menlo" font-size="18.0" fill="#000000" transform="matrix(1.00, 0.00, -0.00, -1.00, 275.2, 239.0)">m</text><text xml:space="preserve" font-family="Menlo-Regular,Menlo" font-size="18.0" fill="#000000" transform="matrix(1.00, 0.00, -0.00, -1.00, 286.1, 239.0)">o</text><text xml:space="preserve" font-family="Menlo-Regular,Menlo" font-size="18.0" fill="#000000" transform="matrix(1.00, 0.00, -0.00, -1.00, 296.9, 239.0)">d</text><text xml:space="preserve" font-family="Menlo-Regular,Menlo" font-size="18.0" fill="#000000" transform="matrix(1.00, 0.00, -0.00, -1.00, 307.8, 239.0)">u</text><text xml:space="preserve" font-family="Menlo-Regular,Menlo" font-size="18.0" fill="#000000" transform="matrix(1.00, 0.00, -0.00, -1.00, 318.6, 239.0)">l</text><text xml:space="preserve" font-family="Menlo-Regular,Menlo" font-size="18.0" fill="#000000" transform="matrix(1.00, 0.00, -0.00, -1.00, 329.4, 239.0)">e</text><text xml:space="preserve" font-family="Menlo-Regular,Menlo" font-size="18.0" fill="#000000" transform="matrix(1.00, 0.00, -0.00, -1.00, 340.3, 239.0)">(</text><text xml:space="preserve" font-family="Menlo-Bold,Menlo" font-weight="bold" font-size="18.0" fill="#008E00" transform="matrix(1.00, 0.00, -0.00, -1.00, 351.1, 239.0)">'</text><text xml:space="preserve" font-family="Menlo-Bold,Menlo" font-weight="bold" font-size="18.0" fill="#008E00" transform="matrix(1.00, 0.00, -0.00, -1.00, 361.9, 239.0)">m</text><text xml:space="preserve" font-family="Menlo-Bold,Menlo" font-weight="bold" font-size="18.0" fill="#008E00" transform="matrix(1.00, 0.00, -0.00, -1.00, 372.8, 239.0)">y</text><text xml:space="preserve" font-family="Menlo-Bold,Menlo" font-weight="bold" font-size="18.0" fill="#008E00" transform="matrix(1.00, 0.00, -0.00, -1.00, 383.6, 239.0)">A</text><text xml:space="preserve" font-family="Menlo-Bold,Menlo" font-weight="bold" font-size="18.0" fill="#008E00" transform="matrix(1.00, 0.00, -0.00, -1.00, 394.5, 239.0)">p</text><text xml:space="preserve" font-family="Menlo-Bold,Menlo" font-weight="bold" font-size="18.0" fill="#008E00" transform="matrix(1.00, 0.00, -0.00, -1.00, 405.3, 239.0)">p</text><text xml:space="preserve" font-family="Menlo-Bold,Menlo" font-weight="bold" font-size="18.0" fill="#008E00" transform="matrix(1.00, 0.00, -0.00, -1.00, 416.1, 239.0)">'</text><text xml:space="preserve" font-family="Menlo-Regular,Menlo" font-size="18.0" fill="#000000" transform="matrix(1.00, 0.00, -0.00, -1.00, 427.0, 239.0)">)</text><text xml:space="preserve" font-family="Menlo-Regular,Menlo" font-size="18.0" fill="#D68B40" transform="matrix(1.00, 0.00, -0.00, -1.00, 437.8, 239.0)">;</text><text xml:space="preserve" font-family="Menlo-Regular,Menlo" font-size="18.0" fill="#D68B40" transform="matrix(1.00, 0.00, -0.00, -1.00, 448.6, 239.0)"> </text><text xml:space="preserve" font-family="GillSans-Light,Gill Sans" font-size="30.0" fill="#A51601" transform="matrix(1.00, 0.00, -0.00, -1.00, 175.0, 453.3)">m</text><text xml:space="preserve" font-family="GillSans-Light,Gill Sans" font-size="30.0" fill="#A51601" transform="matrix(1.00, 0.00, -0.00, -1.00, 198.1, 453.3)">o</text><text xml:space="preserve" font-family="GillSans-Light,Gill Sans" font-size="30.0" fill="#A51601" transform="matrix(1.00, 0.00, -0.00, -1.00, 214.3, 453.3)">d</text><text xml:space="preserve" font-family="GillSans-Light,Gill Sans" font-size="30.0" fill="#A51601" transform="matrix(1.00, 0.00, -0.00, -1.00, 229.6, 453.3)">u</text><text xml:space="preserve" font-family="GillSans-Light,Gill Sans" font-size="30.0" fill="#A51601" transform="matrix(1.00, 0.00, -0.00, -1.00, 244.3, 453.3)">l</text><text xml:space="preserve" font-family="GillSans-Light,Gill Sans" font-size="30.0" fill="#A51601" transform="matrix(1.00, 0.00, -0.00, -1.00, 250.0, 453.3)">e</text><text xml:space="preserve" font-family="GillSans-Light,Gill Sans" font-size="30.0" fill="#A51601" transform="matrix(1.00, 0.00, -0.00, -1.00, 264.4, 453.3)"> </text><text xml:space="preserve" font-family="GillSans-Light,Gill Sans" font-size="30.0" fill="#A51601" transform="matrix(1.00, 0.00, -0.00, -1.00, 272.7, 453.3)">n</text><text xml:space="preserve" font-family="GillSans-Light,Gill Sans" font-size="30.0" fill="#A51601" transform="matrix(1.00, 0.00, -0.00, -1.00, 287.4, 453.3)">a</text><text xml:space="preserve" font-family="GillSans-Light,Gill Sans" font-size="30.0" fill="#A51601" transform="matrix(1.00, 0.00, -0.00, -1.00, 300.2, 453.3)">m</text><text xml:space="preserve" font-family="GillSans-Light,Gill Sans" font-size="30.0" fill="#A51601" transform="matrix(1.00, 0.00, -0.00, -1.00, 323.3, 453.3)">e</text><text xml:space="preserve" font-family="GillSans-Light,Gill Sans" font-size="30.0" fill="#A51601" transform="matrix(1.00, 0.00, -0.00, -1.00, 479.2, 453.3)">d</text><text xml:space="preserve" font-family="GillSans-Light,Gill Sans" font-size="30.0" fill="#A51601" transform="matrix(1.00, 0.00, -0.00, -1.00, 494.5, 453.3)">e</text><text xml:space="preserve" font-family="GillSans-Light,Gill Sans" font-size="30.0" fill="#A51601" transform="matrix(1.00, 0.00, -0.00, -1.00, 508.9, 453.3)">p</text><text xml:space="preserve" font-family="GillSans-Light,Gill Sans" font-size="30.0" fill="#A51601" transform="matrix(1.00, 0.00, -0.00, -1.00, 524.2, 453.3)">e</text><text xml:space="preserve" font-family="GillSans-Light,Gill Sans" font-size="30.0" fill="#A51601" transform="matrix(1.00, 0.00, -0.00, -1.00, 538.5, 453.3)">n</text><text xml:space="preserve" font-family="GillSans-Light,Gill Sans" font-size="30.0" fill="#A51601" transform="matrix(1.00, 0.00, -0.00, -1.00, 553.3, 453.3)">d</text><text xml:space="preserve" font-family="GillSans-Light,Gill Sans" font-size="30.0" fill="#A51601" transform="matrix(1.00, 0.00, -0.00, -1.00, 568.5, 453.3)">e</text><text xml:space="preserve" font-family="GillSans-Light,Gill Sans" font-size="30.0" fill="#A51601" transform="matrix(1.00, 0.00, -0.00, -1.00, 582.9, 453.3)">n</text><text xml:space="preserve" font-family="GillSans-Light,Gill Sans" font-size="30.0" fill="#A51601" transform="matrix(1.00, 0.00, -0.00, -1.00, 597.6, 453.3)">c</text><text xml:space="preserve" font-family="GillSans-Light,Gill Sans" font-size="30.0" fill="#A51601" transform="matrix(1.00, 0.00, -0.00, -1.00, 610.1, 453.3)">i</text><text xml:space="preserve" font-family="GillSans-Light,Gill Sans" font-size="30.0" fill="#A51601" transform="matrix(1.00, 0.00, -0.00, -1.00, 615.8, 453.3)">e</text><text xml:space="preserve" font-family="GillSans-Light,Gill Sans" font-size="30.0" fill="#A51601" transform="matrix(1.00, 0.00, -0.00, -1.00, 630.1, 453.3)">s</text><path d="M 10.5 49.3 L 10.5 48.6 C -8.6 23.5 -1.0 7.3 34.2 0.0 " fill="none" stroke="#A51601" stroke-width="2.00" transform="matrix(1.00, 0.00, 0.00, -1.00, 440.5, 459.3)"></path><path d="M 446.7 407.7 L 456.5 403.4 L 454.0 413.8 Z M 446.7 407.7 " fill="#A51601"></path><path d="M 45.8 47.3 L 45.8 46.7 C 55.2 22.9 40.2 7.4 0.0 0.0 " fill="none" stroke="#A51601" stroke-width="2.00" transform="matrix(1.00, 0.00, 0.00, -1.00, 342.2, 458.3)"></path><path d="M 384.1 414.0 L 384.2 403.3 L 392.7 409.8 Z M 384.1 414.0 " fill="#A51601"></path><path d="M 578.0 292.0 C 575.2 292.4 573.0 290.1 573.0 287.4 L 573.0 252.4 L 553.0 242.4 L 573.0 232.4 L 573.0 197.4 C 573.0 194.6 575.2 192.0 578.0 192.0 L 907.2 192.0 C 909.9 192.0 912.0 194.6 912.0 197.4 L 912.0 287.4 C 912.0 290.1 909.9 292.0 907.2 292.0 L 578.0 292.0 Z M 578.0 292.4 " fill="#7F8685"></path><g><clipPath id="clip0x600002cba520"><path d="M 566.8 191.1 L 918.4 191.1 L 918.4 293.6 L 566.8 293.6 Z M 566.8 191.1 "></path></clipPath><g clip-path="url(#clip0x600002cba520)"><text xml:space="preserve" font-family="GillSans-Light,Gill Sans" font-size="36.0" fill="#FEFFFF" transform="matrix(1.00, 0.00, -0.00, -1.00, 587.3, 250.9)">r</text><text xml:space="preserve" font-family="GillSans-Light,Gill Sans" font-size="36.0" fill="#FEFFFF" transform="matrix(1.00, 0.00, -0.00, -1.00, 599.3, 250.9)">e</text><text xml:space="preserve" font-family="GillSans-Light,Gill Sans" font-size="36.0" fill="#FEFFFF" transform="matrix(1.00, 0.00, -0.00, -1.00, 616.6, 250.9)">t</text><text xml:space="preserve" font-family="GillSans-Light,Gill Sans" font-size="36.0" fill="#FEFFFF" transform="matrix(1.00, 0.00, -0.00, -1.00, 627.4, 250.9)">u</text><text xml:space="preserve" font-family="GillSans-Light,Gill Sans" font-size="36.0" fill="#FEFFFF" transform="matrix(1.00, 0.00, -0.00, -1.00, 645.1, 250.9)">r</text><text xml:space="preserve" font-family="GillSans-Light,Gill Sans" font-size="36.0" fill="#FEFFFF" transform="matrix(1.00, 0.00, -0.00, -1.00, 658.0, 250.9)">n</text><text xml:space="preserve" font-family="GillSans-Light,Gill Sans" font-size="36.0" fill="#FEFFFF" transform="matrix(1.00, 0.00, -0.00, -1.00, 675.6, 250.9)">s</text><text xml:space="preserve" font-family="GillSans-Light,Gill Sans" font-size="36.0" fill="#FEFFFF" transform="matrix(1.00, 0.00, -0.00, -1.00, 688.4, 250.9)"> </text><text xml:space="preserve" font-family="GillSans-Light,Gill Sans" font-size="36.0" fill="#FEFFFF" transform="matrix(1.00, 0.00, -0.00, -1.00, 698.4, 250.9)">a</text><text xml:space="preserve" font-family="GillSans-Light,Gill Sans" font-size="36.0" fill="#FEFFFF" transform="matrix(1.00, 0.00, -0.00, -1.00, 713.7, 250.9)"> </text><text xml:space="preserve" font-family="GillSans-Light,Gill Sans" font-size="36.0" fill="#FEFFFF" transform="matrix(1.00, 0.00, -0.00, -1.00, 723.7, 250.9)">r</text><text xml:space="preserve" font-family="GillSans-Light,Gill Sans" font-size="36.0" fill="#FEFFFF" transform="matrix(1.00, 0.00, -0.00, -1.00, 735.7, 250.9)">e</text><text xml:space="preserve" font-family="GillSans-Light,Gill Sans" font-size="36.0" fill="#FEFFFF" transform="matrix(1.00, 0.00, -0.00, -1.00, 753.0, 250.9)">f</text><text xml:space="preserve" font-family="GillSans-Light,Gill Sans" font-size="36.0" fill="#FEFFFF" transform="matrix(1.00, 0.00, -0.00, -1.00, 761.1, 250.9)">e</text><text xml:space="preserve" font-family="GillSans-Light,Gill Sans" font-size="36.0" fill="#FEFFFF" transform="matrix(1.00, 0.00, -0.00, -1.00, 778.3, 250.9)">r</text><text xml:space="preserve" font-family="GillSans-Light,Gill Sans" font-size="36.0" fill="#FEFFFF" transform="matrix(1.00, 0.00, -0.00, -1.00, 790.3, 250.9)">e</text><text xml:space="preserve" font-family="GillSans-Light,Gill Sans" font-size="36.0" fill="#FEFFFF" transform="matrix(1.00, 0.00, -0.00, -1.00, 807.5, 250.9)">n</text><text xml:space="preserve" font-family="GillSans-Light,Gill Sans" font-size="36.0" fill="#FEFFFF" transform="matrix(1.00, 0.00, -0.00, -1.00, 825.2, 250.9)">c</text><text xml:space="preserve" font-family="GillSans-Light,Gill Sans" font-size="36.0" fill="#FEFFFF" transform="matrix(1.00, 0.00, -0.00, -1.00, 840.2, 250.9)">e</text><text xml:space="preserve" font-family="GillSans-Light,Gill Sans" font-size="36.0" fill="#FEFFFF" transform="matrix(1.00, 0.00, -0.00, -1.00, 857.5, 250.9)"> </text><text xml:space="preserve" font-family="GillSans-Light,Gill Sans" font-size="36.0" fill="#FEFFFF" transform="matrix(1.00, 0.00, -0.00, -1.00, 867.4, 250.9)">t</text><text xml:space="preserve" font-family="GillSans-Light,Gill Sans" font-size="36.0" fill="#FEFFFF" transform="matrix(1.00, 0.00, -0.00, -1.00, 878.3, 250.9)">o</text><text xml:space="preserve" font-family="GillSans-Light,Gill Sans" font-size="36.0" fill="#FEFFFF" transform="matrix(1.00, 0.00, -0.00, -1.00, 897.8, 250.9)"> </text><text xml:space="preserve" font-family="GillSans-Light,Gill Sans" font-size="36.0" fill="#FEFFFF" transform="matrix(1.00, 0.00, -0.00, -1.00, 592.4, 209.9)">t</text><text xml:space="preserve" font-family="GillSans-Light,Gill Sans" font-size="36.0" fill="#FEFFFF" transform="matrix(1.00, 0.00, -0.00, -1.00, 603.2, 209.9)">h</text><text xml:space="preserve" font-family="GillSans-Light,Gill Sans" font-size="36.0" fill="#FEFFFF" transform="matrix(1.00, 0.00, -0.00, -1.00, 620.9, 209.9)">e</text><text xml:space="preserve" font-family="GillSans-Light,Gill Sans" font-size="36.0" fill="#FEFFFF" transform="matrix(1.00, 0.00, -0.00, -1.00, 638.1, 209.9)"> </text><text xml:space="preserve" font-family="GillSans-Light,Gill Sans" font-size="36.0" fill="#FEFFFF" transform="matrix(1.00, 0.00, -0.00, -1.00, 648.1, 209.9)">m</text><text xml:space="preserve" font-family="GillSans-Light,Gill Sans" font-size="36.0" fill="#FEFFFF" transform="matrix(1.00, 0.00, -0.00, -1.00, 675.9, 209.9)">o</text><text xml:space="preserve" font-family="GillSans-Light,Gill Sans" font-size="36.0" fill="#FEFFFF" transform="matrix(1.00, 0.00, -0.00, -1.00, 695.4, 209.9)">d</text><text xml:space="preserve" font-family="GillSans-Light,Gill Sans" font-size="36.0" fill="#FEFFFF" transform="matrix(1.00, 0.00, -0.00, -1.00, 713.7, 209.9)">u</text><text xml:space="preserve" font-family="GillSans-Light,Gill Sans" font-size="36.0" fill="#FEFFFF" transform="matrix(1.00, 0.00, -0.00, -1.00, 731.4, 209.9)">l</text><text xml:space="preserve" font-family="GillSans-Light,Gill Sans" font-size="36.0" fill="#FEFFFF" transform="matrix(1.00, 0.00, -0.00, -1.00, 738.1, 209.9)">e</text><text xml:space="preserve" font-family="GillSans-Light,Gill Sans" font-size="36.0" fill="#FEFFFF" transform="matrix(1.00, 0.00, -0.00, -1.00, 755.4, 209.9)"> </text><text xml:space="preserve" font-family="GillSans-Light,Gill Sans" font-size="36.0" fill="#FEFFFF" transform="matrix(1.00, 0.00, -0.00, -1.00, 761.8, 209.9)">‘</text><text xml:space="preserve" font-family="GillSans-Light,Gill Sans" font-size="36.0" fill="#FEFFFF" transform="matrix(1.00, 0.00, -0.00, -1.00, 768.1, 209.9)">m</text><text xml:space="preserve" font-family="GillSans-Light,Gill Sans" font-size="36.0" fill="#FEFFFF" transform="matrix(1.00, 0.00, -0.00, -1.00, 795.9, 209.9)">a</text><text xml:space="preserve" font-family="GillSans-Light,Gill Sans" font-size="36.0" fill="#FEFFFF" transform="matrix(1.00, 0.00, -0.00, -1.00, 810.7, 209.9)">y</text><text xml:space="preserve" font-family="GillSans-Light,Gill Sans" font-size="36.0" fill="#FEFFFF" transform="matrix(1.00, 0.00, -0.00, -1.00, 825.7, 209.9)">A</text><text xml:space="preserve" font-family="GillSans-Light,Gill Sans" font-size="36.0" fill="#FEFFFF" transform="matrix(1.00, 0.00, -0.00, -1.00, 849.7, 209.9)">p</text><text xml:space="preserve" font-family="GillSans-Light,Gill Sans" font-size="36.0" fill="#FEFFFF" transform="matrix(1.00, 0.00, -0.00, -1.00, 868.1, 209.9)">p</text><text xml:space="preserve" font-family="GillSans-Light,Gill Sans" font-size="36.0" fill="#FEFFFF" transform="matrix(1.00, 0.00, -0.00, -1.00, 886.4, 209.9)">’</text></g></g><path d="M 578.0 434.0 C 575.2 434.0 573.0 431.8 573.0 429.0 L 573.0 394.0 L 553.0 384.0 L 573.0 374.0 L 573.0 339.0 C 573.0 336.2 575.2 334.0 578.0 334.0 L 907.2 334.0 C 909.9 334.0 912.0 336.2 912.0 339.0 L 912.0 429.0 C 912.0 431.8 909.9 434.0 907.2 434.0 L 578.0 434.0 Z M 578.0 434.0 " fill="#7F8685"></path><g><clipPath id="clip0x600002cbb780"><path d="M 566.8 332.7 L 918.4 332.7 L 918.4 435.2 L 566.8 435.2 Z M 566.8 332.7 "></path></clipPath><g clip-path="url(#clip0x600002cbb780)"><text xml:space="preserve" font-family="GillSans-Light,Gill Sans" font-size="36.0" fill="#FEFFFF" transform="matrix(1.00, 0.00, -0.00, -1.00, 585.8, 392.5)">d</text><text xml:space="preserve" font-family="GillSans-Light,Gill Sans" font-size="36.0" fill="#FEFFFF" transform="matrix(1.00, 0.00, -0.00, -1.00, 604.2, 392.5)">e</text><text xml:space="preserve" font-family="GillSans-Light,Gill Sans" font-size="36.0" fill="#FEFFFF" transform="matrix(1.00, 0.00, -0.00, -1.00, 621.4, 392.5)">ﬁ</text><text xml:space="preserve" font-family="GillSans-Light,Gill Sans" font-size="36.0" fill="#FEFFFF" transform="matrix(1.00, 0.00, -0.00, -1.00, 638.7, 392.5)">n</text><text xml:space="preserve" font-family="GillSans-Light,Gill Sans" font-size="36.0" fill="#FEFFFF" transform="matrix(1.00, 0.00, -0.00, -1.00, 656.3, 392.5)">e</text><text xml:space="preserve" font-family="GillSans-Light,Gill Sans" font-size="36.0" fill="#FEFFFF" transform="matrix(1.00, 0.00, -0.00, -1.00, 673.6, 392.5)">s</text><text xml:space="preserve" font-family="GillSans-Light,Gill Sans" font-size="36.0" fill="#FEFFFF" transform="matrix(1.00, 0.00, -0.00, -1.00, 686.3, 392.5)"> </text><text xml:space="preserve" font-family="GillSans-Light,Gill Sans" font-size="36.0" fill="#FEFFFF" transform="matrix(1.00, 0.00, -0.00, -1.00, 696.3, 392.5)">a</text><text xml:space="preserve" font-family="GillSans-Light,Gill Sans" font-size="36.0" fill="#FEFFFF" transform="matrix(1.00, 0.00, -0.00, -1.00, 711.7, 392.5)"> </text><text xml:space="preserve" font-family="GillSans-Light,Gill Sans" font-size="36.0" fill="#FEFFFF" transform="matrix(1.00, 0.00, -0.00, -1.00, 721.7, 392.5)">n</text><text xml:space="preserve" font-family="GillSans-Light,Gill Sans" font-size="36.0" fill="#FEFFFF" transform="matrix(1.00, 0.00, -0.00, -1.00, 739.3, 392.5)">e</text><text xml:space="preserve" font-family="GillSans-Light,Gill Sans" font-size="36.0" fill="#FEFFFF" transform="matrix(1.00, 0.00, -0.00, -1.00, 756.6, 392.5)">w</text><text xml:space="preserve" font-family="GillSans-Light,Gill Sans" font-size="36.0" fill="#FEFFFF" transform="matrix(1.00, 0.00, -0.00, -1.00, 782.0, 392.5)"> </text><text xml:space="preserve" font-family="GillSans-Light,Gill Sans" font-size="36.0" fill="#FEFFFF" transform="matrix(1.00, 0.00, -0.00, -1.00, 792.0, 392.5)">m</text><text xml:space="preserve" font-family="GillSans-Light,Gill Sans" font-size="36.0" fill="#FEFFFF" transform="matrix(1.00, 0.00, -0.00, -1.00, 819.8, 392.5)">o</text><text xml:space="preserve" font-family="GillSans-Light,Gill Sans" font-size="36.0" fill="#FEFFFF" transform="matrix(1.00, 0.00, -0.00, -1.00, 839.3, 392.5)">d</text><text xml:space="preserve" font-family="GillSans-Light,Gill Sans" font-size="36.0" fill="#FEFFFF" transform="matrix(1.00, 0.00, -0.00, -1.00, 857.7, 392.5)">u</text><text xml:space="preserve" font-family="GillSans-Light,Gill Sans" font-size="36.0" fill="#FEFFFF" transform="matrix(1.00, 0.00, -0.00, -1.00, 875.3, 392.5)">l</text><text xml:space="preserve" font-family="GillSans-Light,Gill Sans" font-size="36.0" fill="#FEFFFF" transform="matrix(1.00, 0.00, -0.00, -1.00, 882.1, 392.5)">e</text><text xml:space="preserve" font-family="GillSans-Light,Gill Sans" font-size="36.0" fill="#FEFFFF" transform="matrix(1.00, 0.00, -0.00, -1.00, 899.3, 392.5)"> </text><text xml:space="preserve" font-family="GillSans-Light,Gill Sans" font-size="36.0" fill="#FEFFFF" transform="matrix(1.00, 0.00, -0.00, -1.00, 641.8, 351.5)">c</text><text xml:space="preserve" font-family="GillSans-Light,Gill Sans" font-size="36.0" fill="#FEFFFF" transform="matrix(1.00, 0.00, -0.00, -1.00, 656.8, 351.5)">a</text><text xml:space="preserve" font-family="GillSans-Light,Gill Sans" font-size="36.0" fill="#FEFFFF" transform="matrix(1.00, 0.00, -0.00, -1.00, 672.2, 351.5)">l</text><text xml:space="preserve" font-family="GillSans-Light,Gill Sans" font-size="36.0" fill="#FEFFFF" transform="matrix(1.00, 0.00, -0.00, -1.00, 678.9, 351.5)">l</text><text xml:space="preserve" font-family="GillSans-Light,Gill Sans" font-size="36.0" fill="#FEFFFF" transform="matrix(1.00, 0.00, -0.00, -1.00, 685.7, 351.5)">e</text><text xml:space="preserve" font-family="GillSans-Light,Gill Sans" font-size="36.0" fill="#FEFFFF" transform="matrix(1.00, 0.00, -0.00, -1.00, 703.0, 351.5)">d</text><text xml:space="preserve" font-family="GillSans-Light,Gill Sans" font-size="36.0" fill="#FEFFFF" transform="matrix(1.00, 0.00, -0.00, -1.00, 721.3, 351.5)"> </text><text xml:space="preserve" font-family="GillSans-Light,Gill Sans" font-size="36.0" fill="#FEFFFF" transform="matrix(1.00, 0.00, -0.00, -1.00, 727.7, 351.5)">‘</text><text xml:space="preserve" font-family="GillSans-Light,Gill Sans" font-size="36.0" fill="#FEFFFF" transform="matrix(1.00, 0.00, -0.00, -1.00, 734.0, 351.5)">m</text><text xml:space="preserve" font-family="GillSans-Light,Gill Sans" font-size="36.0" fill="#FEFFFF" transform="matrix(1.00, 0.00, -0.00, -1.00, 761.3, 351.5)">y</text><text xml:space="preserve" font-family="GillSans-Light,Gill Sans" font-size="36.0" fill="#FEFFFF" transform="matrix(1.00, 0.00, -0.00, -1.00, 776.3, 351.5)">A</text><text xml:space="preserve" font-family="GillSans-Light,Gill Sans" font-size="36.0" fill="#FEFFFF" transform="matrix(1.00, 0.00, -0.00, -1.00, 800.3, 351.5)">p</text><text xml:space="preserve" font-family="GillSans-Light,Gill Sans" font-size="36.0" fill="#FEFFFF" transform="matrix(1.00, 0.00, -0.00, -1.00, 818.6, 351.5)">p</text><text xml:space="preserve" font-family="GillSans-Light,Gill Sans" font-size="36.0" fill="#FEFFFF" transform="matrix(1.00, 0.00, -0.00, -1.00, 837.0, 351.5)">’</text></g></g><path d="M 80.2 112.5 L 318.6 112.5 L 318.6 91.5 L 80.2 91.5 Z M 80.2 112.5 " fill="#000000" fill-opacity="0.00"></path><text xml:space="preserve" font-family="Menlo-Regular,Menlo" font-size="18.0" fill="#000000" transform="matrix(1.00, 0.00, -0.00, -1.00, 80.2, 95.7)">&lt;</text><text xml:space="preserve" font-family="Menlo-Regular,Menlo" font-size="18.0" fill="#011892" transform="matrix(1.00, 0.00, -0.00, -1.00, 91.0, 95.7)">h</text><text xml:space="preserve" font-family="Menlo-Regular,Menlo" font-size="18.0" fill="#011892" transform="matrix(1.00, 0.00, -0.00, -1.00, 101.9, 95.7)">t</text><text xml:space="preserve" font-family="Menlo-Regular,Menlo" font-size="18.0" fill="#011892" transform="matrix(1.00, 0.00, -0.00, -1.00, 112.7, 95.7)">m</text><text xml:space="preserve" font-family="Menlo-Regular,Menlo" font-size="18.0" fill="#011892" transform="matrix(1.00, 0.00, -0.00, -1.00, 123.5, 95.7)">l</text><text xml:space="preserve" font-family="Menlo-Regular,Menlo" font-size="18.0" fill="#011892" transform="matrix(1.00, 0.00, -0.00, -1.00, 134.4, 95.7)"> </text><text xml:space="preserve" font-family="Menlo-Regular,Menlo" font-size="18.0" fill="#000000" transform="matrix(1.00, 0.00, -0.00, -1.00, 145.2, 95.7)">n</text><text xml:space="preserve" font-family="Menlo-Regular,Menlo" font-size="18.0" fill="#000000" transform="matrix(1.00, 0.00, -0.00, -1.00, 156.0, 95.7)">g</text><text xml:space="preserve" font-family="Menlo-Regular,Menlo" font-size="18.0" fill="#000000" transform="matrix(1.00, 0.00, -0.00, -1.00, 166.9, 95.7)">-</text><text xml:space="preserve" font-family="Menlo-Regular,Menlo" font-size="18.0" fill="#000000" transform="matrix(1.00, 0.00, -0.00, -1.00, 177.7, 95.7)">a</text><text xml:space="preserve" font-family="Menlo-Regular,Menlo" font-size="18.0" fill="#000000" transform="matrix(1.00, 0.00, -0.00, -1.00, 188.6, 95.7)">p</text><text xml:space="preserve" font-family="Menlo-Regular,Menlo" font-size="18.0" fill="#000000" transform="matrix(1.00, 0.00, -0.00, -1.00, 199.4, 95.7)">p</text><text xml:space="preserve" font-family="Menlo-Regular,Menlo" font-size="18.0" fill="#000000" transform="matrix(1.00, 0.00, -0.00, -1.00, 210.2, 95.7)">=</text><text xml:space="preserve" font-family="Menlo-Regular,Menlo" font-size="18.0" fill="#008E00" transform="matrix(1.00, 0.00, -0.00, -1.00, 221.1, 95.7)">"</text><text xml:space="preserve" font-family="Menlo-Regular,Menlo" font-size="18.0" fill="#008E00" transform="matrix(1.00, 0.00, -0.00, -1.00, 231.9, 95.7)">m</text><text xml:space="preserve" font-family="Menlo-Regular,Menlo" font-size="18.0" fill="#008E00" transform="matrix(1.00, 0.00, -0.00, -1.00, 242.7, 95.7)">y</text><text xml:space="preserve" font-family="Menlo-Regular,Menlo" font-size="18.0" fill="#008E00" transform="matrix(1.00, 0.00, -0.00, -1.00, 253.6, 95.7)">A</text><text xml:space="preserve" font-family="Menlo-Regular,Menlo" font-size="18.0" fill="#008E00" transform="matrix(1.00, 0.00, -0.00, -1.00, 264.4, 95.7)">p</text><text xml:space="preserve" font-family="Menlo-Regular,Menlo" font-size="18.0" fill="#008E00" transform="matrix(1.00, 0.00, -0.00, -1.00, 275.3, 95.7)">p</text><text xml:space="preserve" font-family="Menlo-Regular,Menlo" font-size="18.0" fill="#008E00" transform="matrix(1.00, 0.00, -0.00, -1.00, 286.1, 95.7)">"</text><text xml:space="preserve" font-family="Menlo-Regular,Menlo" font-size="18.0" fill="#000000" transform="matrix(1.00, 0.00, -0.00, -1.00, 296.9, 95.7)">&gt;</text><text xml:space="preserve" font-family="Menlo-Regular,Menlo" font-size="18.0" fill="#000000" transform="matrix(1.00, 0.00, -0.00, -1.00, 307.8, 95.7)"> </text><path d="M 403.1 150.0 C 400.3 150.5 398.0 148.3 398.0 145.5 L 398.0 110.5 L 378.1 100.5 L 398.0 90.5 L 398.0 55.5 C 398.0 52.7 400.3 50.0 403.1 50.0 L 907.2 50.0 C 909.9 50.0 912.0 52.7 912.0 55.5 L 912.0 145.5 C 912.0 148.3 909.9 150.0 907.2 150.0 L 403.1 150.0 Z M 403.1 150.5 " fill="#7F8685"></path><g><clipPath id="clip0x600002cbc200"><path d="M 391.9 49.2 L 918.4 49.2 L 918.4 151.7 L 391.9 151.7 Z M 391.9 49.2 "></path></clipPath><g clip-path="url(#clip0x600002cbc200)"><text xml:space="preserve" font-family="GillSans-Light,Gill Sans" font-size="36.0" fill="#FEFFFF" transform="matrix(1.00, 0.00, -0.00, -1.00, 411.9, 109.0)">d</text><text xml:space="preserve" font-family="GillSans-Light,Gill Sans" font-size="36.0" fill="#FEFFFF" transform="matrix(1.00, 0.00, -0.00, -1.00, 430.2, 109.0)">e</text><text xml:space="preserve" font-family="GillSans-Light,Gill Sans" font-size="36.0" fill="#FEFFFF" transform="matrix(1.00, 0.00, -0.00, -1.00, 447.4, 109.0)">ﬁ</text><text xml:space="preserve" font-family="GillSans-Light,Gill Sans" font-size="36.0" fill="#FEFFFF" transform="matrix(1.00, 0.00, -0.00, -1.00, 464.7, 109.0)">n</text><text xml:space="preserve" font-family="GillSans-Light,Gill Sans" font-size="36.0" fill="#FEFFFF" transform="matrix(1.00, 0.00, -0.00, -1.00, 482.3, 109.0)">e</text><text xml:space="preserve" font-family="GillSans-Light,Gill Sans" font-size="36.0" fill="#FEFFFF" transform="matrix(1.00, 0.00, -0.00, -1.00, 499.6, 109.0)">s</text><text xml:space="preserve" font-family="GillSans-Light,Gill Sans" font-size="36.0" fill="#FEFFFF" transform="matrix(1.00, 0.00, -0.00, -1.00, 512.3, 109.0)"> </text><text xml:space="preserve" font-family="GillSans-Light,Gill Sans" font-size="36.0" fill="#FEFFFF" transform="matrix(1.00, 0.00, -0.00, -1.00, 522.3, 109.0)">t</text><text xml:space="preserve" font-family="GillSans-Light,Gill Sans" font-size="36.0" fill="#FEFFFF" transform="matrix(1.00, 0.00, -0.00, -1.00, 533.2, 109.0)">h</text><text xml:space="preserve" font-family="GillSans-Light,Gill Sans" font-size="36.0" fill="#FEFFFF" transform="matrix(1.00, 0.00, -0.00, -1.00, 550.8, 109.0)">e</text><text xml:space="preserve" font-family="GillSans-Light,Gill Sans" font-size="36.0" fill="#FEFFFF" transform="matrix(1.00, 0.00, -0.00, -1.00, 568.1, 109.0)"> </text><text xml:space="preserve" font-family="GillSans-Light,Gill Sans" font-size="36.0" fill="#FEFFFF" transform="matrix(1.00, 0.00, -0.00, -1.00, 578.1, 109.0)">m</text><text xml:space="preserve" font-family="GillSans-Light,Gill Sans" font-size="36.0" fill="#FEFFFF" transform="matrix(1.00, 0.00, -0.00, -1.00, 605.8, 109.0)">o</text><text xml:space="preserve" font-family="GillSans-Light,Gill Sans" font-size="36.0" fill="#FEFFFF" transform="matrix(1.00, 0.00, -0.00, -1.00, 625.3, 109.0)">d</text><text xml:space="preserve" font-family="GillSans-Light,Gill Sans" font-size="36.0" fill="#FEFFFF" transform="matrix(1.00, 0.00, -0.00, -1.00, 643.7, 109.0)">u</text><text xml:space="preserve" font-family="GillSans-Light,Gill Sans" font-size="36.0" fill="#FEFFFF" transform="matrix(1.00, 0.00, -0.00, -1.00, 661.3, 109.0)">l</text><text xml:space="preserve" font-family="GillSans-Light,Gill Sans" font-size="36.0" fill="#FEFFFF" transform="matrix(1.00, 0.00, -0.00, -1.00, 668.1, 109.0)">e</text><text xml:space="preserve" font-family="GillSans-Light,Gill Sans" font-size="36.0" fill="#FEFFFF" transform="matrix(1.00, 0.00, -0.00, -1.00, 685.4, 109.0)"> </text><text xml:space="preserve" font-family="GillSans-Light,Gill Sans" font-size="36.0" fill="#FEFFFF" transform="matrix(1.00, 0.00, -0.00, -1.00, 691.8, 109.0)">‘</text><text xml:space="preserve" font-family="GillSans-Light,Gill Sans" font-size="36.0" fill="#FEFFFF" transform="matrix(1.00, 0.00, -0.00, -1.00, 698.1, 109.0)">m</text><text xml:space="preserve" font-family="GillSans-Light,Gill Sans" font-size="36.0" fill="#FEFFFF" transform="matrix(1.00, 0.00, -0.00, -1.00, 725.3, 109.0)">y</text><text xml:space="preserve" font-family="GillSans-Light,Gill Sans" font-size="36.0" fill="#FEFFFF" transform="matrix(1.00, 0.00, -0.00, -1.00, 740.3, 109.0)">A</text><text xml:space="preserve" font-family="GillSans-Light,Gill Sans" font-size="36.0" fill="#FEFFFF" transform="matrix(1.00, 0.00, -0.00, -1.00, 764.3, 109.0)">p</text><text xml:space="preserve" font-family="GillSans-Light,Gill Sans" font-size="36.0" fill="#FEFFFF" transform="matrix(1.00, 0.00, -0.00, -1.00, 782.7, 109.0)">p</text><text xml:space="preserve" font-family="GillSans-Light,Gill Sans" font-size="36.0" fill="#FEFFFF" transform="matrix(1.00, 0.00, -0.00, -1.00, 801.0, 109.0)">’</text><text xml:space="preserve" font-family="GillSans-Light,Gill Sans" font-size="36.0" fill="#FEFFFF" transform="matrix(1.00, 0.00, -0.00, -1.00, 804.5, 109.0)"> </text><text xml:space="preserve" font-family="GillSans-Light,Gill Sans" font-size="36.0" fill="#FEFFFF" transform="matrix(1.00, 0.00, -0.00, -1.00, 814.5, 109.0)">a</text><text xml:space="preserve" font-family="GillSans-Light,Gill Sans" font-size="36.0" fill="#FEFFFF" transform="matrix(1.00, 0.00, -0.00, -1.00, 829.9, 109.0)">s</text><text xml:space="preserve" font-family="GillSans-Light,Gill Sans" font-size="36.0" fill="#FEFFFF" transform="matrix(1.00, 0.00, -0.00, -1.00, 842.6, 109.0)"> </text><text xml:space="preserve" font-family="GillSans-Light,Gill Sans" font-size="36.0" fill="#FEFFFF" transform="matrix(1.00, 0.00, -0.00, -1.00, 852.6, 109.0)">t</text><text xml:space="preserve" font-family="GillSans-Light,Gill Sans" font-size="36.0" fill="#FEFFFF" transform="matrix(1.00, 0.00, -0.00, -1.00, 863.5, 109.0)">h</text><text xml:space="preserve" font-family="GillSans-Light,Gill Sans" font-size="36.0" fill="#FEFFFF" transform="matrix(1.00, 0.00, -0.00, -1.00, 881.1, 109.0)">e</text><text xml:space="preserve" font-family="GillSans-Light,Gill Sans" font-size="36.0" fill="#FEFFFF" transform="matrix(1.00, 0.00, -0.00, -1.00, 898.4, 109.0)"> </text><text xml:space="preserve" font-family="GillSans-Light,Gill Sans" font-size="36.0" fill="#FEFFFF" transform="matrix(1.00, 0.00, -0.00, -1.00, 410.1, 68.0)">m</text><text xml:space="preserve" font-family="GillSans-Light,Gill Sans" font-size="36.0" fill="#FEFFFF" transform="matrix(1.00, 0.00, -0.00, -1.00, 437.8, 68.0)">a</text><text xml:space="preserve" font-family="GillSans-Light,Gill Sans" font-size="36.0" fill="#FEFFFF" transform="matrix(1.00, 0.00, -0.00, -1.00, 453.2, 68.0)">i</text><text xml:space="preserve" font-family="GillSans-Light,Gill Sans" font-size="36.0" fill="#FEFFFF" transform="matrix(1.00, 0.00, -0.00, -1.00, 459.9, 68.0)">n</text><text xml:space="preserve" font-family="GillSans-Light,Gill Sans" font-size="36.0" fill="#FEFFFF" transform="matrix(1.00, 0.00, -0.00, -1.00, 477.6, 68.0)"> </text><text xml:space="preserve" font-family="GillSans-Light,Gill Sans" font-size="36.0" fill="#FEFFFF" transform="matrix(1.00, 0.00, -0.00, -1.00, 487.6, 68.0)">a</text><text xml:space="preserve" font-family="GillSans-Light,Gill Sans" font-size="36.0" fill="#FEFFFF" transform="matrix(1.00, 0.00, -0.00, -1.00, 502.9, 68.0)">p</text><text xml:space="preserve" font-family="GillSans-Light,Gill Sans" font-size="36.0" fill="#FEFFFF" transform="matrix(1.00, 0.00, -0.00, -1.00, 521.3, 68.0)">p</text><text xml:space="preserve" font-family="GillSans-Light,Gill Sans" font-size="36.0" fill="#FEFFFF" transform="matrix(1.00, 0.00, -0.00, -1.00, 539.6, 68.0)">l</text><text xml:space="preserve" font-family="GillSans-Light,Gill Sans" font-size="36.0" fill="#FEFFFF" transform="matrix(1.00, 0.00, -0.00, -1.00, 546.4, 68.0)">i</text><text xml:space="preserve" font-family="GillSans-Light,Gill Sans" font-size="36.0" fill="#FEFFFF" transform="matrix(1.00, 0.00, -0.00, -1.00, 553.2, 68.0)">c</text><text xml:space="preserve" font-family="GillSans-Light,Gill Sans" font-size="36.0" fill="#FEFFFF" transform="matrix(1.00, 0.00, -0.00, -1.00, 568.2, 68.0)">a</text><text xml:space="preserve" font-family="GillSans-Light,Gill Sans" font-size="36.0" fill="#FEFFFF" transform="matrix(1.00, 0.00, -0.00, -1.00, 583.5, 68.0)">t</text><text xml:space="preserve" font-family="GillSans-Light,Gill Sans" font-size="36.0" fill="#FEFFFF" transform="matrix(1.00, 0.00, -0.00, -1.00, 594.4, 68.0)">i</text><text xml:space="preserve" font-family="GillSans-Light,Gill Sans" font-size="36.0" fill="#FEFFFF" transform="matrix(1.00, 0.00, -0.00, -1.00, 601.2, 68.0)">o</text><text xml:space="preserve" font-family="GillSans-Light,Gill Sans" font-size="36.0" fill="#FEFFFF" transform="matrix(1.00, 0.00, -0.00, -1.00, 620.7, 68.0)">n</text><text xml:space="preserve" font-family="GillSans-Light,Gill Sans" font-size="36.0" fill="#FEFFFF" transform="matrix(1.00, 0.00, -0.00, -1.00, 638.3, 68.0)"> </text><text xml:space="preserve" font-family="GillSans-Light,Gill Sans" font-size="36.0" fill="#FEFFFF" transform="matrix(1.00, 0.00, -0.00, -1.00, 648.3, 68.0)">f</text><text xml:space="preserve" font-family="GillSans-Light,Gill Sans" font-size="36.0" fill="#FEFFFF" transform="matrix(1.00, 0.00, -0.00, -1.00, 656.6, 68.0)">o</text><text xml:space="preserve" font-family="GillSans-Light,Gill Sans" font-size="36.0" fill="#FEFFFF" transform="matrix(1.00, 0.00, -0.00, -1.00, 676.1, 68.0)">r</text><text xml:space="preserve" font-family="GillSans-Light,Gill Sans" font-size="36.0" fill="#FEFFFF" transform="matrix(1.00, 0.00, -0.00, -1.00, 688.1, 68.0)"> </text><text xml:space="preserve" font-family="GillSans-Light,Gill Sans" font-size="36.0" fill="#FEFFFF" transform="matrix(1.00, 0.00, -0.00, -1.00, 698.1, 68.0)">t</text><text xml:space="preserve" font-family="GillSans-Light,Gill Sans" font-size="36.0" fill="#FEFFFF" transform="matrix(1.00, 0.00, -0.00, -1.00, 709.0, 68.0)">h</text><text xml:space="preserve" font-family="GillSans-Light,Gill Sans" font-size="36.0" fill="#FEFFFF" transform="matrix(1.00, 0.00, -0.00, -1.00, 726.6, 68.0)">i</text><text xml:space="preserve" font-family="GillSans-Light,Gill Sans" font-size="36.0" fill="#FEFFFF" transform="matrix(1.00, 0.00, -0.00, -1.00, 733.4, 68.0)">s</text><text xml:space="preserve" font-family="GillSans-Light,Gill Sans" font-size="36.0" fill="#FEFFFF" transform="matrix(1.00, 0.00, -0.00, -1.00, 746.1, 68.0)"> </text><text xml:space="preserve" font-family="GillSans-Light,Gill Sans" font-size="36.0" fill="#FEFFFF" transform="matrix(1.00, 0.00, -0.00, -1.00, 756.1, 68.0)">d</text><text xml:space="preserve" font-family="GillSans-Light,Gill Sans" font-size="36.0" fill="#FEFFFF" transform="matrix(1.00, 0.00, -0.00, -1.00, 774.5, 68.0)">o</text><text xml:space="preserve" font-family="GillSans-Light,Gill Sans" font-size="36.0" fill="#FEFFFF" transform="matrix(1.00, 0.00, -0.00, -1.00, 794.0, 68.0)">c</text><text xml:space="preserve" font-family="GillSans-Light,Gill Sans" font-size="36.0" fill="#FEFFFF" transform="matrix(1.00, 0.00, -0.00, -1.00, 809.0, 68.0)">u</text><text xml:space="preserve" font-family="GillSans-Light,Gill Sans" font-size="36.0" fill="#FEFFFF" transform="matrix(1.00, 0.00, -0.00, -1.00, 826.7, 68.0)">m</text><text xml:space="preserve" font-family="GillSans-Light,Gill Sans" font-size="36.0" fill="#FEFFFF" transform="matrix(1.00, 0.00, -0.00, -1.00, 854.4, 68.0)">e</text><text xml:space="preserve" font-family="GillSans-Light,Gill Sans" font-size="36.0" fill="#FEFFFF" transform="matrix(1.00, 0.00, -0.00, -1.00, 871.7, 68.0)">n</text><text xml:space="preserve" font-family="GillSans-Light,Gill Sans" font-size="36.0" fill="#FEFFFF" transform="matrix(1.00, 0.00, -0.00, -1.00, 889.3, 68.0)">t</text></g></g></g></svg>